<svg xmlns="http://www.w3.org/2000/svg" viewBox="0 0 34.02 776.11"><g id="レイヤー_2" data-name="レイヤー 2"><g id="レイヤー_1-2" data-name="レイヤー 1"><path d="M11.34,541.12h0l11.34,8.22V538l-11.34-8.22h0m11,15.74c.08.12.07.2,0,.23h-.16c-.07-.13-.07-.21,0-.23S22.29,545.5,22.29,545.52ZM18.75,541l.31.23.13.12c.1.19,0,.3-.1.44.05.19.1.41.15.61s.37.34.56.5a.28.28,0,0,1,.06.42.82.82,0,0,1-.13.17,3.68,3.68,0,0,1-.9-.58c-.09-.07-.16-.17-.28-.29.05-.11.1-.24.16-.39s-.12-.41-.18-.64l-.49,0s-.06-.12,0-.15a5.09,5.09,0,0,1,.3-.5C18.37,540.81,18.57,540.85,18.75,541Zm-3.63-1.19c0,.05.05.14,0,.15s-.22,0-.26-.07-.06-.15,0-.15A.2.2,0,0,1,15.12,539.8ZM22.68,16.44V5.1L34,13.33V24.66Zm0,68V95.81L34,104v11.34l-11.34-8.22V95.81L11.34,87.59,0,79.37V68l11.34,8.22h0Zm0,408.18V504L34,512.21v11.34l-11.34-8.22V504l-11.34-8.22L0,487.55V476.21l11.34,8.22Zm0-136.06h0v11.34L34,376.15v11.34l-11.34-8.22V367.93l-11.34-8.22L0,351.49V340.15l11.34,8.22,11.34,8.22Zm0-317.47V50.46L34,58.68V70L22.68,61.8V50.46L11.34,42.24,0,34V22.68L11.34,30.9h0ZM9,194.69s0,.05,0,.05,0,0,0,0,0,0,0,0ZM22.68,538,34,546.23V534.89l-11.34-8.22Zm6.59,1.91c-.11-.32,0-.48.35-.47C29.73,539.76,29.61,539.92,29.27,539.91ZM28,537.82s0,.1.05.15-.08.11-.22.07,0-.1,0-.15S27.81,537.78,28,537.82Zm-3.83-3H24l-.6-.45c-.07-.13-.07-.22,0-.24a.47.47,0,0,1,.17,0l.6.45C24.19,534.68,24.2,534.77,24.12,534.8Zm-1.44-19.47v11.34l-11.34-8.23L0,510.22V498.89l11.34,8.22h0Zm-15-319.82,0,0a.08.08,0,0,1,.07,0l0,0A.09.09,0,0,1,7.67,195.51Zm6.86,4.9s-.14-.06-.16-.1v0s.14.06.15.1S14.53,200.4,14.53,200.41ZM13.8,200l0,0s0,0,.06,0l.18.12,0,0s0,0,0,0Zm8.88-2.16-11.34-8.23h0L0,181.41v8.85l.11.07a.88.88,0,0,0,.26.06l.1.06.07.11.19.11.07.11,1,.68.14,0,.56.37h.09a1.53,1.53,0,0,1,.29.18l.09.11a2.94,2.94,0,0,0,.26.17s.07,0,.1,0,0,0,.11,0,.09.07.08.09,0,0,0,.09l.85.55.12,0,.1.06.07.11c.17,0,.18,0,.27.16s.16,0,.28.08l.25.16.08.11.09.06.08.11.09.05.22,0c.13.06.25.16.39.24l.12,0,.1,0,.07.11.23.15a.16.16,0,0,0,.09,0s0,0,0-.05l0,0h.11l0,0a.61.61,0,0,1-.07-.1l0,0c.08,0,.15.07.24.12l.13,0,.28.18.07.1.12,0,.29.18.12.18a.94.94,0,0,0,.19.14l.08.1c.11.09.24.16.37.25a.62.62,0,0,1,.11.17s0,0-.1,0l-.84-.54s-.06,0-.05,0l0,0,2.65,1.72,0,0h0l-.09,0c0,.06.14.11.15.17l0,0,.06.1,0,.05s0,0,.15.06l.14.21c.07,0,.07,0,.09,0a.41.41,0,0,1-.07-.11.72.72,0,0,1,.28.16l.28.18a2.53,2.53,0,0,1,.27.18l0,.08c.13.05.07-.06.14-.06h0l.47.31.08.1a.24.24,0,0,0,.09.06l.13,0,.09.07.1.14,0,0a.35.35,0,0,1-.13,0,.6.6,0,0,0-.16-.05l-.16-.1s-.07,0-.07,0a.05.05,0,0,0,0,0l.46.3a.09.09,0,0,1,0,.09.34.34,0,0,0,0,.11h-.11l.06.1,0,.06,1.52,1a.12.12,0,0,1,.07.07s0,.05,0,.05h-.09s0,0,0,.06l.83.53c.06.07,0,.08,0,.1l-.09,0-.43-.28,0,0h-.09l-.66-.43-.13,0-.08-.1-.37-.24-.13,0-.66-.44-.1-.15.19,0,.36.23h.06l-.09-.14-.12,0-.19-.12-.08-.11c-.1-.07-.2-.12-.28-.19s0,0,0,0h0c.09,0,.16.1.24.13h0a.08.08,0,0,0,0,0l-.76-.5-.08-.1-.18-.12-.15-.22-.56-.36-.06-.08s0,0-.07,0a.23.23,0,0,1-.19-.13l0,0-.09-.07-.13,0-.1-.16s.06,0,0-.08a.32.32,0,0,1-.27-.18l-.37-.24H9.74c.1.08,0,.11.07.18l.09.06s0,.07,0,.09a.06.06,0,0,1-.07,0c-.13-.07-.26-.16-.37-.23l-.13,0-.18-.12a1.09,1.09,0,0,0-.1-.11s-.09-.07-.1-.1l.21,0,.1,0,.2.12h0s0,0,0,0L8.57,196c-.05,0-.07,0-.08,0s0,0-.09,0l-.46-.3c-.1,0-.19-.06-.3-.13l-.08-.11-.12-.08c-.09-.06-.09-.06-.08-.12s0,0,0-.06l-2.65-1.72-.25-.05-.28-.18c0-.05-.05-.1-.13-.14s-.06-.07-.1-.11-.24-.16-.36-.25a3.53,3.53,0,0,1-.32-.21l-.05-.08c-.78-.52-1.06-.7-1.27-.81-.06,0,0,0,0,0s.14.11.21.17l.08.1.09.06c0,.05,0,.07,0,.09a.11.11,0,0,0,0,.06l.8.53.9.57a.86.86,0,0,0,.1.16l-.17,0-.1-.06-.08-.11-1.13-.73-.08-.11-.28-.18-.13,0-.94-.6-.09,0c-.1,0-.19-.14-.28-.14l0,0s-.08,0-.13-.05l-.15,0-.28-.18-.07-.1-.12,0L0,191v1.72L11.34,201l11.34,8.22ZM15,196.4l0,0a.06.06,0,0,1-.07,0l0,0A.08.08,0,0,1,15,196.4ZM11.36,196s0,0-.07,0,0-.06-.08-.09l0,0,0,0A.26.26,0,0,1,11.36,196Zm-.39-.06h0s0,0,0,0h0S11,195.92,11,195.93Zm-.28-.2s0,0,0,0-.14-.06-.16-.1h0A.19.19,0,0,1,10.69,195.73ZM9,194.13c0,.08,0,.08-.05.09l-.1-.06c0-.09,0-.09.06-.09Zm-.94-.6c0,.05,0,.06,0,.08a.23.23,0,0,1-.16-.08s0-.08-.09-.11a.38.38,0,0,1-.11-.11A2.59,2.59,0,0,1,8.05,193.53Zm-2.82-1.37,0-.06-.07-.1,0,0a.19.19,0,0,1,.16.09l.13.13c.08,0,.09.11.13.17l0,0A1.33,1.33,0,0,1,5.23,192.16Zm1,1.11-.67-.44-.07-.1-.19-.12-.07-.11,0,0s-.07,0-.07-.06,0,0,.07,0l.37.25.05.07a.52.52,0,0,0,.32.16c.12.09.22.14.31.22v.07a.41.41,0,0,1,0,.09Zm.35.51a1.27,1.27,0,0,1-.31-.2c0-.05,0-.05,0-.08l.12,0,0-.05a1,1,0,0,1,.29.19l-.09.13Zm-.16.36s0,0,.05,0a.08.08,0,0,0,0,0s0,0,0,0S6.39,194.15,6.39,194.14Zm4.22,2.69c0-.08,0-.08.05-.08l.09.06c0,.08,0,.08-.05.08Zm1.12.23.18,0a.6.6,0,0,0,.11.12.21.21,0,0,1,.09.1A1.32,1.32,0,0,1,11.73,197.06Zm1.43.59-.05-.07-.08-.07-.76-.49,0,0s-.06,0-.06,0l.14.08s0,.07,0,.09-.05,0-.1,0a.22.22,0,0,1-.1-.09l0-.06-.23-.16-.08-.1-.09-.06-.12,0s0-.07-.09-.1-.05,0-.06,0-.05,0-.1,0l-.15-.1-.13,0-.32-.2c-.07-.05-.07-.05-.14,0s0,0-.07,0l-.18-.12c-.06-.06,0-.07,0-.12a.94.94,0,0,0-.22-.15,1.88,1.88,0,0,0-.18-.12l-.05-.09c-.07,0-.14-.1-.21-.15l-.05-.07c-.1-.06-.16,0-.32-.1l0,0a.61.61,0,0,0-.07-.1l-.12,0L9,195.1l-.18,0,.14.21c-.05.05-.05,0-.18,0a.5.5,0,0,0-.13,0l-1-.67-.07-.11-.19-.12-.12,0-.18-.12a.63.63,0,0,0-.1-.12s-.09-.06-.1-.09H7l-.19-.3,0,0-.07-.11.06-.08-.06-.07L6.11,193l-.06-.09L6,192.82c-.1-.14-.11-.15-.1-.22l-.12-.19.11,0-.06-.1,0,0a.1.1,0,0,1,.09,0l.42.28s.09,0,.1,0,0,0,.07,0l.47.31L7,193l.28.18.08.11.12,0,.1.07,0,.08.19.13.08.11a.31.31,0,0,0,.21.08l.07.1.19.12.07.11.29.18h.08l.05,0,.46.3.06.09c.11.09.24.16.36.24l.43.27.34.23c.07.07,0,.08,0,.1l-.09,0-.14-.09h-.07s0,0,.06.06.08.06.08.09c-.15,0-.15,0-.1.08l.1.06h.08l.06,0L11,196c.07,0,.07,0,.08,0a.27.27,0,0,1,.2.12l0,0a1.85,1.85,0,0,0,.4.28.76.76,0,0,0,.08.11l.28.19.13,0,1.27.82a.29.29,0,0,1,.08.07s0,.06,0,.06-.11,0-.13,0S13.21,197.7,13.16,197.65Zm1,.63c0-.09,0-.09.05-.09l.09.06c0,.09,0,.09,0,.09Zm3,1.86-.48-.31-.12,0-.65-.42-.14,0-.19-.13-.09-.13a0,0,0,0,1,0,0,.08.08,0,0,1,.07,0l.75.49.13,0,.09.06.24,0,.19.13c.06.05,0,.06,0,.08s.1.09.09.09l.15.19ZM3,192.57l0,0-.14-.09-.31-.21c0-.05,0-.06,0-.08l.08,0,.36.23.1.16Zm2.39,1.67c0,.08,0,.1,0,.09S5.34,194.23,5.42,194.24Zm.54.41-.1-.06H5.75l-.1-.07c0-.07-.05-.09.06-.08l.28.18s0,0,0,0ZM11,198.39s0,0,.05,0l0,0s0,0,0,0S11,198.4,11,198.39Zm6.62,3.78c0-.08,0-.08,0-.14s.09,0,.13.06,0,.1,0,.09Zm1.88,0-.05-.07.05-.08.18,0,.12.08c.11.07.12.08.08.14l-.29-.05ZM22.68,84.47V73.13L34,81.36V92.69ZM11.34,461.75h0L0,453.53v11.34l11.34,8.22,11.34,8.22V470Zm7,14.13a.34.34,0,0,1,0-.15c0-.08.07-.11.21-.08s0,.1.05.15S18.51,475.92,18.37,475.88Zm.95-.1c-.08-.12-.06-.21,0-.27s0-.1.09-.11.22,0,.27.05a.24.24,0,0,1,0,.16s-.05.07-.08.11S19.4,475.9,19.32,475.78Zm2.69,0a.56.56,0,0,1-.63-.45A.53.53,0,0,1,22,475.77Zm-3-1.94c0,.06.06.15,0,.15s-.21,0-.26-.06a.41.41,0,0,1,0-.15A.21.21,0,0,1,19,473.83Zm-2.25-.21c.07.28.14.6.21.87a3.7,3.7,0,0,1,.36.27.25.25,0,0,1,.05.15.14.14,0,0,1-.23.07c-.32-.2-.62-.44-.92-.65-.06-.16-.11-.32-.16-.48l-.61-.44c-.06-.39-.06-.39.33-.48C16.06,473.15,16.37,473.36,16.72,473.62Zm-1.52-.91a.54.54,0,0,1-.63-.45A.56.56,0,0,1,15.2,472.71Zm.84-2.06c0,.05.06.14,0,.15a.2.2,0,0,1-.26-.07.38.38,0,0,1,0-.14C15.9,470.55,16,470.57,16,470.65Zm-2.19.92s.05.1.06.15-.06.11-.2.11a3.88,3.88,0,0,0-.44.05c-.79-.56-1.51-1.07-2.22-1.6-.11-.08-.1-.21,0-.24a.18.18,0,0,1,.16,0,3.37,3.37,0,0,1,.31.21H12Zm.73-1.42c-.05,0-.14,0-.15,0s-.08-.21,0-.23.15,0,.16,0S14.66,470.12,14.58,470.15Zm8.1-402.69-1.21-.85a.31.31,0,0,1,0-.08c0-.09.14-.17.21-.12s.28.21.42.3a2.44,2.44,0,0,0,.43.28h.17V61.8L11.34,53.57,0,45.35V56.69l11.34,8.22,11.34,8.22ZM9.89,56.16a.23.23,0,0,1,.28.2A.24.24,0,0,1,9.89,56.16Zm4.55,3.47s-.06,0-.07-.05,0-.1,0-.11h.07s.05,0,.07,0,.12.14.07.16A.11.11,0,0,1,14.44,59.63Zm-.76.63s0-.09,0-.11h.08l.41.29c0,.06,0,.1,0,.11a.11.11,0,0,1-.08,0Zm3.55.31a.09.09,0,0,1,0-.13c-.16-.11-.32-.22-.47-.34s0-.07,0-.11a.12.12,0,0,1,.08,0,1.67,1.67,0,0,1,.45.34.08.08,0,0,1,0,.12l.14.1C17.32,60.61,17.27,60.62,17.23,60.57Zm-2,.36.08-.11c.19,0,.19,0,.28.2l-.08.11C15.3,61.11,15.3,61.11,15.21,60.93Zm6.33,4.39c0,.19,0,.19-.16.22l-.14-.09c0-.19,0-.19.16-.22Zm.09-.43s0,.09,0,.11-.06,0-.07,0l-.28-.2a.19.19,0,0,1,0-.07s0,0,.1,0Zm-6.19-2.43s0-.05.1,0l0,.07s0,0-.1,0A.14.14,0,0,1,15.44,62.46Zm5.89,1a.19.19,0,0,1,0-.07l0,0c0-.07.12-.09.16,0s0,.09,0,.12,0,.05,0,.05A.08.08,0,0,1,21.33,63.47Zm-1.9.49s.1-.05.13,0l1.2.84c.11.08.13.18,0,.25a.15.15,0,0,1-.13,0,3.33,3.33,0,0,1-.35-.23,2.55,2.55,0,0,1-.19.26s-.08,0-.11,0l-.1-.29.22,0s0-.07,0-.08l-.7-.51A.14.14,0,0,1,19.43,64Zm-2.11.33s0-.05.1,0,0,0,0,.06,0,.06-.1,0S17.33,64.32,17.32,64.29Zm2.58,1.54a.12.12,0,0,1,0-.14c.05-.1,0-.15,0-.19l-.95-.67c-.1,0-.14,0-.15,0a.11.11,0,0,1-.12.07s-.06,0-.07-.11-.07-.14-.08-.18a1,1,0,0,0,.09-.15.19.19,0,0,0-.07-.13c-.18-.17-.17-.23.06-.29l.2.14c.11.08.11.08.06.24a.65.65,0,0,0,0,.14h.23l1.76,1.24c.13.09.13.19,0,.27h-.07l-.14-.1h-.24l-.27-.2Zm-.78.27a.1.1,0,0,1-.07-.1s.05,0,.07,0a.1.1,0,0,1,.07.1Zm-.3.32a.81.81,0,0,0,0-.19c0-.07,0-.1,0-.11a.15.15,0,0,1,.15,0,1.49,1.49,0,0,0,.2.15c0,.18,0,.18-.15.23Zm-7.48,350,11.34,8.22V436L34,444.18v11.34L22.68,447.3V436l-11.34-8.22M13.06,199.3l.13.09s-.08,0-.17-.06l0,0s0,0,0,0Zm9.11,255.38c0,.08,0,.18-.07.32,0-.11,0-.21,0-.31a.08.08,0,0,1,0-.06h0l-.92-.62s0-.1,0-.14.14-.16.17-.13l.43.28a1.91,1.91,0,0,1,0,.2c.08,0,.17-.05.22,0s.21.07.2.23a.71.71,0,0,0-.09.22.17.17,0,0,0,.06.06l.33-.17.11.07v-7.3l-11.34-8.22L0,430.86v11.33l11.34,8.23,11.34,8.22v-2.45l-.41-.27c0-.19,0-.19.19-.27l.11.07.11,0v-.37A2.87,2.87,0,0,1,22.17,454.68ZM3.85,440.22s-.06-.05,0-.1a2.53,2.53,0,0,1,.18-.27c.12-.06.17,0,.24.06a.14.14,0,0,1,.09.16l-.09.13-.13,0s-.07,0-.12,0A1,1,0,0,0,3.85,440.22ZM6,443.5l-.1-.08c0-.1,0-.2,0-.3a.82.82,0,0,1,.34-.09,1.38,1.38,0,0,1,.3.24c0,.07,0,.15,0,.19a.16.16,0,0,1,.08.17,1.13,1.13,0,0,0-.1.13l-.5.16C6,443.78,6,443.63,6,443.5Zm9.59,6.15s0,0,0-.08l.1-.13a.13.13,0,0,1,.21.06c0,.06,0,.15,0,.2s.09.08.08.16-.05,0-.07,0A.72.72,0,0,1,15.6,449.65Zm5.46,3.76.07,0s.05,0,0,.09l-.07,0S21.05,453.47,21.06,453.41ZM23,39.12a.61.61,0,0,1,.05.12s0,.06-.09.07l4.25,3.08a0,0,0,0,1,0,0h.12l.25.17.53,0c0-.13-.05-.22-.18-.29A.22.22,0,0,1,27.8,42s.16,0,.22,0l1,.66.7.47c.19.51.21.52.75.51l.12.36c.13.09.3.19.45.31s0,.14.07.21c-.17,0-.36,0-.44.15a1,1,0,0,1-.13.17l1.25.9a.21.21,0,0,1,.16-.17c.14,0,.25.09.37.16s.11.32.16.5h0L34,47.34V36L22.68,27.78V38.92Zm9.11,5.93a.42.42,0,0,1,0,.12l-.52,0a1.17,1.17,0,0,1-.21-.54s.09,0,.13,0A1.46,1.46,0,0,1,32.09,45.05Zm.16-.68a.15.15,0,0,1,0,.06.19.19,0,0,1-.13,0l-.24-.16s0-.08,0-.12,0,0,.05-.06S32.26,44.23,32.25,44.37Zm-2-3.06s0,.11,0,.12a.16.16,0,0,1-.2,0s-.05-.11,0-.11A.16.16,0,0,1,30.27,41.31Zm-4.37-1c0,.06-.07.08-.18.06l-.48-.33a.33.33,0,0,1,0-.13c0-.06.07-.08.18-.06l.48.33A.33.33,0,0,1,25.9,40.36Zm1.23-.66.12.08a.21.21,0,0,1,0,.12c0,.07-.06.09-.17.07s-.08-.06-.12-.08-.17-.11-.16-.21S27,39.6,27.13,39.7Zm.58-.31a.71.71,0,0,1-.14,0,2.72,2.72,0,0,1-.82-.56s0-.08-.08-.24C27.16,38.9,27.52,39,27.71,39.39ZM26,38.21c.12-.06.4.12.41.27a.06.06,0,0,1,0,.07c-.12.06-.4-.12-.42-.27S26,38.23,26,38.21Zm-.7.41a.43.43,0,0,1-.49-.34A.42.42,0,0,1,25.32,38.62Zm-1.36,0c0-.06.09-.11.18,0,.34.21.66.44,1,.66.16.11,0,0,0,.12s-.08.11-.18.05-.41-.27-.61-.41L24,38.7C23.84,38.58,24,38.74,24,38.57Zm5.24,4.76.49.33c.06.3.06.31-.22.38L29,43.67C28.9,43.42,28.92,43.4,29.2,43.33ZM9.39,194.93a.06.06,0,0,1,0,.06h0a.1.1,0,0,1-.06,0ZM34,500.87V489.53l-11.34-8.22v11.34ZM23.76,486.12c0-.4,0-.4.35-.47l.31.21c0,.41,0,.41-.35.48Zm1.72,1.58c-.08-.12-.07-.2,0-.23s.15,0,.16,0,.07.21,0,.23S25.48,487.72,25.48,487.7ZM25.37,489s0-.07.05-.09.5.17.52.37c0,0,0,.05-.05.08C25.73,489.4,25.38,489.17,25.37,489Zm2.26,1.73-.95-.68c-.08-.39-.08-.39.32-.49l.16.49.45-.06c.34.25.66.45.94.69.11.09.09.21,0,.23a.22.22,0,0,1-.16,0c-.11-.06-.2-.15-.33-.24Zm.79-448c0-.06.06-.08.17-.06s0,.07,0,.11-.06.09-.17.07A.24.24,0,0,1,28.42,42.7ZM11.34,8.22,0,0V7.28c.1,0,.18.14.33.18H.51l.14.09s0,.06,0,.08-.09.18-.27.09-.14-.06-.19,0a.11.11,0,0,0,0,.18c.07,0,.14-.05.21,0s0,.08,0,.13,0,.13,0,.19l.23.16c0,.08.06.18.09.27s0,.05,0,.05h0L0,8.77l0,0v2.59l11.34,8.22,11.34,8.22V16.44ZM.29,5.57a.05.05,0,0,1,0,0c.07,0,.23.07.23.16s0,0,0,0S.29,5.66.29,5.57Zm1.2,1a.19.19,0,0,1,0-.07.07.07,0,0,1,0,0c.05-.07.12-.09.16,0a.08.08,0,0,1,0,.12s0,0,0,.06A.09.09,0,0,1,1.49,6.61Zm-.39.6c0,.14,0,.22-.16.22S1,7.21,1.1,7.21ZM1.34,8c-.1-.06-.18-.13-.27-.19s0-.06,0-.08l.17-.28a.73.73,0,0,1,.09-.08h.08l.44.31s0,.13,0,.2,0,.1,0,.11a.16.16,0,0,1-.14,0c-.07-.06-.14-.1-.21-.15s0-.07-.08,0,0,.13,0,.2S1.37,8.06,1.34,8Zm2,.05s0-.05.1,0,0,0,0,.07,0,.05-.1,0S3.39,8.11,3.38,8.09Zm-1.64.52s0-.06.1,0,0,0,0,.07,0,0-.1,0S1.74,8.63,1.74,8.61ZM17.68,24c-.05-.14,0-.22.15-.22S17.83,24,17.68,24ZM17,20.23l-.3,0c-.07-.06-.21-.09-.15-.21h.31C16.92,20.09,17.06,20.12,17,20.23Zm-7-6.29H10s-.06,0-.06-.1H10S10,13.88,10,13.94Zm-2.14-.27c.1.07.12.17,0,.24a.15.15,0,0,1-.14,0L7,13.4c-.06,0-.1-.06-.1-.12s0,0,.1,0h.23ZM6.57,11.24c0,.07,0,.16,0,.26l0,0s-.06,0-.07,0L5.75,11c-.08-.06-.12-.13-.09-.19a.45.45,0,0,1,.1-.09h.07ZM4.43,9.75s0,.05,0,.07a1,1,0,0,1-.08.11c-.2,0-.24,0-.28-.19a.25.25,0,0,1,0-.07L4,9.52H4.1A.86.86,0,0,1,4.43,9.75ZM3,9.05l.63.43s.09.07.09.13,0,0-.09.05l-.2,0-.59-.41a.14.14,0,0,1,0-.19A.13.13,0,0,1,3,9.05Zm.41,2.13H3.17l-.42-.3-.08-.23-.41-.29,0-.16a1.32,1.32,0,0,0-.47-.34.09.09,0,0,0-.12.06l.2.14s0,.1,0,.11-.09,0-.13,0A1.14,1.14,0,0,1,1.6,10a.08.08,0,0,1,0-.12l-.14-.1L1.36,10c-.2,0-.2,0-.28-.2l.12-.17a.13.13,0,0,0-.15,0c-.08,0-.1.14-.23.11l-.13-.1c0-.15,0-.15.16-.33,0,0,.06,0,.08,0s.23.16.35.24a.08.08,0,0,0,0-.13.59.59,0,0,1-.21-.33S1,9,1,9a.61.61,0,0,1,0-.11l.3,0,.43.3.07.21c.12.16.25.06.37.12.09.27.1.28.41.27l.27.19a.14.14,0,0,1,0,.19c0,.06-.13,0-.2.05s0,0,0,0,0,.06,0,.07l.55.4.4,0,.14.07c.22.14.42.29.61.42s.08.29.12.41c.23.2.23.27,0,.34Zm1.27,1.23a.13.13,0,0,1,0-.19.14.14,0,0,1,.15-.05,1.85,1.85,0,0,0,.27.19.07.07,0,0,0,.11,0s0-.06,0-.07L4.74,12c0-.05,0-.1,0-.14s.12-.11.24,0l.2.14h.23l.08.06c.11.07.06.19.15.27a.28.28,0,0,1,.14.18l-.16.23c-.12.05-.24-.15-.37-.08l-.08.1H5.09Zm2.55,1.78c-.16,0-.27-.2-.43-.26l-.09-.24-.7-.5H5.78c0-.09-.06-.18-.09-.29A2.21,2.21,0,0,1,6,12.44s.08,0,.1,0l.28.19.07.23.28.19c0,.09,0,.14,0,.2a.13.13,0,0,0,0,.13l1.11.79.09.31s0,0-.06,0c-.19-.06-.32-.23-.5-.29Zm7.07,4.36c0,.18,0,.18-.16.22l-.28-.2c0-.18,0-.18.16-.22Zm1.3-.53s-.08,0-.11,0l-.27-.18c0-.06,0-.1,0-.1l.31,0C15.54,17.83,15.57,17.93,15.59,18Zm-3.52-1.38.4.29a.15.15,0,0,1-.09.22.17.17,0,0,1-.15-.06c-.08-.06-.15-.06-.19,0s-.11.1-.19,0c-.28-.18-.56-.39-.83-.58,0-.07,0-.11,0-.16s-.32-.23-.44-.35l-.43,0-.6-.42c0-.1,0-.25,0-.38-.22-.06-.22.15-.37.1l-.42-.3a1.8,1.8,0,0,1-.08-.21H8.45a.25.25,0,0,1-.2-.13,3,3,0,0,1-.13-.49l.31,0,.28.2h.23l1.55,1.1.08.21c.3,0,.31,0,.4.27a6.8,6.8,0,0,0,.56.42l.08.2C11.76,16.67,11.89,16.6,12.07,16.64Zm10.61,408V413.28L34,421.5v11.34Zm0-45.35v11.34L34,398.83v11.34l-11.34-8.23V390.61l-11.34-8.22L0,374.16V362.83l11.34,8.22h0Zm0-68V299.9L34,308.12v11.34ZM8.9,736.83a.48.48,0,0,1,0-.15c0-.07.07-.11.22-.07a.34.34,0,0,1,0,.15C9.12,736.83,9,736.87,8.9,736.83Zm-1.05-1.2.36.27-.07,0-.46-.34A.48.48,0,0,0,7.85,735.63Zm14.83,29.14v11.34l-11.34-8.22L0,759.67V748.33l11.34,8.22h0Zm0,0V753.43L34,761.65V773Zm0-22.68V730.76L34,739v4.56l-1-.75a.14.14,0,0,1,0-.09s0,0,.08,0c.21.07.37.28.57.36,0,0,.09,0,.1,0s0,0-.05-.1-.44-.34-.67-.53l-.18-.3-.44-.34-.32-.07-.19-.39c.05,0,.12,0,.16,0,.31.22.6.45.85.64l.49.12-.21-.42-1.59-1.2-.31-.08-.9-.68c-.06-.09-.11-.19-.16-.28l-.34-.08-1.56-1.19-.24-.05-.11,0-1-.77a.72.72,0,0,0-.22-.08c0,.06-.12.08,0,.27l2,1.5s.05.11.08.16a1.7,1.7,0,0,0-.22,0,.1.1,0,0,0-.12.13.45.45,0,0,0,.16.19l3.63,2.75-.12.16.13.27-.27,0c0,.11.1.22.09.28a.21.21,0,0,0,0,.25l1.11.85a.14.14,0,0,1,0,.09s-.08,0-.16,0-.3-.22-.4-.3a1.9,1.9,0,0,1-.38-.12.8.8,0,0,0-.34-.16l-.08.1.21.4.22.18.33.08.21.17c.06.09.11.19.16.28l1,.72v4.89Zm0-578.25h0l-11.34-8.22L0,147.4V136.06l11.34,8.22h0l11.34,8.22v11.34Zm0,11.34h0v11.34L34,194.74v11.34l-11.34-8.22V186.52L11.34,178.3,0,170.07V158.74L11.34,167l11.34,8.22ZM11.34,98.93h0L0,90.71V102l11.34,8.23,11.34,8.22V107.15Zm-1.43,4.58a.62.62,0,0,0,0,.13.24.24,0,0,1-.14,0l-.14-.1c0-.09,0-.1.09-.12l.08,0ZM7.16,101.3a0,0,0,0,1,0,0v0s0,0,0,0Zm-.52-.45s0,.06,0,.09-.11,0-.15-.07,0-.06,0-.09S6.63,100.78,6.64,100.85ZM5.2,101V101L5,100.8s0-.07,0-.11a.07.07,0,0,1,0,0l.38.27.09,0,.09.07.09,0,.28.2c0,.07,0,.11-.08.17l-.14,0-.08,0v-.09l-.09,0-.13-.1-.1,0Zm-.5.78.13,0,0,0V102a.23.23,0,0,1-.14,0C4.67,102,4.71,101.88,4.7,101.82Zm.57.55-.11-.08a.5.5,0,0,1,.11-.16h0l.23.17v.09l0,0v0s0,0,0,0a1.33,1.33,0,0,1-.19-.14Zm-.65-1v-.09a.17.17,0,0,1,0-.1.06.06,0,0,1,.08,0l.11.08a.12.12,0,0,0,.07,0c0-.06,0-.06.1,0l0,0a.43.43,0,0,1,0,0,.1.1,0,0,0,0,.08s0,0,0,.06l0,0a.08.08,0,0,0,0,.06l.07,0s0,0,.06,0,0-.12.08-.16l.2.14.13-.15s0,0,0,0l.19.13a1,1,0,0,0,0,.17s.11,0,.18,0,0,.2,0,.29l.1.07s0,0,0,.07a.16.16,0,0,1,0,.14.15.15,0,0,1,.06.13s0,0,0,0,0,.09-.06.14Zm1.11,1.34v-.12l0,0s0,0,0,0l.14.09c0,.09,0,.09-.09.13Zm1.64,1.44-.06,0a1,1,0,0,1,0-.18l-.11-.08v-.09l-.09,0v-.07s0-.06-.06,0-.1,0-.15,0l0,0s0,.06,0,.09,0,0-.08,0,.11-.16.13-.24,0,0,0,0l-.32-.24-.09,0-.1-.06v-.08c0-.06-.11,0-.1-.13s.06,0,.08,0a.18.18,0,0,0,.1,0l.23.16s0,0,0,0,0,0,0,0L6.62,103c0-.06.06-.11,0-.17l0,0c0-.11,0-.13.11-.1h.06l.21-.3v-.1l.22-.06,0,0s0,0,0,0v0a.1.1,0,0,0,0,0v0c0-.08.07-.1.12-.07l.06,0,.07,0s0,0,0,0l.28.19c0,.08,0,.11.05.15v.16s0,0,0,.13a.08.08,0,0,0,0,0s0,0,0,0l0,0v.1l.05,0,.13,0,.16-.24.1,0,.25-.36a.07.07,0,0,1,.08,0l.1,0,0,0v.1l.24.16v.1l.28.2v.1l0,0c.12,0,.12,0,.13.09s.11,0,.1.13-.06.08-.13,0l-.13,0-.06.07c0,.07-.07.07-.1.05L9,103.21H9s0,0,0,0l.42.31s0,0,0,0l0,.06s-.05,0-.06,0L9,103.51s0,0-.06,0,0,0,0,0,0,0,0,.09l0,0h0l-.1-.06-.05,0c0,.08.09.09.14.14v.09s.06,0,0,.07-.05,0-.08,0H8.84l-.13-.09a.06.06,0,0,0-.06,0s-.06.06-.08,0l-.12-.08a.29.29,0,0,0-.12-.07l-.16.05-.09-.07-.1,0-.05,0v-.09l0,0-.09,0s-.07-.08-.13,0v.09l-.18.06v0l.29.2.08,0,.1.07a.1.1,0,0,1,0,.09s0,0-.06,0l-.14-.09-.07,0-.12-.06Zm.25.19a0,0,0,0,1,0-.08l.08,0,.12.08s0,0,0,0,0,0,0,0a.19.19,0,0,0-.09,0A.47.47,0,0,0,7.62,104.33Zm.32.23a.13.13,0,0,1-.07-.1l.12,0s.07,0,.07.08S8,104.59,7.94,104.56Zm.17.12c0-.08,0-.08.09-.12l.05,0c0,.09,0,.09-.09.12Zm2,1.45V106s0,0,0-.05,0,0,0,0a.18.18,0,0,1,.07,0c0,.08,0,.08-.08.12Zm12.54,114.4V209.19L34,217.42v11.33ZM8.49,735.77h0l-.33-.07c-.1-.09-.24-.16-.27-.28l.27,0a.12.12,0,0,0,0-.08,4.23,4.23,0,0,0-.41-.33l.14,0,.62.44C8.51,735.62,8.52,735.71,8.49,735.77Zm2.85-115.28h0L0,612.27v8.13l.17.18s0,0,0,.08l-.1.14H0v2.8l8.92,6.47a.09.09,0,0,0,0-.06l-.32-.25a.86.86,0,0,1,0-.17c-.05-.17-.32-.11-.29-.36l.31-.1a3.39,3.39,0,0,0,.28.2s.07,0,.11,0a.76.76,0,0,1,0-.15.29.29,0,0,1,.14-.19.09.09,0,0,1,.12,0l.86.63c-.19.32-.41.55-.55.77s-.17,0-.22,0l-.1-.07h0l2.13,1.54,11.34,8.22V628.71ZM8,629.17s0,0,0,0a.09.09,0,0,1,0,.12l-.07,0s0,0,0,0-.06-.12,0-.15A.07.07,0,0,1,8,629.17Zm2.12-1.29c0,.2,0,.2-.22.28l-.09-.07c0-.19,0-.19.22-.28Zm-3-2.44.1.08c0,.09,0,.18,0,.31s-.06,0-.09,0a5.92,5.92,0,0,1-.48-.35s0-.09,0-.12l.08,0,.19.14Zm-2.08-1.53-.83-.61a.08.08,0,0,1,0,0c0-.09.06-.15.11-.21l.29-.1.1.06v.22l.39.29.21-.06c0,.1,0,.2,0,.3l-.1.14S5.08,623.93,5.05,623.91Zm-1.21.86c0-.1.05-.17.1-.24s0-.14,0-.23l.29-.07c.38.22.37.22.4.36l-.06,0-.14,0-.21.27s-.1,0-.12,0A3.15,3.15,0,0,1,3.84,624.77Zm1.69.27.11-.14a.32.32,0,0,1,.13,0c.15.1.29.21.43.32s0,0,0,0-.07.15-.11.22l-.07,0a1.62,1.62,0,0,1-.52-.38S5.53,625.06,5.53,625Zm-1.64.65,0-.33.29-.09.11.06.15-.05c.11,0,.17.1.22.14s-.06.17-.1.24-.17-.1-.3,0l0,.21C4.08,625.92,4,625.75,3.89,625.69Zm3.54.85s-.06,0,0-.11.05,0,.11-.07l.2-.06.29.22c0,.14,0,.14-.15.25s-.06,0-.07,0Zm1.44.73.28-.1a.38.38,0,0,1,.22.17c0,.09-.07.15-.11.21l-.08,0a.64.64,0,0,1-.32-.24S8.87,627.29,8.87,627.27Zm-.61.1.09.07.21-.07.19.14a.26.26,0,0,1-.14.26,2.24,2.24,0,0,1-.26.1l-.3-.22C8.08,627.46,8.08,627.46,8.26,627.37Zm-1.73.44c0-.09.06-.14.1-.21a.15.15,0,0,1,.18,0c.06,0,.15.08.12.2l-.11.14C6.65,628,6.61,627.89,6.53,627.81Zm.79.29c.06-.07.1-.2.21-.15l0,.29C7.34,628.27,7.34,628.27,7.32,628.1Zm2.59.7-.19-.14a.22.22,0,0,1,.08-.21s.11-.08.13-.07l.48.35s0,.09,0,.12l-.07,0-.19-.14Zm2.38.91c0-.13-.23-.09-.19-.28l.3-.1v.2c0,.1.23.06.18.26l-.11.14C12.29,630,12.28,630,12.29,629.71Zm1-.64.47.34a1.28,1.28,0,0,0,0,.18s0,0,0,0c.18.13.35.27.54.4,0,.06,0,.13,0,.21l.08.08.21-.06v.21l1.29.95,0,.13-.49.63s0,0-.06,0,0,0-.07,0l-.38-.28v-.23l-.87-.63c0-.08,0-.14,0-.21l-.08,0c-.14,0-.22,0-.2-.07s-.07-.2-.09-.3,0,0,0-.06l.14,0,0,0s0-.07,0-.08l-.71-.52c0-.12,0-.28.06-.39-.15-.14-.15-.14,0-.32A.13.13,0,0,1,13.25,629.07Zm-1.14.14-.1.14s-.11,0-.13,0l-.56-.41c0-.11,0-.17.11-.26l.32-.07c.12,0,.23.19.37.26A3,3,0,0,1,12.11,629.21ZM22.68,742.09l-11.34-8.22h0L0,725.65v3.69l0,0,.35.1c.44.32.89.67,1.34,1l.34.08.21.16.17.3.44.34c.07.14.19.12.06.1l-.3,0-.08.1c.18.28.19.28.61.37.34.26.7.55,1.08.82-.06-.21-.12-.42-.19-.63.08,0,.19-.07.25,0s.41.29.6.43a.32.32,0,0,1,0,.38l.72.54.16.29.58.44a3.7,3.7,0,0,1,.24-.29c.26,0,0-.15.2,0L9,735.43l.16.47c.5.37,1,.73,1.53,1.12.11.08.09.21,0,.24a.42.42,0,0,1-.16,0l-.32-.23h0l.58.44c0,.06,0,.13,0,.17s-.15.08-.23,0l-.82-.62H9.5c0,.16.07.28.23.38s.19.18.16.28-.22,0-.29,0c-.42-.28-.83-.59-1.24-.89l-.88-.63c-.22-.66-.25-.68-.93-.69a2.46,2.46,0,0,1-.08-.27H6.4c-.6-.46-1.21-.91-1.81-1.38-.06-.09-.11-.19-.16-.28L4,733.21c-.23-.11-.15.17-.4,0l-.11-.2a2.63,2.63,0,0,0-.45-.39,1.66,1.66,0,0,0-.16-.25,1.66,1.66,0,0,0-.19-.18,4.5,4.5,0,0,0-.66-.16l-.87-.66H1a.45.45,0,0,1-.14-.27l-.11-.21-.22-.17-.33-.08L0,730.54V737l11.34,8.22,11.34,8.22ZM6,731.48s0-.06,0-.09,0,0,.13,0a.15.15,0,0,1,0,.09S6.09,731.52,6,731.48Zm-1.49,2.91a1.29,1.29,0,0,1,.3.22s0,.1.05.15,0,.07-.07.08c-.19,0-.53-.21-.51-.38s0-.07.07-.07A.18.18,0,0,1,4.51,734.39ZM.12,731.93a.39.39,0,0,1,0-.14s0-.1,0-.1a.15.15,0,0,1,.23.09c0,.11,0,.2,0,.24S.16,732,.12,731.93Zm4.53,5.26L1.72,735l-.05-.09-.61-.44c0-.06,0-.12-.05-.17l-.68-.52c-.22-.17-.24-.29-.07-.33s.07,0,.1,0l.53.4c-.09-.32-.18-.64-.25-1s-.29-.36-.42-.55-.06-.22,0-.28l.77.56c.06.16.11.32.16.49s.21.14.29.21,0,.3-.06.43a.32.32,0,0,0,.08.29c.29.24.6.45.87.65a.34.34,0,0,0,.33-.08c.25-.22.27-.22.55,0l.4.28c.11.19.1.29,0,.36a.19.19,0,0,0-.05.27q.06.13.27.09h.21c0,.14.11.28.18.46l.59.43c.07.21.14.42.2.64a.09.09,0,0,1,0,.09s-.13,0-.16,0l0,0A.23.23,0,0,1,4.65,737.19Zm11.46,4.15.61.44c.08.14.08.22,0,.24a.18.18,0,0,1-.16,0c-.21-.14-.41-.29-.61-.44a.43.43,0,0,1,0-.16C15.89,741.34,16,741.31,16.11,741.34Zm-2.73-.14c.27.16.52.36.78.55l.46.33c.2.15,0-.06,0,.16s-.12.14-.23.06c-.42-.28-.83-.59-1.23-.88-.21-.16,0,.05,0-.17S13.26,741.12,13.38,741.2Zm-6.69-2.74a.41.41,0,0,1,0-.15.2.2,0,0,1,.26.07s.06.14,0,.15A.2.2,0,0,1,6.69,738.46Zm5.56,1.41c0-.08.09-.1.23-.07l.61.45a.49.49,0,0,1,.05.16q0,.12-.24.06l-.6-.44A.49.49,0,0,1,12.25,739.87Zm-1.61.79a.85.85,0,0,1-.14-.11.25.25,0,0,1-.05-.16c0-.08.08-.11.23-.07a.72.72,0,0,1,.15.11.26.26,0,0,1,.19.27C11,740.82,10.84,740.8,10.64,740.66Zm4,.13-.31-.07-.16-.29c-.31-.21-.32-.22-.39-.14a.11.11,0,0,1-.15,0,.65.65,0,0,1-.36-.33l.08-.1a.64.64,0,0,0-.13-.19l-1-.77a.71.71,0,0,1-.12-.18l.44.09,2,1.54.15.27C14.81,740.82,14.81,740.82,14.65,740.79ZM9.89,741a.38.38,0,0,1,.18,0,3.64,3.64,0,0,1,1,.75,1.89,1.89,0,0,1,.09.31C10.58,741.69,10.12,741.49,9.89,741Zm3.65,1.54a.54.54,0,0,1-.62-.45A.54.54,0,0,1,13.54,742.58Zm-2-.33a.09.09,0,0,1,0-.08c.16-.08.5.17.52.36s0,.06-.05.09C11.85,742.69,11.51,742.45,11.49,742.25Zm9.84,1c-.11-.38-.23-.75-.34-1.13a2,2,0,0,0,.17-.23.92.92,0,0,1,.16,0,1.79,1.79,0,0,1,.73.51.69.69,0,0,1,.05.17c-.16.23-.32.47-.5.68C21.56,743.31,21.42,743.27,21.33,743.27Zm1,.71a.2.2,0,0,1-.15-.22s.1,0,.16,0,.14.1.14.23Zm-1.17,1.29c0-.08.07-.11.22-.08a.59.59,0,0,1,0,.15c0,.08-.08.11-.22.08A.39.39,0,0,1,21.19,745.27ZM34,659.61V648.27l-11.34-8.22v11.34ZM24.83,645.7c-.07-.13-.07-.21,0-.23a.31.31,0,0,1,.16,0c.07.13.06.21,0,.23A.48.48,0,0,1,24.83,645.7Zm1.26.42-.08-.06c-.09-.11,0-.23.14-.18a.18.18,0,0,1,.07,0C26.32,646,26.23,646.17,26.09,646.12Zm2.39,1.13c-.07-.12-.08-.21,0-.24a.47.47,0,0,1,.17,0c.2.15.4.3.61.44s.08.22,0,.25h-.16ZM33,650.87s0-.1,0-.15.08-.11.22-.08,0,.1,0,.15S33.11,650.9,33,650.87ZM22.68,674.06h0V685.4L34,693.62V705l-11.34-8.22V685.4l-11.34-8.22L0,669V657.62l11.34,8.22,11.34,8.22Zm4.78-429s0,0,.07,0,0,0,0,.05,0,0-.07,0S27.46,245.07,27.46,245.06ZM22.78,664.58l.35.25c0,.4,0,.41-.36.48l-.09-.07v8.82h0L34,682.29V671l-11.34-8.22v1.86Zm10.47,8.81s0,.06,0,.09c-.16.06-.5-.18-.52-.37a.09.09,0,0,1,0-.09C32.88,673,33.23,673.19,33.25,673.39Zm-2.55-1.73a.31.31,0,0,1-.16,0c-.07-.13-.07-.21,0-.23a.43.43,0,0,1,.16,0C30.78,671.56,30.78,671.64,30.7,671.66Zm-5.14-4.39a.47.47,0,0,1,0-.15.21.21,0,0,1,.26.06c0,.06.06.15,0,.15S25.61,667.35,25.56,667.27Zm1.22,1a31.16,31.16,0,0,1,2.88,2.1s0,.11.05.16l-.17.24c-.11,0-.25,0-.33-.06l-1.48-1.07a1,1,0,0,0-.07-.22c-.14-.38-.19-.41-.63-.46s-.45-.07-.6-.47l.18-.22C26.67,668.26,26.74,668.23,26.78,668.26Zm.38-.72c-.12,0-.19,0-.23,0a3.21,3.21,0,0,1-.46-.29c-.35-.25-.36-.29-.12-.63a.54.54,0,0,1,.57.3A4.67,4.67,0,0,1,27.16,667.54Zm.42-.87a.44.44,0,0,1,.05.15c-.13,0-.22,0-.26-.07a.32.32,0,0,1-.05-.15A.2.2,0,0,1,27.58,666.67Zm-4.9-423.46h0L34,251.43V240.09l-11.34-8.22v11.34Zm2.24.17s0-.07,0-.08,0,0,.05,0l.2.15s0,0,0,.05,0,0-.07,0Zm1.12.2-.26-.19-.15-.11c-.07-.05,0,0,0-.05s0,0,.08,0l.41.29c.07.05,0,0,0,.06S26.08,243.6,26,243.58Zm2.82,2.9c0-.08,0-.14.07-.16s.1.05.15.07l.07.22a.15.15,0,0,1-.09,0Zm1.05.5c0-.07,0-.09,0-.14h.23c.07.06,0,.14.09.21l-.07.09C30.07,247.16,30,247.05,29.91,247Zm1,.62-.35-.26c-.07,0-.1-.11-.07-.12s.07,0,.11,0,.13.05.13,0a.1.1,0,0,0-.07-.1.09.09,0,0,1-.07-.09s.07,0,.14,0l.35.26a.13.13,0,0,1,0,.16l.13.31C31,247.8,31,247.8,30.91,247.6Zm.66-.25.31.22.21.15s0,0,0,.05,0,0-.07,0-.35-.25-.52-.38c0,0,0,0,0,0S31.53,247.33,31.57,247.35Zm1.58,1.87H33S33.08,249.17,33.15,249.22Zm-.57-.13a.15.15,0,0,1,0,.09s-.08,0-.1,0l-1.11-.8a.1.1,0,0,1,0,0c0-.09.05-.11.08-.17a.09.09,0,0,1-.07-.09.09.09,0,0,1,.07-.1.09.09,0,0,1,.11,0l.09-.11c0-.09-.11-.12-.14-.19s0,0,0-.05h.05L32,248l0,.06.06.21c-.07.05-.07.16-.19.15l-.06-.16-.36-.26-.11.16.25.19s0,.1.05.15h.16a3.52,3.52,0,0,0,.45.3.05.05,0,0,0,.08,0l-.25-.18a.12.12,0,0,1,0-.14l.08-.1a.19.19,0,0,1,.2.1c0,.06,0,.09,0,.12s.08.15,0,.2l.17.12C32.54,249,32.57,249,32.58,249.09Zm1.13-.56-.13.15a3.71,3.71,0,0,0-.41-.28c-.11,0-.1.08-.15.12a2.15,2.15,0,0,1,.24.18s0,.06,0,.08h0a.6.6,0,0,1-.23-.18s0-.07,0-.09l-.21-.15s0,0,0,0a.12.12,0,0,1-.08,0s0,0,0,0a.12.12,0,0,1,.08,0s.05,0,.05,0,0,0,0,0H33c0-.06-.06-.09-.1-.14a.6.6,0,0,1-.08-.16,4.13,4.13,0,0,0-.42-.31h-.13a1.4,1.4,0,0,1-.34-.26c0-.08.05-.11.07-.17ZM32,247.16a.3.3,0,0,1,0,.1,0,0,0,0,1,0,0c-.06,0,0,0-.05,0l-.16,0s0-.08,0-.1S31.91,247.08,32,247.16Zm-.78-.2.06.21s0,0,0,0,0,0-.05,0l-.43-.31c0-.12,0-.15.12-.16Zm-.75-.29a.08.08,0,0,1,0,0v0s-.07,0-.08,0,0-.07,0-.09Zm-.31-.84c.05.16.1.34.14.52s.1.13.14.19,0,.07,0,.09l-.26-.18a1.09,1.09,0,0,1-.05-.17l-.1-.07c0-.06,0-.1,0-.14a.12.12,0,0,0,0-.1l-.3-.22a.12.12,0,0,0-.11,0c-.08.08-.09.07-.18,0l-.13-.1c0-.06,0-.09,0-.12a.06.06,0,0,0,0-.09s0,0-.09,0,0,0-.07,0l-.06-.15-.2-.14-.06-.21a0,0,0,0,1,0,0h.06Zm-1.36.34a.58.58,0,0,1-.08-.23h.05a.59.59,0,0,1,.24.17.09.09,0,0,1,0,0Zm.26-.32H29a.39.39,0,0,1-.1-.08s0,0,0-.05l0,0c.07,0,.18.07.17.12S29.06,245.84,29.05,245.85Zm-1.75-1.11.41.3.3.21c.07.22.08.23.31.23l.05.15.19.14s0,.06,0,.09-.15,0-.19.06-.06.07-.08.11,0,.05-.07,0l-.73-.53a1.42,1.42,0,0,0-.05-.16L27,245s0-.07,0-.08H27l.11.08h.22c0-.06,0-.1-.07-.13s-.07-.06-.05-.09S27.28,244.72,27.3,244.74Zm1-.25s0,0,0,0-.07,0-.08,0l0,0S28.26,244.46,28.27,244.49ZM26.42,244s0,0-.08,0l-.21-.15a.43.43,0,0,1,0,0s0,0,.08,0l.2.14A.14.14,0,0,1,26.42,244Zm.53-.27.05,0,0,.05s0,0-.08,0l-.05,0a.11.11,0,0,1-.07-.09S26.89,243.71,27,243.75Zm.25-.12h-.06a1.2,1.2,0,0,1-.34-.25s0,0,0-.1C27,243.41,27.13,243.48,27.2,243.63Zm-.53-.41s0,0,0,0-.17-.05-.17-.12l0,0C26.55,243.08,26.66,243.16,26.67,243.22Zm-.48.05a.2.2,0,0,1-.21-.16A.18.18,0,0,1,26.19,243.27ZM22.68,725.46v.29l-.16-.32A.45.45,0,0,1,22.68,725.46Zm0-497.89c-.1,0-.17,0-.18-.09s-.1-.14-.15-.21,0,0,0,0h.1a0,0,0,0,0,0,0s0,0,0,0l-.71-.49c0-.08,0-.18-.06-.25s-.15-.12-.08-.22a.1.1,0,0,1,.09,0l.47.32,0,.12,0,0,.46.32v-6.47l-11.34-8.22h0L0,204.09v11.34l11.34,8.22,11.34,8.22v-4.3ZM11.83,220a1.21,1.21,0,0,0-.05-.14s0-.06,0-.07.07,0,.1,0a.71.71,0,0,0,.14.1c0,.12,0,.12-.09.15Zm.35.13s0-.06,0-.07h.2c0,.07.05.13.07.2s-.06,0-.07,0Zm1.49.93-.83-.58s0,0,0,0,0-.08,0-.12h.21l.11.06.05.15.39.26h.15c0,.07.05.13.07.2l-.05.07A.17.17,0,0,1,13.67,221.09Zm-.5.52-.26-.18c-.05-.08,0-.11,0-.15s0-.09,0-.15h.22c.36.22.35.22.42.33h-.15l-.1.14Zm0,.44c0-.06,0-.12,0-.21h.21l.11.06h.11a.67.67,0,0,1,.22.13c.05.09,0,.11,0,.14s-.17-.1-.25,0l0,.13C13.4,222.24,13.31,222.12,13.18,222.05Zm1.71.3a2.68,2.68,0,0,1-.52-.36s0,0,0-.05l.05-.07a.15.15,0,0,1,.1,0l.44.3,0,0c0,.07,0,.09,0,.13S14.91,222.36,14.89,222.35Zm1,.46-.48-.33s0-.06,0-.07h.05l.19.14h.16l.1.07s0,.12.06.2S15.88,222.83,15.85,222.81Zm.78.76-.34-.23s-.07-.05-.06-.09,0,0,.07,0h.14l.3.2c0,.09,0,.09-.06.14S16.64,223.58,16.63,223.57Zm3.71,2c.11.06.24.18.37.25l.07.22,0,.07h-.1l-.56-.39c0-.08,0-.1,0-.15Zm-2.27-1.34c0,.06,0,.08,0,.12H18a1,1,0,0,1-.32-.22s0,0,0,0h.21A.69.69,0,0,1,18.07,224.26ZM15.88,224c0-.07,0-.09,0-.12s.1,0,.15,0,.13.08.14.16l0,.07C16,224.18,16,224.07,15.88,224Zm1.29,0,.1.07h.15l.19.13c0,.07,0,.13-.05.15h-.18l-.31-.21C17.05,224.08,17.05,224.08,17.17,224.05Zm-.57.31s0-.11.13-.06l.06.2C16.66,224.48,16.66,224.48,16.6,224.36Zm2,.5c0-.12,0-.12.1-.15l.1.07c0,.12,0,.12-.11.15Zm.14.21.48.33s0,.07,0,.08h-.06l-.19-.13h-.15l-.19-.13a.09.09,0,0,1,0-.13S18.77,225.06,18.79,225.07Zm-1.39.23c-.06-.05-.08-.1,0-.11a.1.1,0,0,1,.1,0l.05,0s0,.07,0,.08h-.05Zm1.42,1-.09-.07h-.16l-.09-.07,0-.1a.27.27,0,0,0-.07-.08l-.33-.22,0-.12c-.08-.12-.28-.14-.32-.3h.22l.28.2s.05,0,.08,0a.38.38,0,0,1,0-.1.09.09,0,0,1,.06-.1.12.12,0,0,1,.1,0l.87.6c-.08.18-.19.29-.25.41A.22.22,0,0,1,18.82,226.28Zm2.24.16c-.06-.09-.21-.11-.23-.23h.22l.06.14c.05.07.2.09.21.21l-.05.07C21.12,226.6,21.12,226.6,21.06,226.44Zm6.73,18.89.2.15c0,.14,0,.14-.11.17l-.2-.15C27.65,245.36,27.65,245.36,27.79,245.33ZM22.68,727.58v-.76a.61.61,0,0,1-.05-.12h.05v-.57l-3.42-2.59a.36.36,0,0,1-.16-.19c0-.07,0-.14.13-.13l.21,0a.48.48,0,0,0-.08-.16l-2-1.5c-.14-.18,0-.2,0-.26a.71.71,0,0,1,.22.07l1,.77.11,0,.24,0,1.56,1.19.34.09c0,.09.11.18.16.28l.9.68.31.07.46.35v-5.53L11.34,711.2,0,703v11.34l11.34,8.22,11.34,8.23V727.9l-.12-.22.09-.11Zm-15.85-9-.3-.22c-.25-.2-.27-.23-.15-.38.23,0,.47.09.73.16a.59.59,0,0,1,.21.14,1.13,1.13,0,0,1,.12.18l-.16.21Zm4.89.12c-.07-.23-.05-.25.16-.22l.3,0c.06.22.07.22-.14.37S11.82,718.75,11.72,718.68Zm11-21.94v11.34L34,716.3v11.34l-11.34-8.22V708.08l-11.34-8.22L0,691.64V680.3l11.34,8.22h0ZM11.34,643.17,1.8,636.25h0c-.16.22-.32.46-.51.68,0,0-.17,0-.27,0l-.33-1.12.17-.24h0L0,634.94v11.34l11.34,8.22,11.34,8.23V651.39l-11.34-8.22Zm-9.29-5.51a.21.21,0,0,1-.14-.23s.1,0,.15,0a.21.21,0,0,1,.15.23S2.11,637.66,2.05,637.66Zm2.41,1a.09.09,0,0,1,0-.09c.16-.07.5.17.52.37,0,0,0,.06,0,.09S4.48,638.81,4.46,638.62Zm-3.53.47s0-.1,0-.15.07-.11.21-.08,0,.1,0,.15S1.07,639.12.93,639.09Zm4.9,1.73c-.41-.29-.82-.58-1.22-.88a.28.28,0,0,1-.05-.16.1.1,0,0,1,.06-.08,1.17,1.17,0,0,0,.33,0c.09,0,.12-.13.21-.17a1.24,1.24,0,0,1,.29-.06l.61.45a2.57,2.57,0,0,1,.17.63c0,.13-.13.22-.2.31S5.87,640.85,5.83,640.82Zm.43,1.41a.34.34,0,0,1,0-.15c0-.08.08-.11.22-.08a.75.75,0,0,1,0,.15C6.48,642.23,6.41,642.26,6.26,642.23Zm-.7.1a.08.08,0,0,1,.07-.07.22.22,0,0,1,.16,0,2.1,2.1,0,0,1,.3.22s0,.1,0,.15,0,.07-.07.08C5.88,642.76,5.54,642.5,5.56,642.33ZM7.43,642s0-.1-.06-.15.06-.11.21-.1.33,0,.45,0c.56.41,1.07.77,1.57,1.15a.26.26,0,0,1,.07.15c0,.09-.06.11-.21.1s-.33,0-.46,0Zm-.37,2.91c0-.19.24-.07.37-.1a.43.43,0,0,1,.16,0h.16c0,.38,0,.38-.35.47C7.27,645.14,7,645.07,7.06,644.89Zm14.31,5.75.31.23.14.11c.1.19,0,.31-.1.44l.16.61c.14.24.39.33.57.49a.29.29,0,0,1,.08.42l-.13.18a3.57,3.57,0,0,1-.91-.57,2.63,2.63,0,0,1-.29-.29l.15-.39c-.05-.19-.12-.41-.19-.64h-.49c0-.06-.06-.13,0-.16a3.6,3.6,0,0,1,.29-.5C21,650.47,21.19,650.5,21.37,650.64Zm-5.94-.6a1.17,1.17,0,0,1,0,.15c-.12,0-.22,0-.26-.06s-.06-.15,0-.15A.21.21,0,0,1,15.43,650Zm2.29-.53a1.17,1.17,0,0,1,0,.15.21.21,0,0,1-.26-.06c0-.05-.06-.15,0-.15A.21.21,0,0,1,17.72,649.51Zm-3.58-3a.72.72,0,0,1,.15.11.28.28,0,0,1,.2.27c0,.12-.19.1-.39,0a.85.85,0,0,1-.14-.11.25.25,0,0,1-.05-.16C13.91,646.48,14,646.45,14.14,646.49Zm-2.85.3a.55.55,0,0,1-.63-.45A.56.56,0,0,1,11.29,646.79Zm-1.14-.52a.89.89,0,0,1-.37.56s-.14,0-.15,0-.11-.21-.08-.26A5.34,5.34,0,0,1,10,646,.26.26,0,0,1,10.15,646.27Zm-.15-.51c0,.11,0,.19-.05.24s-.1,0-.14-.1a.29.29,0,0,1-.05-.13s0-.1,0-.11S10,645.66,10,645.76ZM9.52,645c0,.42,0,.47-.35.49l-.45,0-.35-.25c-.1-.32,0-.48.35-.48L9,645Zm1.36-1.19a.72.72,0,0,1,.15.11c.14.06.21.15.2.27s-.19.1-.38,0a.53.53,0,0,1-.15-.11.3.3,0,0,1,0-.16C10.66,643.75,10.74,643.73,10.88,643.76Zm11.8-76.85-.26-.08-.45-.34-.32-.11-.12-.09c-.17-.14-.18-.17-.14-.23s.11,0,.24,0l.22.15.11,0c0-.14-.35-.3-.36-.43l.08-.08.11,0c.25.18.45.28.53.16s.13,0,.21.11a.39.39,0,0,1,.15.13v-.31l-.75-.57c-.08-.06-.09-.12,0-.12a.21.21,0,0,1,.1,0l.5.37.19,0v-.33l-.22-.16-.22-.37.44.12v-.14c-.1-.08-.2-.16-.18-.22l.18.06v-.55l-.06-.08.06,0v-.49a.37.37,0,0,1-.17-.08l-.12-.08a.28.28,0,0,1-.07-.09L22.2,563l-.89-.68-.18-.28-.22-.17-.32-.1-1-.78c-.17-.13-.23-.24-.13-.28a.31.31,0,0,1,.18,0l1.13.85.31.11.69.52.12.21c.25.22.53.43.81.64v-2.43l-11.34-8.22L0,544.24v11.34l11.34,8.22L22.68,572Zm-2.79-4.38,1.8,1.37s0,.08.06.12l-.42-.12-1.42-1.08-.16-.31,0,0A.3.3,0,0,1,19.89,562.53Zm.95,1.41-1.12-.85c-.08-.06-.07-.11-.1-.11l.47.11.7.54L21,564A.38.38,0,0,1,20.84,563.94Zm-.61,0-.09,0a.21.21,0,0,1-.12-.14l.09,0A.21.21,0,0,1,20.23,564Zm-1.65-1.31c.11.13,0,.12,0,.17l-.11,0a2.54,2.54,0,0,1-.51-.39c-.11-.14,0-.13,0-.21A3.31,3.31,0,0,1,18.58,562.67Zm-.62-.85a.63.63,0,0,0,.12-.11s.05-.05.14,0a.26.26,0,0,1,.13.14.41.41,0,0,0,0,.09c.15.18.48.31.55.51l-.42-.13C18.32,562.16,18.06,562,18,561.82Zm1.7,0,.1,0,.32.24s0,0,0,0a.82.82,0,0,1,.4.23c.06.07.07.16,0,.17a.37.37,0,0,1-.16,0,6.46,6.46,0,0,1-.7-.53.25.25,0,0,1,0-.08S19.64,561.82,19.66,561.83Zm-.84-.26a1.84,1.84,0,0,1,.22.17c.07.07.08.12,0,.11s-.23-.09-.27-.05a.2.2,0,0,1-.22,0c-.07-.06-.16-.11-.22-.17s-.08-.13,0-.12.23.09.27.06S18.7,561.52,18.82,561.57Zm3.1-.09a.75.75,0,0,1-.46-.35A.69.69,0,0,1,21.92,561.48Zm-1.45-.76.44.34c.09.21.09.21-.15.16l-.45-.34C20.22,560.67,20.22,560.67,20.47,560.72Zm-3.34.33-.09.08a3.22,3.22,0,0,1-.85-.6l-.21-.35.44.14.47.35C17,560.79,17,560.91,17.13,561.05Zm1.36-1.13.76.58a1.27,1.27,0,0,1-.5-.1l-.22-.17-.2-.35A.42.42,0,0,1,18.49,559.92Zm-2,0,.27.21.16.3s0,0-.13,0l-.66-.51s-.05-.09-.07-.13Zm1.27-1.27a1.25,1.25,0,0,1,.22.16.47.47,0,0,1,.06.09l0,0c-.11,0-.36-.21-.37-.29s0,0,0,0Zm-2.94-2.78a.19.19,0,0,1,.12.14l-.1,0a.28.28,0,0,1-.12-.14S14.75,555.84,14.78,555.86Zm-6.62-3.39-1-.77c-.22-.16-.24-.26-.07-.28l.1,0,1,.73.15.31s0,0,0,0Zm.92.71c-.11-.1-.31-.19-.26-.29l.42.13C9.35,553.19,9.3,553.25,9.08,553.18Zm.28,1.75-.23-.17c-.09-.21-.09-.21.15-.17l.23.17C9.6,555,9.6,555,9.36,554.93Zm1.56.06-.23-.17c0-.05-.08-.12-.07-.15s.13-.09.12-.18-.18-.18-.27-.26-.18,0-.31,0l-.41-.12-.23-.19c-.12-.23.12-.22.17-.34l.43.12c.33.23.66.48,1,.72.12.15,0,.15,0,.19s.37.3.35.45l-.07.06Zm2.35,1.24c-.14-.11-.29-.23-.45-.34l-.31-.11-.46-.34-.21-.37c.06,0,.14,0,.19.07l.68.52c.23.17.44.35.68.5l.22.07c.25.14.45.33.68.49s.13.29.43.46l.33.12,2.69,2.05c.09.06.11.15.06.2l-.05,0-.43-.13-.17-.26-.23-.17c-.13,0-.13,0,0,.2a.64.64,0,0,1-.19-.08l-.8-.6a1.89,1.89,0,0,1-.24-.32l0,0L14.14,557l-.18-.27-.3-.1-.22-.17Zm1.12,2.32-.1,0a.21.21,0,0,1-.12-.14l.09,0A.2.2,0,0,1,14.39,558.55Zm-1.13-1.49c-.11-.18-.06-.23.16-.16S13.48,557.13,13.26,557.06Zm-2.58,1c-.11-.18,0-.23.16-.16S10.9,558.11,10.68,558Zm.78,0-.22-.17-.16-.26-.57-.43c-.09-.07-.15-.12-.17-.18s.05,0,.14,0l.11,0c0-.06-.07-.13-.18-.22s-.18-.26-.09-.26h.09c.12,0,.22.16.33.21l.29.1.13.22.69.54c.12.16,0,.16,0,.2l-.29-.08.13.25C11.64,558.09,11.6,558.13,11.46,558.07ZM14,559.48l-.23-.07c-.35-.19-.65-.5-1-.72-.09,0-.13,0-.16,0s-.18,0-.36-.12a1.24,1.24,0,0,1-.14-.18l.23-.23a.73.73,0,0,1,.22.09l1.7,1.29a.43.43,0,0,1,.09.1c.11.15-.05.13-.06.2C14.13,559.7,14.16,559.6,14,559.48Zm.39.71c-.16-.14-.39-.25-.45-.41.12,0,.3.13.35.05l.32.25c.12.14.09.19,0,.21A.47.47,0,0,1,14.43,560.19Zm1.58.62.21.07.08,0,.23.36a4.43,4.43,0,0,1-1.17-.88A2.37,2.37,0,0,1,16,560.81Zm1.23,2.36c-.06-.09-.11-.18-.16-.27l-2.95-2.24a.29.29,0,0,1-.07-.15c0-.09.16-.06.33.07l3.05,2.32a1.18,1.18,0,0,1,.24.43C17.53,563.39,17.53,563.39,17.24,563.17Zm2.07.32a1.84,1.84,0,0,0-.22-.17c-.08-.21-.08-.21.17-.16l.22.17C19.56,563.54,19.56,563.54,19.31,563.49Zm-1.48,1.11-.69-.53c-.07-.12-.14-.24-.22-.36l.3.07.07-.07a1.12,1.12,0,0,1,.22.09,1.85,1.85,0,0,1,.54.53l.09.08c.23.24.23.24.12.32Zm2.84,1,.08-.07a.22.22,0,0,0-.15-.15l-.54-.17-.52-.39c-.08-.14-.18-.31-.28-.5l-.2-.16-.21-.36a1.08,1.08,0,0,1,.33.18,1.83,1.83,0,0,0,.35.14l.16.24c.12.07.17,0,.22,0s.11,0,.17,0l.45.34.32.11.68.51c.06.09.07.13,0,.16s-.16,0-.24,0l-.66-.5-.13,0a.49.49,0,0,0,.1.15c.19.15.39.29.57.44a.79.79,0,0,1,.14.18l-.23.23A.67.67,0,0,1,20.67,565.56Zm-.25.87-.11-.08c-.14-.11-.21-.21-.14-.21a.46.46,0,0,1,.21.12l.11.08q.11.12,0,.12ZM0,113.38v11.34l11.34,8.22,11.34,8.22V129.83L11.34,121.6Zm8.69,16.33c-.06-.1-.07-.16,0-.18a.17.17,0,0,1,.12,0c.17.1.33.21.49.32a.28.28,0,0,1,0,.12c0,.07-.05.09-.17.07Zm2.61.37c-.21-.12-.41-.27-.61-.41l-.37-.25c-.17-.11,0,.05,0-.12s.09-.11.18-.05c.33.2.66.43,1,.65.17.11,0,0,0,.12S11.4,130.13,11.3,130.08ZM11.14,129a.43.43,0,0,1,.5.34A.44.44,0,0,1,11.14,129Zm10.12,8.36c.17.13.08.34.21.5l-.14.2c-.31.05-.48-.21-.7-.37s0-.21.09-.33Zm-2.61-1,.17.5c-.07,0-.15.06-.19,0a5.66,5.66,0,0,1-.48-.31c-.09-.19,0-.32.13-.38S18.53,136.34,18.65,136.4Zm-.22-.66a.56.56,0,0,1,0,.12l-.51,0a1.09,1.09,0,0,1-.22-.54.57.57,0,0,1,.13,0A1.57,1.57,0,0,1,18.43,135.74Zm.15-.68s0,.06,0,.06a.3.3,0,0,1-.13,0,1.31,1.31,0,0,1-.24-.17s0-.08,0-.12,0-.05.05-.06S18.6,134.93,18.58,135.06Zm-4.23-2.37,1,.66.7.47c.2.5.22.52.75.5.06.16.08.24.12.36a5.31,5.31,0,0,1,.46.31c.05,0,.05.14.07.21-.17,0-.36,0-.44.15a1,1,0,0,1-.19.25c-.2,0,0,.12-.15,0l-1.74-1.17c-.05-.11-.09-.23-.14-.36-.4-.27-.82-.54-1.22-.83-.09-.06-.08-.16,0-.18a.23.23,0,0,1,.12,0l.26.17.52,0c0-.13,0-.22-.18-.29a.22.22,0,0,1-.13-.22A.28.28,0,0,1,14.35,132.69Zm2.24-.68s.05.11,0,.12a.17.17,0,0,1-.2,0s-.05-.12,0-.12S16.56,132,16.59,132Zm-4.37-.94q0,.1-.18.06l-.48-.32a.34.34,0,0,1,0-.12c0-.07.07-.09.18-.06l.49.32A.7.7,0,0,1,12.22,131.07Zm1.23-.65s.1,0,.12.08a.17.17,0,0,1,0,.12c0,.06-.06.09-.17.06a.42.42,0,0,1-.12-.08c-.11,0-.17-.11-.16-.2S13.3,130.31,13.45,130.42Zm.58-.32a.71.71,0,0,1-.14,0,2.69,2.69,0,0,1-.82-.55s0-.09-.08-.24C13.48,129.61,13.84,129.75,14,130.1Zm-1.28-.9a.1.1,0,0,1,0,.07c-.12.06-.39-.12-.41-.27a.1.1,0,0,1,0-.07C12.46,128.87,12.73,129.05,12.75,129.2ZM34,614.26V602.92L22.68,594.7V606ZM29.3,601.39c0,.13,0,.22,0,.32l-.1.14c-.05,0-.1,0-.13,0l-.56-.4c0-.11.05-.17.11-.26l.32-.07C29,601.17,29.15,601.32,29.3,601.39Zm.27.44v.2c0,.1.23.06.18.26l-.11.13c-.19,0-.19,0-.19-.22s-.23-.09-.19-.28Zm-2.25-1.45c0,.19,0,.19-.21.28l-.1-.07c0-.19,0-.2.22-.28ZM22.7,597.6s0,0,0-.07l.11-.14s.1,0,.13,0,.29.21.43.32,0,0,0,0-.07.14-.11.22l-.07,0A1.52,1.52,0,0,1,22.7,597.6Zm1.1.41s0-.09,0-.12,0,0,.07,0a1.33,1.33,0,0,0,.19.14l.21-.06.1.08c0,.08,0,.18,0,.31a.08.08,0,0,1-.09,0C24.11,598.25,24,598.13,23.8,598Zm.8,1a.08.08,0,0,1,0-.11s.05-.06.11-.07l.2-.06.29.21a.32.32,0,0,1-.15.26s-.06,0-.07,0Zm1.44.72.28-.09a.34.34,0,0,1,.22.17c0,.09-.07.14-.11.21s-.06,0-.08,0a.56.56,0,0,1-.31-.23S26,599.79,26,599.76Zm-.61.1.09.07.21-.06.19.14a.25.25,0,0,1-.14.25,1.12,1.12,0,0,1-.26.11l-.3-.22C25.25,600,25.25,600,25.43,599.86Zm-1.73.45c0-.09.06-.15.1-.21a.13.13,0,0,1,.18,0c.06,0,.15.07.12.2l-.11.14C23.82,600.52,23.78,600.38,23.7,600.31Zm.79.29c.06-.07.1-.2.21-.15v.29C24.51,600.76,24.51,600.76,24.49,600.6Zm2.59.7-.19-.14A.22.22,0,0,1,27,601s.11-.08.13-.07.32.22.48.35,0,.09,0,.12l-.07,0-.19-.14Zm-2,.51c-.06,0-.07-.12,0-.16s.09,0,.12,0,0,0,0,0a.09.09,0,0,1,0,.12l-.07,0S25.11,601.82,25.1,601.81Zm1.41,1-.09-.06-.22.06-.09-.08v-.15a.36.36,0,0,0-.07-.1l-.32-.24v-.17c0-.18-.32-.12-.29-.36l.31-.1a3.39,3.39,0,0,0,.28.2s.07,0,.11,0a.81.81,0,0,1,0-.16.34.34,0,0,1,.14-.19.09.09,0,0,1,.12,0l.86.63c-.19.32-.41.55-.55.77S26.56,602.87,26.51,602.84ZM32,604.47v-.23l-.87-.64a1.27,1.27,0,0,0,0-.2l-.08,0c-.14,0-.22,0-.2-.08s-.06-.19-.09-.29,0,0,0-.06l.14,0a.07.07,0,0,0,0-.05s0-.06,0-.07l-.71-.52c0-.13,0-.28.06-.39-.15-.14-.15-.14,0-.33a.15.15,0,0,1,.13,0l.47.34v.18s0,0,0,0l.54.4a1.34,1.34,0,0,1,0,.21l.08.08.21-.06V603l1.29.95,0,.13-.48.63-.07,0s0,0-.06,0Zm-9.31-21.11V594.7l-11.34-8.23L0,578.25V566.91l11.34,8.23h0Zm0-181.41-11.34-8.23L0,385.5v11.34l11.34,8.22,11.34,8.22ZM4.22,397.5a.32.32,0,0,1,0-.15c.12,0,.21,0,.26.06a.59.59,0,0,1,.05.14C4.36,397.6,4.26,397.58,4.22,397.5Zm4.09,2.81A1.84,1.84,0,0,1,8,400c0-.11.08-.24.14-.4s-.14-.4-.21-.62h-.5s-.06-.12,0-.16.17-.34.27-.51.26-.07.45.06l.32.21.14.11c.11.19,0,.31-.08.44l.18.61c.15.23.4.32.59.47a.29.29,0,0,1,.09.41l-.12.18A3.31,3.31,0,0,1,8.31,400.31ZM11.75,403c-.08-.12-.08-.21,0-.23a.42.42,0,0,1,.15,0c.08.12.08.2,0,.23A.42.42,0,0,1,11.75,403Zm3.7,1.43c-.08-.12-.09-.21,0-.24a.88.88,0,0,1,.17,0l.62.42c.08.13.09.22,0,.25h-.17ZM20,407.72c0-.08.07-.12.21-.09s0,.1.06.15-.08.11-.22.08S20,407.77,20,407.72Zm2,1.44c.12.32,0,.48-.33.49C21.53,409.33,21.64,409.17,22,409.16Zm.7,174.2V572L34,580.24v11.34Zm-11.34-167L0,408.18v11.34l11.34,8.22m-5.09-7.9a1.51,1.51,0,0,1-.77-.55A1.59,1.59,0,0,1,6.25,419.84ZM.8,418a5.53,5.53,0,0,1,.61.21c.54.37.55.37.68.24l.94.31.06-.09,1.62.53c.53.38.53.38.46.57l-.45-.14-.09.09-.47-.15-.24.34-1.62-.56L.78,418.24C.59,418,.58,417.92.8,418ZM9.91,333.8a.24.24,0,0,1,0-.1c0-.05,0-.07.14-.05s0,.06,0,.09S10,333.82,9.91,333.8ZM34,568.9V557.56l-11.34-8.22v11.34Zm-.24-2.07s0,0,0,0a.6.6,0,0,1-.38-.28s0,0,0,0A.65.65,0,0,1,33.78,566.83Zm-1.33-1.61.45.34.32.1.22.17c.08.21.08.21-.17.15l-.89-.68c-.08-.07-.08-.12,0-.12Zm-1-.17a.75.75,0,0,1,.25.26,1.07,1.07,0,0,1-.44-.26.75.75,0,0,1-.25-.26A1.45,1.45,0,0,1,31.5,565.05Zm-2.05-.86c-.11-.17-.06-.23.16-.16S29.67,564.26,29.45,564.19Zm2.33-.33c.07.06.16.11.22.17s.08.13,0,.12-.23-.09-.27,0a.21.21,0,0,1-.22,0c-.35-.26-.35-.27-.18-.36Zm-1.92,0c.11.13,0,.12,0,.17l-.11,0a3,3,0,0,1-.51-.39c-.11-.14,0-.13,0-.21A3.31,3.31,0,0,1,29.86,563.83Zm-.88-.27c.25.19.26.22.14.36a4.43,4.43,0,0,1-.9-.73l.47.16Zm-.81-.9.67.52a.21.21,0,0,1,.06.08s0,0-.14,0l-.67-.51a.12.12,0,0,1-.05-.09S28.08,562.62,28.17,562.66Zm-1.79-.9s0,0,0,0-.36-.21-.37-.29,0,0,0,0a.19.19,0,0,1,.1,0,1.28,1.28,0,0,1,.22.17A.24.24,0,0,1,26.38,561.76Zm.26-.2-.08.08a.73.73,0,0,1-.46-.34l.08-.08A.73.73,0,0,1,26.64,561.56Zm-2.38-1.24a.69.69,0,0,1,.46.35A.75.75,0,0,1,24.26,560.32ZM10.71,334.82l-.4-.28c-.05-.26-.05-.26.21-.32l.4.28C11,334.75,11,334.75,10.71,334.82Zm12-46.26-11.34-8.22L0,272.12v11.34l11.34,8.22,11.34,8.22Zm-6.15,1.6V290l-.23-.21-.17,0-.08-.06-.16,0v-.13c-.09-.17-.29-.23-.39-.39v-.12a.88.88,0,0,0-.21-.22,2.11,2.11,0,0,0-.35,0l-.47-.4s0,0,0-.05a1,1,0,0,1,.28-.35s.06,0,.09,0l1.07.92.17,0,.39.34v.17l.16.13.16,0c0,.11,0,.21,0,.31a.1.1,0,0,0,.11.08c.08,0,.16-.05.21.08v.14l.46.4s0,.08,0,.11a.16.16,0,0,1-.15.1Zm-2.61,2.12s0-.07.05-.1a.1.1,0,0,1,0-.05c.11,0,.16,0,.16.14l-.17,0C14,292.31,13.93,292.31,13.92,292.28Zm.66-.1-.17,0-.63-.55c0-.08,0-.16,0-.24a.76.76,0,0,1,.1-.13l.21,0s.1,0,.1.1a.62.62,0,0,1,0,.13l.94.81s0,.07,0,.1l-.23.05Zm.55.47c0-.15,0-.15.18-.2l.23.2c0,.16,0,.16-.17.21Zm5.52,1,.08-.1c.14,0,.14,0,.16.13a.39.39,0,0,1-.08.1C20.67,293.76,20.67,293.76,20.65,293.62Zm-9.31,247.5L0,532.9V521.56l11.34,8.22m3.58-396.43s0,.07,0,.11-.06.09-.17.07,0-.08,0-.12S14.81,133.33,14.92,133.35Zm7.76,132.54v11.33L34,285.45v11.33l-11.34-8.22V277.22L11.34,269,0,260.78V249.44l11.34,8.22h0Zm0,195.5a1.36,1.36,0,0,0,0,.2c0,.05.12.05.11.14a.24.24,0,0,1-.15.2v8L34,478.2V466.86l-11.34-8.22v2.76Zm8.9,6.82-.27.09a.15.15,0,0,1-.15-.18c.05-.05.08-.14.17-.15S31.6,468,31.6,468.21Zm.71-.33-.1.14c-.17,0-.17,0-.22-.15a1.13,1.13,0,0,0,.1-.13C32.26,467.71,32.26,467.71,32.31,467.88Zm-2.79-1.54a.62.62,0,0,1,.3.23.86.86,0,0,1,0,.17l.21.13,1.08.73c.06,0,0,.21-.08.25s-.05,0-.08,0l-.86-.57-.22.05-.11-.07,0-.21-.1-.07-.22.06a.73.73,0,0,1-.09-.08,1.62,1.62,0,0,1,0-.2c-.71-.47-.71-.47-.76-.6s.07-.15.17-.17.37.28.57.34S29.48,466.31,29.52,466.34Zm.68-.36c0,.18,0,.18-.19.27l-.11-.07c0-.18,0-.18.19-.28Zm-1.77,0c-.05,0-.16,0-.09-.18l.29-.09A.24.24,0,0,1,28.43,466Zm-1.59-1.84c0,.08,0,.15,0,.21a2.64,2.64,0,0,1,.42.3c0,.06,0,.11,0,.19.24.15.49.32.73.49,0,0,0,.08,0,.12l-.09.14c-.08,0-.13,0-.19,0s-.14,0-.22,0a.88.88,0,0,0,0-.2l-.52-.35s-.05,0-.07,0l-.15,0-.54-.36c0-.06,0-.13,0-.21l-.43-.28s0,0,0-.07,0-.05,0-.05l.49-.16.32.22Zm-1.51-.46c-.11.15-.12.15-.28.05a.24.24,0,0,1,.12-.25l.28-.11A.46.46,0,0,1,25.33,463.7ZM22.68,243.21h0v11.34L34,262.77v11.34l-11.34-8.22V254.55l-11.34-8.22L0,238.1V226.77L11.34,235l11.34,8.22Zm0-79.37h0v11.34h0L34,183.4V172.06l-11.34-8.22Zm8.55,12,.06.05h.09l.16.14c0,.05,0,.05,0,.07h-.08s0,0-.06,0l-.13-.11h-.08l-.05,0,0-.11,0,0S31.18,175.78,31.23,175.81Zm-.1-.29s0,0,0,0v0s0,0,0,0S31.13,175.52,31.13,175.52Zm-.37,0h.08a1.74,1.74,0,0,0,.22.18q0,.11-.06.06s-.05,0-.08,0l-.05.07h-.19c-.07,0-.07,0-.11,0h-.13s0,.05-.08,0l-.09-.08,0-.1,0,0h.07l.19-.23h0C30.63,175.37,30.69,175.44,30.76,175.48Zm-5.65-4.39c0-.06,0-.06.05-.07l.05,0c0,.06,0,.06-.06.07Zm1.25,1.46-.28-.22,0-.08-.09-.07s0,0,0,0,.05-.05.07,0l.14.11h.06a.44.44,0,0,1,.15.12s0,0,0,.06l0,.13a0,0,0,0,1,0,0Zm3.05,2,.18.14h.08l.18.14h.08l0,.07L30,175l0,.11H30l-.23-.19-.12,0-.16-.13h-.07l-.09-.08s0,0,0-.06,0-.05,0-.08l0,0Zm.43,0s0,0,0,0-.07,0-.07-.06a0,0,0,0,1,0,0S29.84,174.45,29.84,174.48Zm-1.09-.1,0,0,.1,0,0,0a.16.16,0,0,0,.05.09s0,.05,0,.08h.07l.37.3s0,0,0,0h0c-.08,0-.08,0-.1,0l0,0h-.05l-.68-.56s0,0,0-.06Zm.51-.44a0,0,0,0,1,0,.06h-.05l-.11-.09-.12-.09a.06.06,0,0,1,0-.07H29Zm-1.38-.13a.14.14,0,0,1-.11,0,.09.09,0,0,1-.05-.09l-.14-.11-.16-.13a1.42,1.42,0,0,1-.13-.12.09.09,0,0,1,0,0c.05,0,.08,0,.12.07l0,.07h.08l.27.22,0,.07S27.89,173.78,27.88,173.81Zm1-.13,0,0c-.06,0-.06,0-.09-.07l0,0C28.88,173.62,28.88,173.62,28.91,173.68Zm-2.49-1.59h.08l.17.14h.09l.06.05s0,0,.05,0,0,0,0,0a.14.14,0,0,0,0-.07l0,0c0-.05,0-.07,0-.1H27c.08,0,.13.11.21.15h.05l0,0,.58.46h.07l.05,0,0,.08.41.33,0,.08.16.12s0,0,0,0h-.11c0-.09,0-.09-.1-.11l-.05.07h-.05l-.53-.42a0,0,0,0,0-.06,0l.12.1a.24.24,0,0,1,0,.09s0,0,0,.08l.06.06,0-.05c.08,0,.11.07.17.1l0,.08c.06.06.06.07,0,.11s-.05,0-.08,0l0-.07-.16-.13s0,0,0,0,.08.06.1.1,0,0,0,0h0l-.32-.26,0-.07,0,0h-.08l-.14-.11h-.07l-.55-.44h-.08l-.09-.07a.14.14,0,0,0-.06-.12l0-.05c-.05-.07-.13-.1-.19-.17s0,0,0-.06S26.37,172.06,26.42,172.09Zm-.25-.2,0,0c0,.05,0,.07-.05.07a.64.64,0,0,0,0-.07s0,0,0,0Zm-.14-.11s0,0,0,0,0,.06-.05.07a.64.64,0,0,0,0-.07s0,0,0,0A0,0,0,0,1,26,171.78Zm.28-.68,0,.1h0l-.22-.19,0-.07H26l-.05,0-.23-.19,0,0a.64.64,0,0,0,0-.07C25.74,170.64,25.74,170.64,26.31,171.1Zm-3.63-18.6V141.16L34,149.39v11.33Zm0,453.53v11.34L34,625.59v11.34l-11.34-8.22V617.37l-11.34-8.22L0,600.93V589.59l11.34,8.22ZM15.54,134l.49.32c.06.31.06.31-.25.39l-.49-.33C15.23,134.11,15.23,134.11,15.54,134Zm-4.2,169,11.34,8.22v11.34L34,330.8v11.34l-11.34-8.22V322.58l-11.34-8.22L0,306.13V294.8Zm0,22.67L0,317.47v11.34L11.34,337l11.34,8.22v11.34h0L34,364.81V353.48l-11.34-8.23V333.92Zm13.48,28.66s0-.05,0-.07l0,0c.09,0,.2.05.16.14l0,0s-.06,0-.07,0A.39.39,0,0,1,24.82,354.35Zm.5.42c0-.19,0-.19.22-.26l.09.08c0,.2,0,.2-.21.26Zm1.3,1.07-.89-.73a.23.23,0,0,1,.14-.25s.06,0,.07,0l.3.24.21,0,.4.33v.22l.09.08c0,.07,0,.11,0,.12l-.22.05Zm.47.18a.09.09,0,0,1-.05-.11.11.11,0,0,1,.11-.06l.21-.05.19.17c0,.19,0,.2-.21.25S27.18,356.08,27.09,356Zm1.26,1-.09-.08c0-.19,0-.19.2-.26l.1.08C28.53,357,28.53,357,28.35,357.06Zm-2-3.38c0,.06,0,.11,0,.17s.18.18.27.27l.25.2.29.24v.1c0,.18,0,.19.2.18s.19,0,.2.18a.2.2,0,0,0,.09.17l.21,0,.1.08v.22l.5.41.21,0,.81.67c0,.24-.1.28-.27.2a.18.18,0,0,0-.13,0H29c0-.19,0-.19-.19-.15l-1-.83-.23,0c-.09-.08-.18-.16-.3-.25v-.2l-.21,0-.9-.74-.21,0-.91-.75s0-.06,0-.07l.27-.39c.12-.09.25-.05.34-.19s.1-.05.12,0C26,353.35,26.17,353.52,26.37,353.68ZM8.28,330.21s0,.05,0,.06-.32-.11-.33-.23,0,0,0-.06S8.27,330.09,8.28,330.21Zm-.91.1A.35.35,0,0,1,7,330,.35.35,0,0,1,7.37,330.31Zm-2.44.27c0-.08,0-.13,0-.15a.12.12,0,0,1,.1,0l.4.27a.54.54,0,0,1,0,.1c0,.06,0,.08-.14.06Zm2.15.33c-.17-.1-.33-.22-.5-.34l-.3-.21c-.13-.09,0,0,0-.1s.07-.09.15,0l.8.55c.14.1,0,0,0,.1S7.16,331,7.08,330.91Zm1.46-.4a1.32,1.32,0,0,1-.06-.2c.4.25.69.37.84.66,0,0-.08,0-.11,0A2.22,2.22,0,0,1,8.54,330.51Zm.06.69c0-.08.12-.07.25,0a.31.31,0,0,1,.09.07.14.14,0,0,1,0,.1c0,.05-.06.07-.15.05s-.06-.05-.1-.07A.18.18,0,0,1,8.6,331.2Zm-.92.59-.4-.27a.38.38,0,0,1,0-.1c0-.05.06-.07.15-.05l.4.28a.38.38,0,0,1,0,.1C7.83,331.8,7.77,331.81,7.68,331.79Zm3.59.84s0-.09,0-.1.14,0,.17,0,0,.09,0,.1S11.3,332.68,11.27,332.63Zm.15,2.9-1.42-1-.11-.3c-.33-.23-.66-.45-1-.7-.08-.05-.06-.13,0-.15H9l.21.14.44,0c0-.1,0-.17-.15-.24s-.13-.11-.1-.18.13,0,.18,0l.8.55.58.4c.15.42.17.43.61.43l.09.29c.11.08.25.16.37.26s0,.11.06.17c-.14,0-.3,0-.36.12a1.16,1.16,0,0,1-.16.21C11.38,335.54,11.56,335.63,11.42,335.53Zm1.26-.66c.12,0,.34.13.33.24a0,0,0,0,1,0,0,.12.12,0,0,1-.1,0,.86.86,0,0,1-.2-.13s0-.07,0-.1A.1.1,0,0,1,12.68,334.87Zm-.37.47s.08,0,.11,0a1.1,1.1,0,0,1,.45.32.21.21,0,0,1,0,.1l-.43,0A1,1,0,0,1,12.31,335.34Zm.32,1c-.06-.16,0-.26.12-.31s.2.08.3.14.09.27.13.41-.12.05-.16,0Zm2,.91c-.07-.12,0-.17.08-.27h.44c.14.11.06.28.17.41l-.11.17C15,337.64,14.84,337.43,14.66,337.29Zm1.95,1.15-.68-.47c-.13-.09-.21-.21-.15-.24s.14,0,.21,0,.26.1.26,0a.17.17,0,0,0-.13-.17.2.2,0,0,1-.14-.18c0-.07.13-.06.26,0l.69.48c.07.13,0,.21-.07.32.07.17.16.38.26.59C16.75,338.83,16.75,338.83,16.61,338.44Zm1.27-.5.6.41.4.28a.17.17,0,0,1,0,.1c0,.06-.07.09-.14,0l-1-.7s0-.06,0-.1S17.8,337.89,17.88,337.94Zm3.1,3.53-.25,0C20.74,341.37,20.85,341.38,21,341.47Zm-1.21-.61a3.69,3.69,0,0,1,.1.39.19.19,0,0,1-.06.16s-.15.06-.18,0l-2.19-1.51-.06-.09c-.07-.16.09-.21.13-.32s-.13-.09-.13-.17a.22.22,0,0,1,.14-.21c.07,0,.14,0,.21.07a1.88,1.88,0,0,1,.16-.23c0-.17-.21-.23-.27-.35s0-.08,0-.09a.09.09,0,0,1,.1,0l1,.66a.34.34,0,0,1,.07.11c0,.13.08.27.12.39-.13.11-.12.32-.36.3l-.11-.3-.7-.48-.22.31.5.34c0,.09.07.19.1.3h.31a6.13,6.13,0,0,0,.87.56.11.11,0,0,0,.16-.08L19,340.3a.2.2,0,0,1,0-.26c.06-.07.1-.15.15-.21a.34.34,0,0,1,.37.19c.07.12,0,.16-.07.24s.15.27,0,.38Zm2.27-.73-.25.29a7.13,7.13,0,0,0-.81-.54c-.2,0-.18.17-.28.24.16.12.33.22.48.34s0,.11.05.16-.07,0-.1,0a1.25,1.25,0,0,1-.45-.33c-.05-.08,0-.13,0-.18l-.4-.28s0,.05-.05.07a.34.34,0,0,1-.17,0s0-.09,0-.09a.3.3,0,0,1,.16,0,.17.17,0,0,1,.09.06s0-.07.05-.07.21,0,.31,0-.13-.17-.2-.26a1.27,1.27,0,0,1-.16-.31,8,8,0,0,0-.82-.57h-.25a2.16,2.16,0,0,1-.66-.47c-.07-.16.09-.22.13-.33Zm-3.38-2.57a.44.44,0,0,1,.09.18.12.12,0,0,1-.05.07c-.12.06,0,0-.11-.07l-.29,0a.5.5,0,0,1,0-.19C18.32,337.42,18.51,337.41,18.66,337.56Zm-1.5-.35.13.39s0,0,0,0a.11.11,0,0,1-.11,0l-.84-.58c0-.22.07-.29.23-.3Zm-1.44-.54a.16.16,0,0,1,0,.09.08.08,0,0,1,0,.07c-.08,0-.13,0-.15-.06s0-.13,0-.16Zm-.35-.59c0,.16.19.23.28.35a.12.12,0,0,1,0,.18l-.51-.35c0-.1-.07-.21-.11-.31l-.19-.13a.27.27,0,0,1,0-.28.22.22,0,0,0,0-.19l-.58-.4a.2.2,0,0,0-.2.06c-.16.14-.17.14-.36,0l-.25-.17c-.08-.12-.08-.19,0-.23a.13.13,0,0,0,0-.18c0-.06-.09-.07-.17-.05h-.14a3,3,0,0,0-.12-.29l-.39-.27c0-.14-.09-.27-.13-.41s0-.05,0-.06.08,0,.1,0c.81.56,1.62,1.11,2.47,1.71C15.17,335.39,15.29,335.73,15.37,336.08ZM34,138.05V126.71l-11.34-8.22v11.34Zm-9.37-13.82s0,0,0,0,0,0,.09,0l.33.26s0,0,0,.06,0,0-.09,0Zm1.44.7a.21.21,0,0,1,.23.18A.23.23,0,0,1,26.09,124.93Zm2.41,0c.2,0,.29.21.45.27s.13,0,.17,0,0,.09-.07.15C28.57,125,28.57,125,28.5,124.92Zm-1.59,1a1.35,1.35,0,0,1-.37-.3,1.1,1.1,0,0,1,0-.11c.22.16.39.25.47.41C27,125.88,26.93,125.89,26.91,125.88Zm.59.35a.2.2,0,0,1-.11-.15c.1,0,.16.07.23.12s.11.09.11.15S27.57,126.29,27.5,126.23Zm3.65,1.59c-.16-.11-.31-.24-.47-.37-.35-.25-.52-.26-.93-.58,0,0,0-.08,0-.09h.06L30,127l.27,0c0-.16-.22-.21-.33-.33l-.2,0,0,0c-.15-.09-.15-.09-.25,0h-.07l-.44-.35-.22,0-.22-.18s0-.11-.05-.16l-.19,0c-.06,0-.12-.09-.12-.16h.18l.07-.07.12,0,.87.68.18,0,.12.09.25,0c.05,0,0-.1,0-.15l.13-.18A.19.19,0,0,0,30,126l-.73-.59s0,0,0-.06,0,0,0,0,.12.07.18.11l1,.77.06,0h.13a1.24,1.24,0,0,1,.23.17.1.1,0,0,1,0,.14l0,0h-.07c-.15-.12-.3-.24-.46-.35a.11.11,0,0,0-.11,0s-.08.06,0,.15.13.06.11.13-.1,0-.15,0,0,0,0,0,.21.18.31.28a.2.2,0,0,0,.13,0,1.24,1.24,0,0,1,0-.16.27.27,0,0,1,.22.11h0l0,0,.06,0h0l.38.3-.09.35.12.1s0,.05,0,.07S31.19,127.86,31.15,127.82Z"/></g></g></svg>