<svg xmlns="http://www.w3.org/2000/svg" width="1928.964" height="85.042" viewBox="0 0 1928 85">
  <defs>
    <style>
      .cls-1 {
        fill-rule: evenodd;
      }
    </style>
  </defs>
  <path id="シェイプ_1" data-name="シェイプ 1" class="cls-1" d="M1899.21,84.981h28.34l-0.03-28.327h-28.34Zm-170.05,0h28.34l-0.03-28.327h-28.34Zm56.68,0h28.35l-0.03-28.327h-28.34Zm56.63-56.652h0L1842.44,0H1814.1l0.03,28.327,0.03,28.327h28.34ZM1672.48,84.981h28.34l-0.03-28.325h-28.34Zm56.62-56.652L1729.08,0h-28.35l0.03,28.327,0.03,28.325h28.34l-0.04-28.327h0.01ZM1559.11,84.981h28.34l-0.02-28.327h-28.35Zm-113.36,0h28.34l-0.03-28.327h-28.35ZM1559.03,0h-28.35l0.02,28.325,0.03,28.325H1502.4l-0.03-28.325L1502.34,0H1474l0.03,28.327,0.03,28.327h28.34l0.03,28.322h28.34l-0.03-28.327h28.34l-0.03-28.327Zm-42.69,78.013v0.165c0.04,0.052.07,0.1,0.1,0.14a0.156,0.156,0,0,1,.02.06l-0.03.42a0.179,0.179,0,0,1-.21-0.038h0a0.761,0.761,0,0,0-.14-0.187,0.419,0.419,0,0,1-.17-0.152c0.01-.108.01-0.222,0.03-0.335l-0.13-.2,0.01-.112,0.21-.07,0.19,0.095A0.187,0.187,0,0,1,1516.34,78.018Zm0.54-.25a0.13,0.13,0,0,1-.09-0.082,0.173,0.173,0,0,1,.05-0.015,0.106,0.106,0,0,1,.08.085,0.035,0.035,0,0,1-.04.017v0Zm-0.58-.922,0.1,0.13,0.03,0.06-0.05.56a0.228,0.228,0,0,1-.27-0.16,0.242,0.242,0,0,0-.05-0.187l-0.28-.142c-0.09-.142-0.19-0.295-0.3-0.475a0.285,0.285,0,0,0-.2-0.275l-0.23-.325a0.673,0.673,0,0,1-.21-0.195l0.01-.225,0.21-.065,0.14,0.057c0.04,0.058.08,0.12,0.14,0.195l0.92,0.472a0.386,0.386,0,0,1,.07.067c0.03,0.193-.05.33-0.02,0.512Zm0.73-14.124a0.248,0.248,0,0,1,.27.14l-0.01.112a0.248,0.248,0,0,1-.27-0.14Zm-1.39,3.124,0.06-.687,0.15-.055,0.02-.225a0.112,0.112,0,0,1,.05-0.017,0.329,0.329,0,0,1,.2.135c0,0.014.01,0.028,0.01,0.04l-0.03.325c0.05,0.065.08,0.107,0.12,0.152a0.6,0.6,0,0,1-.04.382,0.231,0.231,0,0,1-.18-0.052l-0.26.08a0.085,0.085,0,0,1-.05-0.017,0.17,0.17,0,0,1-.04-0.055Zm0.64,7.638-0.03.432a1.688,1.688,0,0,1,.12.2l-0.04.447,0.13,0.2-0.14.055-0.02.222-0.22.067a3.1,3.1,0,0,1-.18-0.282l0.05-.572c-0.1-.105-0.2-0.227-0.27-0.3l0.03-.4c-0.04-.065-0.09-0.13-0.13-0.187l0.02-.228a0.225,0.225,0,0,1,.18.03,0.424,0.424,0,0,0,.17-0.028l0.14,0.07A3.03,3.03,0,0,1,1516.28,73.484Zm0.87,1.067a0.154,0.154,0,0,1-.05-0.02c-0.06-.09-0.06-0.167.01-0.19a0.089,0.089,0,0,1,.05.02c0.07,0.091.06,0.17-.01,0.192v0ZM1515.4,71.8a0.5,0.5,0,0,1,.02.118,2.7,2.7,0,0,1,.11.25,0.07,0.07,0,0,1-.03.087,0.165,0.165,0,0,0-.13.135,0.2,0.2,0,0,1-.13.068l0.12,0.185-0.09.912c-0.01.042-.06,0.027-0.09,0a0.219,0.219,0,0,1-.04-0.062c-0.03-.187-0.03-0.187-0.16-0.25a0.8,0.8,0,0,1-.14-0.07,0.262,0.262,0,0,1-.08-0.112l0.14-1.712a0.164,0.164,0,0,1,.18.032,3.068,3.068,0,0,1,.33.435Zm2.04,1.295c-0.02.036-.09,0.026-0.17-0.023a0.25,0.25,0,0,1-.09-0.107,1.331,1.331,0,0,1,.02-0.285l0.02-.285a0.136,0.136,0,0,1,.17.022,0.386,0.386,0,0,1,.1.108Zm-2.18-3.457a1.027,1.027,0,0,1-.2-0.285,0.11,0.11,0,0,1,.13-0.127,0.914,0.914,0,0,0,.05-0.335l0.04-.4a0.678,0.678,0,0,1,.05-0.322,0.3,0.3,0,0,1,.18.063,0.343,0.343,0,0,1,.04.3l-0.14.058a0.9,0.9,0,0,1,.12.185l-0.05.685-0.15.052a0.09,0.09,0,0,1-.06.138Zm2.19,2.567-0.14-.067c-0.08-.112-0.08-0.211.02-0.232l0.13,0.067c0.1,0.119.1,0.228,0,.245Zm-0.55-6.216c0.03,0.05.08,0.115,0.12,0.19l-0.04.442a1.007,1.007,0,0,1,.13.2,0.212,0.212,0,0,1-.02.16,0.135,0.135,0,0,0,.04.123,0.07,0.07,0,0,0,.1.013,1.272,1.272,0,0,1,.14-0.053l0.02-.112a0.6,0.6,0,0,1,.33.112c0.06,0.08.12,0.165,0.18,0.25,0.05,0.2-.04.333,0,0.525l0.1,0.13a0.129,0.129,0,0,1,.01.06l-0.12,1.442a0.863,0.863,0,0,1,.12.188v0.117l-0.14.06-0.08,1.022-0.15.06-0.03.395a0.068,0.068,0,0,1-.06.075,0.129,0.129,0,0,1-.09-0.088,1.626,1.626,0,0,1-.12-0.182c0.18-.06.18-0.062,0.09-0.25l-0.27-.135a0.376,0.376,0,0,1-.06-0.122l0.1-1.317a0.162,0.162,0,0,0-.1-0.155c-0.01,0-.01,0-0.01,0l-0.03.305a1.6,1.6,0,0,1-.19.042,0.379,0.379,0,0,0-.24-0.03l-0.01.165,0.2,0.1a0.5,0.5,0,0,1,.04.422l-0.13.062c-0.05.157-.06,0.163-0.25,0.05a0.2,0.2,0,0,1-.04-0.185l0.15-.052,0.03-.4a0.108,0.108,0,0,0-.11-0.032,0.011,0.011,0,0,0-.01.012,2.182,2.182,0,0,1-.07.25,0.057,0.057,0,0,1-.05,0,0.111,0.111,0,0,1-.04-0.062l0.04-.81,0.14-.062c0.01-.03.01-0.068,0.02-0.107a1,1,0,0,0-.13-0.192l0.03-.34-0.14-.195,0.11-1.372c-0.05-.067-0.09-0.132-0.13-0.187l0.02-.232a0.151,0.151,0,0,0,.16-0.163l0.11-.032c0.07-.13.01-0.342,0.08-0.475a0.225,0.225,0,0,1,.19.053,0.434,0.434,0,0,1,.07.33Zm0.05-.62a0.1,0.1,0,0,0-.01.055,0.244,0.244,0,0,1-.28-0.142,1.234,1.234,0,0,0,.16-0.043,0.062,0.062,0,0,1,.09.013,0.117,0.117,0,0,1,.05.13Zm0.02-.35v0.055c-0.14.02-.14,0.02-0.27-0.13,0.05-.017.09-0.03,0.14-0.05s0.07-.02.09,0c0.06,0.05.08,0.111,0.05,0.137Zm2.21,0.7-0.2.063a0.069,0.069,0,0,1-.05-0.022,0.111,0.111,0,0,1-.04-0.062l0.06-.555,0.14-.058c-0.03-.05-0.07-0.095-0.1-0.138a0.53,0.53,0,0,1-.02-0.12l0.05-.572a0.1,0.1,0,0,1,.07-0.057,1.246,1.246,0,0,1,.16-0.04,4.307,4.307,0,0,1-.06,1.575ZM1389.06,84.981h28.34l-0.03-28.327h-28.34Zm-226.74,0h28.35l-0.03-28.327H1162.3Zm170-56.652L1332.29,0h-28.34l0.03,28.327,0.03,28.327h-28.34l0.02,28.322h28.34l-0.02-28.327h28.34l0.03,28.327h28.34l-0.03-28.327h-28.34ZM1336,62.265a0.123,0.123,0,0,1,.19,0,0.3,0.3,0,0,1,.1.135c0.01,0.175,0,.34,0,0.5a0.3,0.3,0,0,1-.1.042,0.269,0.269,0,0,1-.2-0.187Zm-0.6,9.842a0.313,0.313,0,0,1,.39.057,0.653,0.653,0,0,1,.11.1,0.429,0.429,0,0,1,.11.387l-0.43.16a1.375,1.375,0,0,1-.18-0.207c-0.01-.172,0-0.335,0-0.5v0Zm0.65,2.614a0.451,0.451,0,0,1,.42.1c0.12,0.165.25,0.352,0.4,0.577a1.174,1.174,0,0,1-.38.21l-0.33-.155a0.67,0.67,0,0,1-.1-0.722Zm0.27,2.5V76.353c0-.167.1-0.25,0.17-0.187a0.319,0.319,0,0,1,.13.272,0.311,0.311,0,0,0,.2.332c0.11,0,.15-0.067.1-0.17s0-.174.11-0.17a0.317,0.317,0,0,1,.2.332v0.885a0.468,0.468,0,0,1-.49-0.1l-0.54.325c-0.26-.482-0.26-0.482.12-0.652v0Zm1.82,1.66c0.02,0.267.01,0.517,0.01,0.772a4.035,4.035,0,0,1-.02.5,0.092,0.092,0,0,1-.1.043,0.239,0.239,0,0,1-.19-0.193c-0.02-.435-0.01-0.86,0-1.285a0.09,0.09,0,0,1,.1-0.043,0.263,0.263,0,0,1,.2.2v0Zm-1.82,3.934-0.2-.317a0.29,0.29,0,0,1,.2.315v0Zm-0.72-1.43a0.475,0.475,0,0,1-.27-0.092,0.657,0.657,0,0,1-.22-0.235c-0.01-.935-0.01-1.865-0.01-2.792a0.243,0.243,0,0,1,.05-0.088,1,1,0,0,1,.56.183,0.1,0.1,0,0,1,.1-0.168,0.6,0.6,0,0,1,.4.193,0.268,0.268,0,0,1,.11.265l0.44,0.212a0.423,0.423,0,0,0,.23-0.332,0.088,0.088,0,0,1,.1-0.017,0.3,0.3,0,0,1,.1.135c0.02,0.437.03,0.87,0.05,1.282a0.347,0.347,0,0,1-.08.087c-0.14.055-.28,0.1-0.41,0.145a1.812,1.812,0,0,1-.73-0.477l0.3-.133-0.01-.9-0.61-.29v0.632l-0.29.133c0.09,0.125.19,0.256,0.29,0.392a5.412,5.412,0,0,0,.06,1.122,0.318,0.318,0,0,0,.19.187,0.242,0.242,0,0,0,.06.016v-0.62c0.03-.09.18-0.09,0.34,0q0.21,0.108.42,0.2c0.17,0.2.22,0.4,0.1,0.485a0.459,0.459,0,0,1-.39-0.1,0.469,0.469,0,0,1-.47.04v0.417a2.513,2.513,0,0,1-.41.12v0Zm3.47,2.847-0.62-.338a4.451,4.451,0,0,0-.03-1.025,1.276,1.276,0,0,0-.57-0.372c0,0.2.01,0.417-.01,0.612a0.192,0.192,0,0,1-.17.055,0.252,0.252,0,0,1-.09-0.127,0.853,0.853,0,0,1,.02-0.575c0.02-.054.11-0.051,0.21,0.006,0.01,0.009.03,0.018,0.04,0.029V81.979a0.2,0.2,0,0,1-.13-0.07,0.559,0.559,0,0,1-.14-0.217,0.115,0.115,0,0,1,.09-0.032,0.932,0.932,0,0,1,.18.2,0.126,0.126,0,0,1,.01.117,0.673,0.673,0,0,1,.14.073c0.11,0.13.21,0.267,0.31,0.4a0.254,0.254,0,0,0,.17-0.25,0.614,0.614,0,0,1,.27-0.19,5.355,5.355,0,0,0-.02-1.055c-0.1-.138-0.16-0.23-0.23-0.325a1.627,1.627,0,0,1,.01-0.852,0.964,0.964,0,0,1,.56.182v4.269Zm0.3-4.314a0.261,0.261,0,0,1-.18.1,0.267,0.267,0,0,1-.14-0.065c-0.18-.155.01,0.055,0-0.137-0.09-.117-0.2-0.25-0.31-0.38a0.445,0.445,0,0,1,.22-0.043,0.465,0.465,0,0,1,.4.517Zm-0.92-1.944c-0.12.047-.25,0.105-0.38,0.155a0.171,0.171,0,0,1-.11-0.04,0.392,0.392,0,0,1-.1-0.135c0-.342.01-0.68,0-1.072a0.654,0.654,0,0,1,.6.3c-0.01.25-.01,0.5-0.01,0.782v0Zm-0.6-1.859a0.094,0.094,0,0,1-.08.045,0.1,0.1,0,0,1-.09,0c-0.08-.059-0.12-0.138-0.08-0.176a0.025,0.025,0,0,1,.02-0.017,0.18,0.18,0,0,1,.22.035c0.01,0,.01.008,0.02,0.012a0.1,0.1,0,0,1-.02.093Zm1.53-.78c-0.33.113-.68,0.25-1.06,0.352a0.563,0.563,0,0,0-.21.347c-0.01.061-.1,0.066-0.2,0.012a0.292,0.292,0,0,1-.08-0.062V75.339l0.31-.135-0.01-.25a0.441,0.441,0,0,1,.4.052,0.168,0.168,0,0,0,.21-0.06c0.01-.25.01-0.5,0.01-0.732a0.725,0.725,0,0,0-.27-0.272c-0.33-.2-0.34-0.225-0.34-0.46V73.154a0.2,0.2,0,0,1,.29-0.015,0.213,0.213,0,0,0,.26.045c0.05-.047,0-0.145-0.09-0.227a1.948,1.948,0,0,1-.13-0.172l0.27-.152v-0.5c0.13-.055.27-0.112,0.41-0.162a0.133,0.133,0,0,1,.1.04,0.3,0.3,0,0,1,.1.137c0.01,1.057.01,2.087,0.01,3.179Zm-3.32-3.394a0.6,0.6,0,0,1,.43-0.21,0.4,0.4,0,0,1,.1.138,0.777,0.777,0,0,1-.01.585,0.179,0.179,0,0,1-.1.04c-0.15-.19-0.29-0.372-0.43-0.56Zm1.28,0.65a0.392,0.392,0,0,1-.1-0.135,1.043,1.043,0,0,1,0-.25,0.182,0.182,0,0,1,.1-0.043,0.5,0.5,0,0,1,.11.058c0.15,0.2.15,0.377-.01,0.425a0.179,0.179,0,0,1-.11-0.062Zm-0.42-4.379c0.01,0.35.01,0.69,0.01,1.035v0.732c-0.41.188-.42,0.207,0,0.782l-0.31.115a3.76,3.76,0,0,1,0,.475,0.262,0.262,0,0,1-.18.067,1.187,1.187,0,0,0-.48-0.472,3.349,3.349,0,0,1-.42-0.215c-0.16-.212-0.13,0-0.12-0.163-0.01-.6-0.01-1.2-0.01-1.817l0.3-.132c0-.42-0.01-0.855.01-1.275,0-.092.12-0.077,0.19-0.013a0.51,0.51,0,0,1,.09.13v0.267l0.43,0.565c0.15,0.023.23-.055,0.18-0.185-0.02-.091.03-0.144,0.14-0.132a0.538,0.538,0,0,1,.16.227Zm2.4,2.424a0.125,0.125,0,0,1-.1.037,0.2,0.2,0,0,1-.1-0.217,0.255,0.255,0,0,1,.1-0.035,0.184,0.184,0,0,1,.09.207ZM1337.13,66a0.287,0.287,0,0,1-.2-0.195v-0.5a0.291,0.291,0,0,1,.11-0.037,0.287,0.287,0,0,1,.2.195c0,0.17-.01.337-0.01,0.5a0.326,0.326,0,0,1-.12.02Zm1.63,1.34a0.253,0.253,0,0,1,0,.123,0.126,0.126,0,0,1-.1.04,0.268,0.268,0,0,1-.2-0.19,0.263,0.263,0,0,1,0-.125c-0.05-.1-0.01-0.169.1-0.165a0.286,0.286,0,0,1,.18.307Zm0.77,0.625a0.7,0.7,0,0,1-.11-0.145,1.554,1.554,0,0,1,0-.857,0.484,0.484,0,0,1,.19-0.077,1.241,1.241,0,0,1-.1,1.07Zm0.05-1.33a0.218,0.218,0,0,1-.11-0.042c-0.15-.2-0.16-0.379,0-0.43a0.45,0.45,0,0,1,.1.04c0.15,0.2.14,0.372-.01,0.422Zm-0.97-1.19c-0.22-.248-0.22-0.48,0-0.52,0.21,0.247.2,0.475-.02,0.51Zm-0.77-1.25c0.02,0.35,0,.687.01,1.027,0,0.172.05,0-.11,0.035a0.23,0.23,0,0,1-.18-0.192,4.615,4.615,0,0,1-.01-0.642l-0.01-.385c0.01-.172-0.04,0,0.12-0.035,0.03-.035.15,0.077,0.16,0.172Zm-62.21-35.87L1275.61,0h-28.34l0.02,28.327,0.03,28.327h-28.34l0.03,28.322h28.35l-0.03-28.327h28.35ZM1162.24,0H1133.9l0.03,28.327,0.03,28.327h-28.34l0.02,28.322h28.34l-0.02-28.327h28.34l-0.03-28.327ZM878.909,84.981h28.34l-0.028-28.327H878.878ZM992.217,28.329L992.19,0H963.848l0.028,28.327,0.031,28.327h-28.34l0.025,28.322h28.342l-0.028-28.327h28.34ZM822.227,84.981h28.34l-0.031-28.327H822.2Zm28.282-56.652,0.026,28.327h28.343l-0.031-28.327H850.509Zm-141.71,0L708.773,0H680.43l0.024,28.325,0.029,28.327H652.148l0.026,28.325h28.343l-0.031-28.327h28.342Zm-56.682,0h0L652.088,0h-28.34l0.028,28.327L623.8,56.659h28.342Zm-170,56.652h28.343l-0.031-28.327H482.1Zm-0.06-56.652h0L482.038,0H453.7l0.031,28.327,0.029,28.327H482.1Zm-56.682,0L425.355,0H397.013l0.028,28.327,0.031,28.327h-28.34l0.025,28.322H397.1l-0.031-28.327h28.34Zm-226.735,0h0L198.625,0H170.278l0.029,28.325,0.028,28.327H142l0.027,28.325h28.342l-0.031-28.327h28.343ZM28.657,84.981H57L56.966,56.654H28.626ZM28.6,28.329h0L28.57,0H0.228L0.254,28.329,0.285,56.656H28.628Zm1870.553,0L1899.13,0h-18.2a5.327,5.327,0,0,0,.16.835l0.31,0.43V1.617a0.288,0.288,0,0,1-.15.052,0.706,0.706,0,0,1-.7-0.655,0.553,0.553,0,0,0-.37-0.5c-0.18-.116-0.37-0.133-0.41-0.039a0.106,0.106,0,0,0-.01.057,0.86,0.86,0,0,1,.28.5A0.277,0.277,0,0,1,1879.71,1c-0.2-.11-0.38-0.1-0.4.018a0.225,0.225,0,0,0,0,.082c0,0.172.01,0.35,0.01,0.565l-0.52.227c-0.11-.035-0.12-0.012-0.13,0a0.229,0.229,0,0,0-.04-0.065c-0.46-.58-0.92-1.167-1.37-1.75A0.234,0.234,0,0,1,1877.25,0h-6.47l0.03,28.327,0.03,28.327h28.34Zm-13.42-27.61a0.537,0.537,0,0,1,.14.055c0.22,0.269.23,0.518,0.02,0.587a0.235,0.235,0,0,1-.14-0.057c-0.23-.268-0.23-0.517-0.02-0.585h0Zm-0.44,3a0.171,0.171,0,0,1,.14-0.05,0.873,0.873,0,0,1,.21.09,0.469,0.469,0,0,1,.37.4c-0.03.078-.17,0.075-0.3-0.009a0.176,0.176,0,0,1-.05-0.031,1.382,1.382,0,0,1-.2-0.1,0.289,0.289,0,0,1-.16-0.295Zm-2.17-.965a0.5,0.5,0,0,1-.59-0.106,0.833,0.833,0,0,1-.26-0.291,0.5,0.5,0,0,1,.59.106A0.833,0.833,0,0,1,1883.12,2.754Zm-1.65.592a3.961,3.961,0,0,1-.03-0.675,0.242,0.242,0,0,1,.16-0.055c0.35,0.132.67,0.275,1.01,0.427a3.051,3.051,0,0,1,.38.235,0.752,0.752,0,0,1,.14.185c0,0.35.01,0.69,0.02,1.1a2,2,0,0,0-.41.112,0.225,0.225,0,0,1-.3-0.03,0.394,0.394,0,0,1-.14-0.365,2.975,2.975,0,0,0-.01-0.515c-0.22-.25.14-0.065-0.14-0.195a0.552,0.552,0,0,0-.44.052,1.3,1.3,0,0,1-.25-0.275Zm3.57,5.091a0.378,0.378,0,0,1,.28.25,0.175,0.175,0,0,1-.13.047,0.388,0.388,0,0,1-.28-0.25,0.317,0.317,0,0,1,.13-0.042v0Zm-4.26-4.086a0.373,0.373,0,0,1,.28.25,0.288,0.288,0,0,1-.13.052,0.394,0.394,0,0,1-.28-0.25A0.194,0.194,0,0,1,1880.78,4.351Zm-9.47,39.811a0.5,0.5,0,0,1,.59.106,0.835,0.835,0,0,1,.26.291,0.5,0.5,0,0,1-.59-0.106A0.835,0.835,0,0,1,1871.31,44.162Zm8.09-1.7c-0.18-.25-0.39-0.5-0.59-0.75,0.04-.16-0.13-0.5.27-0.352,0.18,0.25.39,0.5,0.58,0.75C1879.62,42.27,1879.8,42.615,1879.4,42.465Zm3.09-17.425a0.66,0.66,0,0,1-.13-0.175c-0.05-.11.01-0.179,0.13-0.16a0.991,0.991,0,0,1,.13.175c0.04,0.109-.02.177-0.14,0.16h0.01Zm-3.24-5.353c0.06,0.18-.08.269-0.31,0.2a0.872,0.872,0,0,1-.22-0.108,0.828,0.828,0,0,1-.3-0.325c-0.04-.647-0.03-1.277-0.06-1.919a0.175,0.175,0,0,1,.13-0.238,0.421,0.421,0,0,1,.3.25c0.12,0.167.28,0.38,0.41,0.562,0.02,0.532.01,1.047,0.05,1.58h0Zm3.71-3.274c-0.14.032-.35,0.087-0.57,0.127a0.243,0.243,0,0,1-.14-0.075,0.453,0.453,0,0,1-.14-0.185c-0.02-.642-0.03-1.277-0.04-1.917-0.06-.184.07-0.28,0.3-0.218a1.847,1.847,0,0,1,.39.235,0.453,0.453,0,0,1,.14.185c0.03,0.585.04,1.165,0.05,1.845Zm-0.17-5.351a0.251,0.251,0,0,1-.14.055l-0.41-.19c-0.3-.328-0.32-0.645-0.04-0.709h0.01l0.14-.055,0.26-.127a0.9,0.9,0,0,1,.17,1.027h0.01Zm-0.86-3.592c0.04,0.532.03,1.045,0.05,1.57a0.171,0.171,0,0,1-.12.25,0.454,0.454,0,0,1-.31-0.25,5.461,5.461,0,0,0-.42-0.485l-0.03-1.472a0.44,0.44,0,0,1,.53.07A0.88,0.88,0,0,1,1881.93,7.47Zm-4.57,1.022c-0.15-.2-0.29-0.395-0.42-0.577l-0.01-1.045,0.43-.2-0.02-1.03,0.31-.12a1.8,1.8,0,0,0,0-1.172,0.447,0.447,0,0,0-.27-0.267,0.3,0.3,0,0,0-.09-0.025,2.643,2.643,0,0,1,0,.487,0.187,0.187,0,0,1-.23.062,0.333,0.333,0,0,1-.18-0.337,0.671,0.671,0,0,1,.08-0.25c0.03-.073.15-0.068,0.28,0.009,0.02,0.012.04,0.024,0.06,0.038l-0.01-.352-0.62-.292c-0.3-.32-0.33-0.634-0.05-0.7l0.03-.007,0.6,0.29a0.317,0.317,0,0,0-.15-0.365,1.94,1.94,0,0,1-.7-0.585V1.717a1.464,1.464,0,0,1,1.13.42,0.761,0.761,0,0,1,.14.187c0.02,0.295.02,0.582,0.02,0.87a0.328,0.328,0,0,0,.33.09,0.239,0.239,0,0,0,.03-0.05,0.579,0.579,0,0,1,.43-0.527,1.44,1.44,0,0,0,.03-0.3,0.335,0.335,0,0,1,.21-0.067c0.23,0.265.44,0.517,0.63,0.75l0.03,1.072-0.4.182a1.548,1.548,0,0,0,.36.907c-0.5.222-.5,0.25,0.08,1.04,0.01,0.2.02,0.432,0.01,0.66-0.05.122-.26,0.122-0.48,0a2.155,2.155,0,0,1-.5-0.522,0.219,0.219,0,0,0-.14-0.065,0.126,0.126,0,0,0-.13.065c0,0.465.01,0.935,0.01,1.392,0.27,0.342.52,0.667,0.78,1a2.706,2.706,0,0,1,.09.362c0.01,0.527.02,1.047,0.03,1.515l-0.8.3c-0.08.572-.27,0.57-0.87-0.02Zm-0.78,3.169c0.04-.13.25-0.13,0.48,0a0.769,0.769,0,0,1,.36.36,3.854,3.854,0,0,0,.03.672,0.343,0.343,0,0,0,.26.272,0.129,0.129,0,0,0,.14-0.055c0-.347,0-0.7-0.01-1.052a0.785,0.785,0,0,1,.33-0.018,0.642,0.642,0,0,1,.52.61l0.01,0.5,0.42,0.577,0.01,0.2a2.451,2.451,0,0,1-.41.362,0.282,0.282,0,0,1-.21.347l-0.84-.392c-0.14-.3-0.29-0.609-0.47-0.92l-0.41-.21a0.782,0.782,0,0,1-.14-0.193A9.7,9.7,0,0,1,1876.58,11.661Zm0.18,6.388c-0.16-.41,0-0.682-0.13-1.075l0.44-.235-0.02-1.749c-0.1-.135-0.24-0.325-0.4-0.545l0.56-.235a14.291,14.291,0,0,1,1.74.812,1.088,1.088,0,0,1,.21.25c0.02,0.25.01,0.47,0.02,0.7l-0.43.183,0.02,0.682a0.623,0.623,0,0,1-.56-0.072,0.209,0.209,0,0,0-.26.087c0,0.925.02,1.859,0.04,2.774l-0.61.227a0.96,0.96,0,0,1-.15-0.165c-0.2-.467,0-0.79-0.17-1.25ZM1878.7,35.7c-0.42.06-.42,0.06-0.84-0.395l-0.01-.692c0.42-.045.42-0.045,0.85,0.395V35.7Zm3.67,3.249a1.069,1.069,0,0,1-.25-0.277,5.231,5.231,0,0,1-.03-0.68,0.173,0.173,0,0,1,.22-0.04c0.24,0.292.44,0.535,0.64,0.78Zm-2.94-8.8,0.02,1a0.483,0.483,0,0,1-.57-0.108,1.032,1.032,0,0,1-.14-0.122,0.381,0.381,0,0,1-.14-0.37,0.375,0.375,0,0,0-.22-0.416,1,1,0,0,0-.15-0.084,0.8,0.8,0,0,1-.47-0.423V29.6c-0.05-.712-0.04-1.4-0.05-2.074l0.32-.122a3.444,3.444,0,0,0,.08-1.077c-0.32-.41-0.57-0.735-0.84-1.087l-0.03-1.485,0.89-.085a10.074,10.074,0,0,0-.93-0.937l-0.01-1.047,0.39-.192c-0.12-.137-0.22-0.275-0.32-0.412a0.393,0.393,0,0,1-.04-0.487,3.5,3.5,0,0,1,1.01-.315c0.21,0.267.42,0.522,0.62,0.767l0.01,0.707c0.15,0.2.29,0.395,0.41,0.565l0.07,3.864-0.38.192c0.54,0.75.56,0.787,0.04,1.017a9.1,9.1,0,0,0-.02,1.387l-0.36.2c0.18,0.4.59,0.737,0.81,1.187V30.159Zm-433.75-1.837h0L1445.66,0h-22.13a1.344,1.344,0,0,0,.03.272,4.439,4.439,0,0,0,.32.647l0.04,0.25-0.13.195,0.04,0.455-0.13.192,0.2,2.6c0.06,0.115.12,0.222,0.18,0.335,0.04,0.472.07,0.942,0.11,1.4a2.045,2.045,0,0,1,.13.227,3.216,3.216,0,0,1,.09.735l-0.12.21a5.369,5.369,0,0,0,.04.66,0.335,0.335,0,0,0,.18.25,0.286,0.286,0,0,1,.16.267,0.146,0.146,0,0,1-.09.22c-0.1-.045-0.18-0.03-0.19.035l0.17,2.124c0.05,0.1.11,0.207,0.17,0.312l0.01,0.227-0.12.188c0.21,0.287.24,0.551,0.07,0.672,0.06,0.25.23,0.4,0.32,0.7l0.05,0.632-0.13.19,0.02,0.222-0.13.192c0.01,0.088.02,0.165,0.03,0.25,0.1,0.16.2,0.33,0.31,0.52,0.07,0.33.05,0.622,0.11,0.987,0.03,0.07.09,0.177,0.14,0.295l0.04,0.232-0.13.2c0.01,0.18.02,0.38,0.04,0.572a0.317,0.317,0,0,0,.07.227c0.03,0.047.07,0.032,0.1-.033a0.464,0.464,0,0,1,.05-0.07,2.663,2.663,0,0,1,.18.28l0.16,0.075,0.14-.165,0.15,0.065a1.3,1.3,0,0,1,.13.6c0.04,0.085.09,0.193,0.16,0.325l0.04,0.715-0.12.178c0.05,0.1.11,0.207,0.16,0.31l0.07,0.7-0.24.3a1.542,1.542,0,0,0,.01.477l-0.11.2c-0.03.265,0.05,0.6,0.04,0.922a0.478,0.478,0,0,1-.21.272,0.325,0.325,0,0,1-.22-0.25c-0.05-.667-0.11-1.375-0.17-2.087-0.01-.087-0.07-0.147-0.09-0.13a0.062,0.062,0,0,0-.04.063l0.51,6.626a0.054,0.054,0,0,1-.04.058,0.106,0.106,0,0,1-.06-0.045,2.031,2.031,0,0,1-.12-0.215,1.668,1.668,0,0,0-.13.385l-0.15-.065-0.14.165-0.15-.055a0.329,0.329,0,0,0,.1.37l-0.25.36a0.315,0.315,0,0,0,.22.2l0.14-.165a1.286,1.286,0,0,1,.12.69,4.411,4.411,0,0,1,.06.71,2.613,2.613,0,0,1,.03.677l-0.09.122c0.1,0.335.27,0.168,0.39,0.335a0.308,0.308,0,0,1,.06.107c0.04,0.395.08,0.787,0.1,1.19l-0.12.18,0.02,0.227c0.06,0.115.11,0.225,0.17,0.325v0.232l-0.18.25-0.15-.067a0.837,0.837,0,0,1-.11-0.34,2.322,2.322,0,0,0-.17-0.38,4.082,4.082,0,0,0-.04-0.417,0.17,0.17,0,0,0-.1-0.157,0.051,0.051,0,0,0-.04.058l0.09,1.165c0,0.067-.08.094-0.18,0.068a0.335,0.335,0,0,0-.16.117,2.432,2.432,0,0,1-.17-0.265l-0.14.155-0.22-.1,0.3,3.791a0.182,0.182,0,0,1-.04.18,0.163,0.163,0,0,1-.16-0.047,0.24,0.24,0,0,1-.05-0.061,1.632,1.632,0,0,1-.12-0.215,0.21,0.21,0,0,0-.08.1c0.06,0.7.11,1.412,0.16,2.067-0.05.152-.14,0.063-0.22,0.043a1.118,1.118,0,0,1-.09-0.215c-0.03-.357-0.06-0.712-0.09-1.067a0.247,0.247,0,0,0-.03-0.112c-0.05-.072-0.08-0.142-0.13-0.232l-0.13-1.635c-0.06-.117-0.12-0.225-0.18-0.34l0.12-.182-0.08-.937c-0.06-.112-0.12-0.22-0.16-0.31l-0.14-1.662,0.2-.25c0.08,0.148.16,0.292,0.27,0.5,0.01,0.25.04,0.57,0.08,0.887a0.46,0.46,0,0,0,.09.16l0.19-.223c-0.06-.117-0.12-0.227-0.16-0.315l-0.04-.465,0.13-.2a3.536,3.536,0,0,1-.04-0.71c0.06-.078-0.06-0.108.05-0.055a0.3,0.3,0,0,1,.07.1,5.858,5.858,0,0,0,.1.58,0.115,0.115,0,0,0,.05.078,0.058,0.058,0,0,0,.05-0.055c-0.04-.625-0.08-1.25-0.13-1.9l0.12-.185c-0.02-.145-0.03-0.3-0.04-0.455l0.27-.375-0.11-1.407,0.1-.127a0.338,0.338,0,0,0-.11-0.21,0.382,0.382,0,0,1-.03-0.482l0.05-.06V26.722c-0.06-.1-0.12-0.21-0.18-0.332l0.22-.25c0.03-.012.17,0.147,0.18-0.055-0.21-.285-0.23-0.543-0.05-0.66,0.01-.285-0.04-0.612-0.06-0.92a0.613,0.613,0,0,0-.1-0.185,0.552,0.552,0,0,1-.34.175l0.02,0.227c-0.04.093-.11,0.1-0.19,0.038a0.5,0.5,0,0,1-.13-0.175c-0.03-.317-0.05-0.63-0.08-0.925-0.06-.127-0.12-0.235-0.16-0.317l-0.03-.452a0.989,0.989,0,0,0,.11-0.25,0.3,0.3,0,0,1,.07-0.25c0.1,0.178.2,0.357,0.3,0.537,0.09,0.085.18,0.172,0.27,0.25,0.01,0.185.02,0.342,0.04,0.5a0.313,0.313,0,0,0,.06.1c0.03,0.043.09,0.03,0.09-.055-0.06-.785-0.13-1.575-0.19-2.342a0.272,0.272,0,0,0-.13-0.182,0.317,0.317,0,0,1-.17-0.233c-0.03-.395-0.07-0.785-0.09-1.16A1.212,1.212,0,0,1,1424,19.1l0.12-.21c0-.082-0.01-0.2-0.01-0.31-0.02-.22-0.02-0.225.15-0.2,0.07,0.013.12-.011,0.12-0.062l-0.52-6.633c-0.1-.2-0.22-0.412-0.33-0.612l-0.06-.712a0.367,0.367,0,0,0,.12-0.325,0.278,0.278,0,0,1,.11-0.23c0.02-.272-0.04-0.6-0.05-0.907a5.493,5.493,0,0,1-.04-0.8l0.09-.122c-0.11-1.952-.18-2.664-0.26-3.172-0.04-.162.02,0.072-0.05-0.065a1.056,1.056,0,0,0-.02.535l-0.13.185,0.02,0.227c-0.01.063-.09,0.08-0.19,0.04a0.088,0.088,0,0,0-.09.09c0.04,0.667.1,1.34,0.14,2,0.06,0.75.12,1.5,0.18,2.227l-0.21.265c-0.08-.145-0.16-0.285-0.23-0.437a1.165,1.165,0,0,1-.04-0.25l0.13-.2-0.23-2.822,0.14-.19-0.06-.7c-0.06-.115-0.12-0.222-0.18-0.335l-0.18-2.352c-0.05-.082-0.09-0.155-0.13-0.227a3.125,3.125,0,0,0-.16-0.69L1422,2.044a1.024,1.024,0,0,1-.11-0.34,3.084,3.084,0,0,0-.16-0.35c-0.02-.2-0.04-0.432-0.06-0.69l0.12-.177c-0.05-.1-0.1-0.207-0.16-0.31V0h-4.3l0.03,28.327,0.03,28.327h28.34Zm-10.37,9.01a0.131,0.131,0,0,1-.04.053,0.215,0.215,0,0,1-.07-0.178,0.085,0.085,0,0,1,.05-0.053,0.229,0.229,0,0,1,.07.185Zm-5.48-8.965a0.258,0.258,0,0,1-.2-0.163,0.166,0.166,0,0,1,.08-0.2,0.159,0.159,0,0,1,.04-0.058l0.04-.055a0.382,0.382,0,0,1,.04.48V28.367Zm-0.54-.965a0.557,0.557,0,0,1-.06-0.1c0.02-.07.06-0.082,0.09-0.038a0.279,0.279,0,0,1,.06.1c-0.02.078-.05,0.088-0.09,0.045V27.4Zm-0.01-.692a0.1,0.1,0,0,1-.05-0.015,0.357,0.357,0,0,1-.03-0.392,0.035,0.035,0,0,1,.04.014s0.01,0,.01,0a0.365,0.365,0,0,1,.03.4V26.71Zm0.9-4.249c-0.14.1-.14,0.1-0.3-0.127l-0.02-.23c0.13-.108.13-0.108,0.3,0.128Zm-0.2-2.344c-0.04.11-.13,0.02-0.2,0a0.462,0.462,0,0,1-.09-0.415,0.793,0.793,0,0,0,.09-0.212,0.374,0.374,0,0,1,.1-0.28,3.723,3.723,0,0,1,.11.907h-0.01Zm-1.69-7.058,0.2,0.09,0.12-.178,0.17,0.072a0.449,0.449,0,0,1,.08.412,0.675,0.675,0,0,0-.11.322,0.4,0.4,0,0,1-.19.312l-0.18-.09a2.455,2.455,0,0,1-.1-0.945Zm-1.01,2.424c-0.05-.552-0.09-1.1-0.14-1.667l0.13-.177-0.04-.465,0.13-.185a0.506,0.506,0,0,0-.01-0.125,0.126,0.126,0,0,1,.05-0.165,0.187,0.187,0,0,1,.1.165c0.02,0.312.05,0.625,0.06,0.927a0.27,0.27,0,0,1-.09.122,1,1,0,0,0,.18.8,3.4,3.4,0,0,1,.02.777l-0.19-.025-0.14.135a0.906,0.906,0,0,1-.07-0.125Zm-0.65.887a2.7,2.7,0,0,1-.07-0.782c0.05-.112.13-0.02,0.2,0l0.18,0.31,0.19,0.082a1.462,1.462,0,0,1,.05.707l-0.48-.212a0.34,0.34,0,0,1-.07-0.108v0Zm-1.19-.41c0.04,0,.07.027,0.11,0.125a0.124,0.124,0,0,1-.05.052c-0.03.018-.07-0.027-0.1-0.122a0.127,0.127,0,0,1,.03-0.057Zm0.93,10.555c0.14-.108.14-0.105,0.31,0.127l0.02,0.23c-0.14.095-.14,0.095-0.31-0.127Zm1.48,2.809c0.08,0.145.15,0.285,0.23,0.44a1.1,1.1,0,0,0-.09.267,0.342,0.342,0,0,1-.07.25,1.558,1.558,0,0,1-.07-0.962v0.005Zm1.11,3.561a0.345,0.345,0,0,1,.09-0.123,0.7,0.7,0,0,0,.01-0.2q-0.06-.945-0.15-1.895a0.257,0.257,0,0,0-.03-0.115,0.159,0.159,0,0,0-.13-0.14l0.02,0.337a0.1,0.1,0,0,1-.16.063,0.277,0.277,0,0,1-.14-0.25,0.212,0.212,0,0,1,.08-0.233l0.22,0.095-0.05-.587,0.13-.187-0.02-.23q-0.09-.161-0.15-0.3a0.273,0.273,0,0,0,.09-0.22,0.193,0.193,0,0,0-.11-0.127,0.17,0.17,0,0,0-.03-0.013,0.259,0.259,0,0,1-.16-0.25c0-.125-0.01-0.237-0.02-0.372-0.05-.1-0.1-0.2-0.17-0.34-0.02-.25-0.04-0.525-0.06-0.8a0.351,0.351,0,0,0-.21-0.34,0.868,0.868,0,0,1-.12-0.167c-0.01-.157-0.03-0.315-0.04-0.467,0.05-.147.18,0,0.26-0.065a1.41,1.41,0,0,0-.01-0.54c-0.01-.15-0.03-0.312-0.04-0.455l0.08-.165V24.28l0.09-.122c-0.04-.25-0.23-0.387-0.32-0.79l-0.01-.07,0.13-.185c-0.05-.1-0.11-0.212-0.17-0.315a0.451,0.451,0,0,1-.03-0.25l-0.24-.432-0.29.327c-0.21-.115-0.2-0.115-0.25-0.442a1.361,1.361,0,0,0-.17-0.317c-0.06-.865-0.13-1.732-0.2-2.6l0.13-.18-0.04-.467c-0.06-.122-0.12-0.23-0.16-0.307l-0.04-.452a0.587,0.587,0,0,0,.12-0.25,0.3,0.3,0,0,1,.07-0.25l0.18,0.287,0.38-.487,0.15,0.045,0.15-.16,0.29,0.13a0.258,0.258,0,0,0,.07-0.145c-0.04-.545-0.08-1.092-0.12-1.6l0.11-.15,0.01-.217a0.3,0.3,0,0,1,.37-0.25l0.24-.307,0.18,0.285,0.14-.152,0.14,0.065a0.52,0.52,0,0,1,.1.227c0.02,0.355.04,0.707,0.08,1.067a0.288,0.288,0,0,0,.17.232,0.2,0.2,0,0,1,.14.172l0.1,1.182-0.12.18,0.05,0.7-0.11.182c0.06,0.115.11,0.223,0.16,0.322v0.23l-0.11.14c0.01,0.123.01,0.27,0.02,0.457l-0.11.2a0.7,0.7,0,0,0,.17.52l-0.13.187,0.04,0.462-0.12.183,0.06,0.712a0.98,0.98,0,0,1,.12.222,0.3,0.3,0,0,1,.05.11c0.03,0.392.06,0.782,0.08,1.147l-0.12.147a7.369,7.369,0,0,0,.06.91c0.02,0.352.05,0.71,0.08,1.065l0.07,0.867c-0.06.16-.15,0.06-0.22,0.04a1.14,1.14,0,0,1-.09-0.222c-0.02-.123-0.01-0.238-0.03-0.357,0.03-.031,0-0.1-0.07-0.156a0.174,0.174,0,0,0-.19-0.045c-0.03.031,0,.1,0.07,0.156a0.433,0.433,0,0,0,.04.027c0.05,0.1.02,0.176-.08,0.187-0.21-.36-0.21-0.362-0.36-0.23l0.02,0.235a1.159,1.159,0,0,1,.12.215,0.86,0.86,0,0,1,.06.132l0.09,1.132a0.33,0.33,0,0,0,.22.212,0.366,0.366,0,0,1,.04.477l-0.15-.067a2.254,2.254,0,0,0,.01,1l-0.13.2,0.05,0.7c0.05,0.09.11,0.2,0.17,0.315,0.09,1.055.17,2.119,0.26,3.187a0.219,0.219,0,0,1-.04.183,0.119,0.119,0,0,1-.14-0.029,0.163,0.163,0,0,1-.06-0.069,0.7,0.7,0,0,0-.28-0.312,0.479,0.479,0,0,1-.13-0.387v0Zm-5.69-25.313c-0.01-.038-0.02-0.075-0.03-0.11-0.01-.117-0.02-0.235-0.03-0.35a7.189,7.189,0,0,1-.04-0.787c0.04-.115.13-0.022,0.2,0a1.069,1.069,0,0,1,.09.207c0.03,0.31.06,0.615,0.08,0.895l-0.21.25-0.06-.11v0Zm0.16,5.981c-0.09.125-.19,0.08-0.31-0.135,0.08-.13.19-0.085,0.3,0.13Zm-0.04,1.35c-0.01-.078-0.01-0.155-0.02-0.25-0.06-.088-0.11-0.185-0.17-0.27l-0.01-.25c0.1-.107.14-0.127,0.3,0.147,0.02,0.23.05,0.467,0.05,0.69,0,0.085-.06.088-0.09,0.04a0.221,0.221,0,0,1-.06-0.113V14.9Zm-0.13,12.679a0.146,0.146,0,0,1,.11.125,0.109,0.109,0,0,1-.04.052c-0.03.018-.07-0.027-0.11-0.122a0.163,0.163,0,0,1,.04-0.062v0.008Zm6.53,21.687a2.761,2.761,0,0,1,.03.312c0.02,0.265,0,.28-0.21.19-0.13-.227-0.26-0.467-0.4-0.72a0.442,0.442,0,0,1-.03-0.22,0.245,0.245,0,0,1,.07-0.135l0.3,0.133c0.06,0.13.14,0.27,0.23,0.435Zm-3.46-4.716c-0.15.095-.18,0.077-0.31-0.13-0.07-.1-0.12-0.192-0.18-0.3,0.14-.08.14-0.082,0.41,0.093a0.533,0.533,0,0,1,.07.33Zm3.37-5.823c0.06,0.63.1,1.25,0.15,1.882,0.06,0.107.12,0.215,0.18,0.325l0.02,0.227c0.12,0.212.24,0.425,0.33,0.587a4.924,4.924,0,0,0,.05.5c-0.05.127-.14,0.045-0.2,0.025a0.183,0.183,0,0,0-.06.225l-0.2.357a1.1,1.1,0,0,1-.08-0.135c-0.03-.392-0.07-0.785-0.12-1.2-0.04-.08-0.1-0.187-0.16-0.312l-0.13-1.624-0.18-.34-0.03-.472a1.384,1.384,0,0,1,.17-0.223,0.125,0.125,0,0,1,.14.023,0.365,0.365,0,0,1,.11.155Zm-0.25-3.092c-0.13.108-.13,0.1-0.3-0.13a1.825,1.825,0,0,1-.02-0.23c0.14-.107.14-0.107,0.31,0.128Zm-0.65-13.161c-0.03-.045-0.07-0.032-0.09.038a0.27,0.27,0,0,0,.06.1c0.03,0.045.07,0.032,0.09-.033a0.3,0.3,0,0,0-.06-0.107v0Zm0.05,0.9a0.092,0.092,0,0,0-.04.13,0.566,0.566,0,0,0,.06.1,0.092,0.092,0,0,0,.04-0.13,0.292,0.292,0,0,0-.06-0.1v0Zm-4.26,9.155a0.2,0.2,0,0,0-.04-0.057,0.06,0.06,0,0,0-.04.052,0.386,0.386,0,0,0,.17.437l-0.03-.33a0.31,0.31,0,0,0-.06-0.1v0Zm-0.36,2.4a0.172,0.172,0,0,0,.1.135,0.149,0.149,0,0,0,.05-0.057c-0.02-.155-0.03-0.309-0.04-0.462a0.171,0.171,0,0,0-.1-0.135,0.134,0.134,0,0,0-.04.058c0.01,0.152.02,0.3,0.03,0.46v0Zm0.36,1.382a0.383,0.383,0,0,0-.04-0.392,0.041,0.041,0,0,0-.04-0.019h-0.01a0.383,0.383,0,0,0,.04.392,0.1,0.1,0,0,0,.05.015v0Zm-0.19-16.963a0.165,0.165,0,0,0,.04-0.058,0.2,0.2,0,0,0-.06-0.177,0.135,0.135,0,0,0-.05.055,0.256,0.256,0,0,0,.07.18h0Zm-901.2,37.3c-0.083-.207-0.17-0.422-0.258-0.647l0.038-1.117-0.321-.81c0-.115,0-0.215.011-0.3,0.044-.4.094-0.442,0.32-0.347a0.652,0.652,0,0,1,.37.6c0.023,0.19.005,0.375,0.03,0.567a1.174,1.174,0,0,0,.108.27c0.312-.035.1-0.872,0.4-0.912l0.344,0.2a1.118,1.118,0,0,1,.111.277,1.3,1.3,0,0,0,.556,1.33,0.685,0.685,0,0,1,.141.537,0.722,0.722,0,0,1-.065.357h0.75c0.021-.625.037-1.25,0.069-1.87,0.012-.2.147-0.21,0.222-0.1a0.537,0.537,0,0,1,.1.25c0,0.38-.021.75-0.038,1.235,0.073,0.153.149,0.315,0.227,0.477h0.812c0.006-.187.011-0.37,0.02-0.547l0.527-.545c0.16,0.365.32,0.727,0.483,1.092h0.358a0.335,0.335,0,0,1,.231-0.442,1.718,1.718,0,0,0,.176.442h1.363l0.1-.14q0.107,0.066.21,0.14H531.8a1.153,1.153,0,0,1-.108-0.427,1.312,1.312,0,0,1,.01-0.282,0.429,0.429,0,0,1,.078-0.195,3.824,3.824,0,0,1,.268-0.285l0.081-2.229,0.362-.447,0.038-.542c-0.1-.25-0.212-0.53-0.321-0.807,0.026-.845.057-1.7,0.088-2.549,0.016-.432.188-0.577,0.451-0.322a0.925,0.925,0,0,1,.233.442c-0.014.957-.055,1.9-0.086,2.819l0.31,0.795-0.06,1.715-0.3.3a15.292,15.292,0,0,0-.137,2h6.058l-0.031-28.327L538.723,0H510.375L510.4,28.332l0.031,28.327h12.75Zm5.914-6.956q-0.072,2.249-.157,4.5a0.275,0.275,0,0,1-.194.143c-0.165-.365-0.32-0.712-0.466-1.037l0.116-3.564c0.129-.1.318-0.25,0.486-0.387a0.131,0.131,0,0,1,.114.085,0.722,0.722,0,0,1,.1.262h0Zm-1.822,2.362c0.019-.937.044-1.87,0.1-2.787a0.857,0.857,0,0,0,.091-0.27c0.27,0.56.43,0.895,0.567,1.182l-0.059,1.749-0.506.522A1.487,1.487,0,0,1,527.29,52.063Zm-1.177-1.5a0.831,0.831,0,0,1-.106-0.25,0.219,0.219,0,0,1,.127-0.3,1.428,1.428,0,0,1,.109.25,0.224,0.224,0,0,1-.142.292Zm0.267-4.126c-0.138.25-.307,0-0.467-0.055a1.269,1.269,0,0,1-.111-0.27,3.455,3.455,0,0,1,.031-1.282c0.144-.282.324-0.018,0.566,0.057a4.091,4.091,0,0,1-.026,1.539Zm0.994-1.547a3.921,3.921,0,0,0,.5.28,0.443,0.443,0,0,1,.279.357,0.259,0.259,0,0,1-.127.327,0.759,0.759,0,0,0-.127.125,3.247,3.247,0,0,1-.274,1.385c-0.148-.352-0.3-0.7-0.446-1.055a1.888,1.888,0,0,1,.186-1.43Zm3.087,4.249a0.778,0.778,0,0,1,.076.25c0,0.27-.014.535-0.024,0.8a0.315,0.315,0,0,1,.159.1,1.3,1.3,0,0,1,.128,1c-0.049.152-.265,0.165-0.427-0.018a2.155,2.155,0,0,1-.211-0.417,8.527,8.527,0,0,1,.078-1.737A0.151,0.151,0,0,1,530.357,49a0.244,0.244,0,0,1,.087.13Zm-0.886-2.107a2.98,2.98,0,0,1-.025.54c-0.052.188-.16,0.21-0.227,0.088a1.937,1.937,0,0,0-.362-0.685,0.842,0.842,0,0,1-.416-0.545,2.892,2.892,0,0,1,.025-0.54c0.049-.187.16-0.21,0.224-0.087a1.977,1.977,0,0,0,.365.685,0.827,0.827,0,0,1,.4.532Zm5.864,7.748a0.947,0.947,0,0,1,.041-1.145,0.916,0.916,0,0,1-.075,1.122Zm-0.747-3.626c-0.015.375-.026,0.75-0.042,1.12-0.355.22-.359,0.218-0.684-0.395l0.021-1.137c0.351-.223.354-0.223,0.683,0.392Zm-6.881-8.345c-0.136-.08-0.248-0.142-0.356-0.2a4.274,4.274,0,0,1-.056-2.142l0.5-.5c0.149,0.35.3,0.7,0.463,1.1l-0.039,1.157a2.732,2.732,0,0,1-.538.567Zm5.291,3.4c0,0.562-.028,1.107-0.059,1.915a3.744,3.744,0,0,1-.658-1.25c0.007-.19.012-0.372,0.02-0.547l0.5-.52a1.415,1.415,0,0,1,.169.38Zm-3.67-5.094-0.024.69c-0.122.1-.291,0.25-0.474,0.38-0.073.055-.154-0.068-0.227-0.312,0.019-.552.027-1.112,0.064-1.649a0.362,0.362,0,0,1,.206-0.178Zm5.492,3.189a3.175,3.175,0,0,1-.02.547,0.252,0.252,0,0,1-.119.132,0.291,0.291,0,0,1-.117-0.085,0.866,0.866,0,0,1,.041-0.935,0.154,0.154,0,0,1,.1.062,0.085,0.085,0,0,1,.009.018,0.583,0.583,0,0,1,.078.237Zm1.6-7.353a0.223,0.223,0,0,1-.128.3,1.705,1.705,0,0,1-.112-0.25,0.23,0.23,0,0,1,.133-0.3,0.749,0.749,0,0,1,.085.23ZM532.966,20.4c0.022-.847.057-1.687,0.085-2.529,0.016-.532.227-0.6,0.582-0.172a1.281,1.281,0,0,1,.114.262l-0.083,2.394c-0.128.1-.306,0.25-0.486,0.385a0.13,0.13,0,0,1-.115-0.08,0.741,0.741,0,0,1-.121-0.282Zm-0.083,2.314a0.463,0.463,0,0,1,.245-0.657c0.148,0.352.3,0.7,0.442,1.05-0.266.252-.494,0.125-0.709-0.415Zm-3.878.677,0.02-.557c0.338-.222.353-0.22,0.688,0.382l-0.02.557c-0.373.2-.374,0.2-0.71-0.4Zm2.684,3.9,0-.565a0.417,0.417,0,0,1,.256-0.177,2.64,2.64,0,0,0,.647.292,0.78,0.78,0,0,0,.166-0.68,1.945,1.945,0,0,0-.544-0.75c-0.162-.332-0.3-0.707-0.432-1.035l0.05-.577c0.364-.3.765,0.293,1.166,0.42,0.142,0.33.293,0.68,0.474,1.09a20.429,20.429,0,0,1-.081,2.359c-0.15.32-.336,0.047-0.48,0a2.832,2.832,0,0,1-.485.885l-0.271-.177c-0.194-.387-0.339-0.745-0.49-1.1Zm1.177,5.883c0.012-.365.022-0.75,0.037-1.122-0.109-.27-0.215-0.54-0.326-0.792,0.013-.395.029-0.77,0.037-1.137l0.52-.532a1.881,1.881,0,0,1,.17.477c0,0.577-.037,1.14-0.051,1.709a13.256,13.256,0,0,0-.019,1.695l0.229,0.545a10.59,10.59,0,0,1,0,1.7,1.581,1.581,0,0,0-.37,1.07c0.074,0.2.177,0.47,0.3,0.817-0.075,2.2-.156,4.469-0.227,6.748,0.04,0.177-.122.249-0.362,0.161l-0.029-.011a1.286,1.286,0,0,1-.154-0.14q-0.228-.54-0.453-1.077l0.36-.41V42.3c-0.143-.317-0.143-0.317-0.5,0a1.927,1.927,0,0,1-.17-0.5c0.011-.672.021-1.347,0.076-1.984a1.634,1.634,0,0,1,.338-0.615c-0.016.05,0.019-.015,0.022-0.1,0.046-1.23.088-2.462,0.136-3.749l0.339-.452-0.278-.75v-0.56Zm-3.776,2.779a1.314,1.314,0,0,1-.109-0.25,0.227,0.227,0,0,1,.13-0.3,0.811,0.811,0,0,1,.107.25,0.216,0.216,0,0,1-.152.28Zm1.677-2.812q0.364-.417.689,0.4c-0.275.255-.5,0.122-0.713-0.42Zm-7.129-6.433c0.244-.277.473-0.147,0.687,0.395q-0.4.385-.711-0.417Zm1.34,1.937,0.018-.56,0.36-.4c0.015-.467.042-0.932,0.041-1.412a0.389,0.389,0,0,1,.139-0.415c0.078-.023.156,0.1,0.233,0.345,0.031,0.095.073,0.18,0.111,0.27a0.328,0.328,0,0,0,.239-0.442c0.03-.347.307-0.457,0.482-0.237a0.922,0.922,0,0,1,.128.227,5.55,5.55,0,0,1,.1.832,6.185,6.185,0,0,0,.27.715l-0.317.325-0.1,1.72c-0.176.3-.351,0.06-0.5,0-0.111-.25-0.231-0.5-0.331-0.725l-0.388.32a0.831,0.831,0,0,1-.512-0.587Zm1.133,6.428-0.249-.587c-0.141-.865.082-1.607-0.011-2.5a0.582,0.582,0,0,0-.277-0.4,0.78,0.78,0,0,1-.34-0.885,1.135,1.135,0,0,1,.179-0.362l1.023,0.59a2.227,2.227,0,0,1,.158.53q-0.057,2.142-.15,4.266a0.961,0.961,0,0,1-.062.225c-0.187.272-.427-0.138-0.637-0.165A1.109,1.109,0,0,1,526.111,35.082Zm-1.062.967a1.553,1.553,0,0,1,.215-1.115,1.838,1.838,0,0,0,.5.867l-0.048.795c-0.142.3-.34,0.22-0.594-0.093a0.721,0.721,0,0,1-.078-0.455h0.01Zm1.3,3.944c0.074,0.178.146,0.352,0.221,0.527a0.726,0.726,0,0,1,0,.2c-0.15.2-.307,0.382-0.471,0.587a5.855,5.855,0,0,1,.077-2.929A4.137,4.137,0,0,1,526.346,39.994Zm-3.655,3.079,0.364-.407q0.128-3.7.268-7.363a0.226,0.226,0,0,1,.252-0.17,0.728,0.728,0,0,1,.417.812l-0.266,7.64a1.233,1.233,0,0,1-.624.59A0.942,0.942,0,0,1,522.691,43.073Zm2.972,5.181,0.017-.557c0.355-.2.355-0.2,0.688,0.41l-0.02.557C525.983,48.864,525.983,48.864,525.663,48.254Zm-5.475-3.719,0.058-1.717,0.529-.537c0.11,0.237.225,0.477,0.35,0.75l0.32,0.182a2.341,2.341,0,0,1,.164.542,1.97,1.97,0,0,1-.345,1.335c-0.026.06-.029,0.16-0.05,0.23-0.176.585-.177,0.582-0.566,0.3-0.143-.365-0.306-0.727-0.458-1.087Zm2.747,7.108,0.326,0.187a0.234,0.234,0,0,0,.106-0.357c-0.192-.452-0.381-0.9-0.571-1.357l0.048-1.31,0.728-.695,0.042-.5,0.511-.525a1.988,1.988,0,0,1,.159.835,5.106,5.106,0,0,0,.275.867l-0.312.392a0.787,0.787,0,0,0,.4.545,1.711,1.711,0,0,1,.257.432l-0.04,1.125c0.113,0.28.219,0.55,0.322,0.787-0.024.6-.041,1.162-0.059,1.7a0.2,0.2,0,0,1-.3.12,0.714,0.714,0,0,1-.379-0.6l0.064-1.632c-0.068-.163-0.106-0.25-0.143-0.342a0.537,0.537,0,0,0-.2.27c-0.04.457-.03,0.95-0.066,1.41a0.913,0.913,0,0,1-.179.362c-0.338-.2-0.682-0.392-1.023-0.59a0.944,0.944,0,0,1,.034-1.13Zm-2.62-.63a1.193,1.193,0,0,1,0-.275c0.012-.355.119-0.525,0.239-0.36a0.661,0.661,0,0,1,.1.54,2.045,2.045,0,0,1-.014.27c-0.066.17-.156,0.2-0.229,0.087a0.742,0.742,0,0,1-.1-0.257Zm18.494,33.968h28.34l-0.031-28.327H538.783Zm4.741-.6a0.2,0.2,0,0,1-.116-0.05,0.891,0.891,0,0,1,.024-0.947,0.094,0.094,0,0,1,.093.028,0.14,0.14,0,0,1,.023.025A0.88,0.88,0,0,1,543.55,84.384Zm1.624-3.312c0,0.377-.02.75-0.032,1.122,0.107,0.267.216,0.535,0.329,0.8,0,0.19-.01.375-0.018,0.56-0.371.2-.371,0.2-0.681-0.425,0.023-.75.038-1.5,0.086-2.232,0.013-.2.15-0.2,0.227-0.08a0.609,0.609,0,0,1,.087.255Zm-1.31-2.374a0.694,0.694,0,0,1-.2.615,1.915,1.915,0,0,1-.139-1.092,0.689,0.689,0,0,1,.2-0.615A1.925,1.925,0,0,1,543.864,78.7Zm-1.577-5.126c0.246-.277.475-0.145,0.692,0.4-0.255.265-.474,0.142-0.693-0.4v0Zm5.052,5.821a2.866,2.866,0,0,1-.022.545c-0.051.188-.16,0.21-0.226,0.088a1.994,1.994,0,0,0-.365-0.685,0.841,0.841,0,0,1-.416-0.545c0.039-.865.049-0.872,0.589-0.452Zm-3.387-4.786c-0.139.25-.308,0-0.47-0.055a1.268,1.268,0,0,1-.111-0.27A3.492,3.492,0,0,1,543.4,73c0.145-.282.325-0.02,0.567,0.058a4.17,4.17,0,0,1-.015,1.552h0Zm-0.923-2.2c-0.033.625-.087,0.657-0.654,0.345a4.915,4.915,0,0,1,.2-2.249c0.146,0.38.285,0.737,0.46,1.187,0,0.17,0,.452,0,0.717h0Zm0.783-2.019c-0.021.56-.034,1.122-0.064,1.677a0.171,0.171,0,0,1-.119.132c-0.083.03-.158-0.1-0.219-0.34,0.018-.56.035-1.122,0.061-1.677a0.179,0.179,0,0,1,.122-0.133c0.068-.03.146,0.1,0.207,0.337ZM542.8,65.9a0.258,0.258,0,0,1-.114-0.085,0.874,0.874,0,0,1,.038-0.935,0.15,0.15,0,0,1,.1.062,0.094,0.094,0,0,1,.01.019,0.621,0.621,0,0,1,.094.25,3.112,3.112,0,0,1-.018.55,0.261,0.261,0,0,1-.128.14H542.8Zm0.974,0.652-0.333-.192a0.952,0.952,0,0,1,.032-1.147c0.109,0.065.22,0.129,0.335,0.192a0.945,0.945,0,0,1-.052,1.147h0.018Zm-1.194-5.933a0.948,0.948,0,0,1-.04,1.145,0.967,0.967,0,0,1,.023-1.145h0.017ZM425.43,56.656l0.009,28.325h28.343l-0.031-28.327h-28.34ZM441.6,59.206a1.548,1.548,0,0,1,.709.25,0.535,0.535,0,0,1,.288.447c0.079,0.207-.045.331-0.289,0.29l-0.522-.25c-0.528-.437-0.254-0.542-0.205-0.74Zm-1.207,3.5c-0.022-.112.086-0.155,0.242-0.095a0.617,0.617,0,0,1,.119.062,0.336,0.336,0,0,1,.205.261,0.077,0.077,0,0,1-.016.034,0.243,0.243,0,0,1-.011.112,0.384,0.384,0,0,1-.35-0.08,0.778,0.778,0,0,1-.18-0.172,0.224,0.224,0,0,1-.03-0.13Zm-0.042,3.531a1.39,1.39,0,0,1,0-.232c-0.193-.19-0.372-0.367-0.544-0.535l0.042-.225,0.385,0.017a0.331,0.331,0,0,0,.119-0.162l0.014-.81,0.443,0.017a0.7,0.7,0,0,1,.388-0.712l0.8,0.762a4.6,4.6,0,0,0,.014.707,1.694,1.694,0,0,0,.308.282,3.113,3.113,0,0,1,.394.02,2.04,2.04,0,0,1,.735.35,0.37,0.37,0,0,1,.187.3c0,0.687-.016,1.375-0.028,2.149-1.148-.482-2.119-1.03-2.923-1.387a0.557,0.557,0,0,1-.34-0.538A0.023,0.023,0,0,0,440.348,66.236Zm7.317,6.906,0.784,0.735-0.482.025c-0.19.082,0.256,0.58-.331,0.45l-0.519-.25c-0.425-.5-0.425-0.5.2-0.477,0.24-.093-0.211-0.592.337-0.492ZM450.632,76l0,1.175-0.464-.03a0.144,0.144,0,0,0-.077.07c-0.005.447-.012,0.892-0.009,1.365l-0.5.023-0.058.2,0.522,0.522h-0.545l-0.03,3.222a4.381,4.381,0,0,1-.42-0.137l-2.444-1.2a2.181,2.181,0,0,1-.227-0.155,0.89,0.89,0,0,1-.166-0.17l0-.962h0.565l0.021-2.167,0.485-.02c-0.1-.093-0.162-0.155-0.224-0.213-0.336-.342-0.437-0.532-0.176-0.5a0.678,0.678,0,0,0,.581-0.233,0.8,0.8,0,0,1,.189.05l0.384,0.36a0.447,0.447,0,0,0,.376.115c0.008-.567.016-1.135,0.023-1.772l1.08,0.145c0.076-.36.081-0.367,0.8,0a0.815,0.815,0,0,1,.288.29Zm-1.589-2.8-0.833-.035-0.527-.25a1.419,1.419,0,0,1-.268-0.317l-0.01-1.39a1.562,1.562,0,0,1,.853.272c0.187,0.195.406,0.427,0.763,0.8,0.107,0.285-.068.55,0.026,0.91ZM446.32,68.9A0.26,0.26,0,0,1,446,68.854l-0.009-.006a1.411,1.411,0,0,1-.195-0.18v-0.48l-0.543-.527,0-.475a1.056,1.056,0,0,1,.671.2,1.5,1.5,0,0,1,.4.317,7.877,7.877,0,0,1-.011,1.192ZM442.3,61.19a1.3,1.3,0,0,1,.745.52l-0.744-.03c-0.386-.442-0.386-0.442-0.006-0.5Zm5.681,7.076a1.6,1.6,0,0,1-1.087-.54l0.01-.24a1.61,1.61,0,0,1,1.09.54Zm-2.5-3.846q-0.378-.317-0.724-0.652l0.016-.75a1.593,1.593,0,0,1,1.088.527l0.006,0.25,0.542,0.522,0,0.475a1.388,1.388,0,0,1-.928-0.38ZM447.9,66.3a1.773,1.773,0,0,1-.724-0.27,1.239,1.239,0,0,1-.19-0.182,0.786,0.786,0,0,1,.016-0.8,0.421,0.421,0,0,1,.18,0l0.747,0.7a0.428,0.428,0,0,1-.033.542Zm-0.431-3.431a1.891,1.891,0,0,1-.92-0.382,0.824,0.824,0,0,1-.15-0.165l-0.006-.845c-0.034-.1.046-0.153,0.178-0.112l0.02,0.007a0.908,0.908,0,0,1,.379.277l0.511,0.5Zm1.12-2.154-0.006.25-0.828-.073a0.494,0.494,0,0,1-.242-0.23,7.386,7.386,0,0,1,.009-1.192,0.279,0.279,0,0,1,.332.058,1.6,1.6,0,0,1,.193.18l0,0.477c0.172,0.165.352,0.34,0.539,0.522ZM447.52,58.4a0.123,0.123,0,0,1-.077.063,1.66,1.66,0,0,1-.752-0.275,0.9,0.9,0,0,1-.167-0.167,1.921,1.921,0,0,1,.008-1.3,0.383,0.383,0,0,1,.182,0l0.538,0.262a1.386,1.386,0,0,1,.264.317c0.012,0.375.007,0.732,0,1.09Zm923.86-1.807c-0.17-.185-0.21-0.373-0.09-0.45a0.56,0.56,0,0,0,.26-0.38,0.162,0.162,0,0,1,.09,0c0.07,0.087.13,0.177,0.19,0.25a0.162,0.162,0,0,0,.09.057,0.08,0.08,0,0,0,.09-0.04l-0.04-1.782,0.53-.133c0.02-.38.02-0.39,0.38-0.217a0.462,0.462,0,0,1,.16.25l0.05,1.175-0.23.1a0.145,0.145,0,0,0-.03.09l0.04,1.15h16.17l-0.03-28.327h0L1388.97,0h-28.34l0.03,28.327,0.02,28.327h10.75a0.311,0.311,0,0,0-.05-0.073v0.008Zm-0.78-27.03a2.358,2.358,0,0,0,.25-0.127,0.132,0.132,0,0,1,.19,0,0.288,0.288,0,0,1,.11.25c-0.01.11,0,.235,0,0.355-0.24.075-.25,0.073-0.54-0.23C1370.61,29.731,1370.6,29.654,1370.6,29.564Zm0.29,0.862a0.123,0.123,0,0,1,.18-0.015l0.38,0.5-0.36.165a0.759,0.759,0,0,1-.17-0.177C1370.9,30.746,1370.9,30.581,1370.89,30.426Zm0.41,3.734-0.08-2.085a0.2,0.2,0,0,1,.04-0.08,0.391,0.391,0,0,1,.37.092l0.4,0.525,0.02,0.25-0.26.138,0.03,0.97c0.09,0.13.18,0.25,0.28,0.382l-0.39.177-0.27-.125a0.829,0.829,0,0,1-.14-0.245h0Zm-2.21-1.25c-0.03-.25-0.02-0.475-0.03-0.665a0.311,0.311,0,0,1,.39.04l0.3-.11c0.12,0.165.24,0.337,0.37,0.542a1.144,1.144,0,0,1-.05,1.05l-0.1-.11-0.18-.25-0.53-.25a0.958,0.958,0,0,1-.17-0.247h0Zm-1.09.02,0.44-.13c0.15,0.212.28,0.385,0.38,0.532l0.04,0.275c0.07,0.088.13,0.175,0.2,0.27a1.143,1.143,0,0,1,.05.537c-0.11.127-.26-0.013-0.39-0.053-0.24-.2-0.05-0.412-0.3-0.607l-0.28.087a1.626,1.626,0,0,1-.14-0.91v0Zm2.36,4.274a3.623,3.623,0,0,1-.05-1.3,0.13,0.13,0,0,1,.09-0.043l0.27,0.125a0.858,0.858,0,0,1,.14.25l0.04,1.092a0.125,0.125,0,0,1-.03.083c-0.09.1-.24-0.038-0.37-0.08a0.494,0.494,0,0,1-.09-0.125h0Zm0.58,2.389c-0.03-.407-0.04-0.8-0.04-1.195-0.02-.055.03-0.08,0.1-0.055a0.319,0.319,0,0,1,.06.027,1.132,1.132,0,0,1,.1.13l0.01,0.48,0.28,0.387,0.01,0.25-0.4.14a0.219,0.219,0,0,1-.12-0.163v0Zm-0.48,1.944-0.04-.842a0.111,0.111,0,0,1,.1-0.157,0.346,0.346,0,0,1,.19.18l0.27,0.367,0.03,0.73a0.4,0.4,0,0,1-.42-0.106,0.248,0.248,0,0,0-.05-0.044,1.02,1.02,0,0,1-.08-0.127h0Zm1.65,9.282c0.07,0.275-.01.587,0.05,0.925l-0.4.182-0.28-.125a1.155,1.155,0,0,1-.14-0.25l-0.05-1.392a0.349,0.349,0,0,1,.42.053c0.1,0.15.22,0.325,0.41,0.61Zm-0.77-5.683a0.4,0.4,0,0,1-.36-0.082,0.518,0.518,0,0,1-.09-0.132,1.488,1.488,0,0,1-.03-0.8,0.147,0.147,0,0,1,.09-0.043l0.39,0.515a0.864,0.864,0,0,1,.01.55ZM1368,39.669c0.09-.1.24,0.04,0.36,0.078a0.492,0.492,0,0,1,.16.375,0.281,0.281,0,0,1-.13.365l-0.26-.123a0.636,0.636,0,0,1-.12-0.695H1368Zm2.23,3.232,0.02,0.25,0.28,0.382,0.01,0.477a0.33,0.33,0,0,1-.44-0.12c-0.14-.153-0.27-0.307-0.39-0.462l-0.02-.762c0.26-.065.26-0.065,0.55,0.237Zm-1.81-1.435a0.493,0.493,0,0,1,.39.327l-0.37.163c-0.19-.225-0.2-0.435-0.01-0.487Zm2.47,5.119c0.28-.043.28-0.043,0.55,0.25l0.01,0.25c-0.27.043-.27,0.043-0.54-0.25Zm-0.26.362c0.03,0.408.04,0.81,0.04,1.2,0,0.085-.1.082-0.16,0.03a1.132,1.132,0,0,1-.1-0.13l-0.01-.48-0.28-.387-0.02-.477c0.03-.078.18-0.066,0.33,0.028a0.546,0.546,0,0,1,.2.215v0Zm-3.07-3.454c0-.153.08-0.213,0.17-0.128a0.228,0.228,0,0,1,.11.25V43.73a0.106,0.106,0,0,1-.18,0,0.326,0.326,0,0,1-.09-0.125A0.224,0.224,0,0,1,1367.56,43.493Zm0.12,3.544a1.733,1.733,0,0,0-.01-0.233c-0.1-.14-0.19-0.27-0.28-0.395l0.01-.238,0.19-.085a1.058,1.058,0,0,0,.05-0.192l-0.03-.815,0.22-.095a1.43,1.43,0,0,1,.16-0.815c0.13,0.175.25,0.347,0.42,0.555,0.01,0.22.01,0.457,0.03,0.7a0.891,0.891,0,0,0,.15.205,1.019,1.019,0,0,1,.19-0.083,0.516,0.516,0,0,1,.37.16,0.332,0.332,0,0,1,.1.25l0.07,2.159q-0.72-.285-1.44-0.63a0.582,0.582,0,0,1-.21-0.467Zm3.67,5.576a0.679,0.679,0,0,1,.15-0.567c0.12,0.17.25,0.34,0.4,0.532l-0.23.148a0.52,0.52,0,0,1-.14.537l-0.27-.123C1371.03,52.763,1371.03,52.758,1371.35,52.613Zm301.08-24.283h0L1672.39,0h-28.34l0.03,28.327,0.03,28.327h28.34Zm-14.06-3.561h-0.33a1.908,1.908,0,0,1-.36-0.335V24.091a0.583,0.583,0,0,1,.45.207c0.08,0.078.17,0.152,0.23,0.212Zm0.54-6.871a0.256,0.256,0,0,1-.15-0.108,0.134,0.134,0,0,1,.07,0,0.215,0.215,0,0,1,.15.106v0a0.212,0.212,0,0,1-.06,0Zm0.18-1.3a1.327,1.327,0,0,0-.21.03c-0.14-.131-0.17-0.272-0.07-0.315a0.35,0.35,0,0,1,.27.046c0.17,0.195.17,0.222,0.02,0.237ZM1655.99,13l0.24-.02-0.01-.527c0.01-.073.11-0.084,0.23-0.024a1.043,1.043,0,0,1,.22.176c0.01,0.318.01,0.627,0.02,0.937,0.08,0.08.15,0.157,0.23,0.237l0.01,0.225c0.08,0.087.15,0.162,0.21,0.222l0.01,0.707a1.751,1.751,0,0,1-.57-0.2l-0.32-.357a1.9,1.9,0,0,1-.02-0.2l0.22-.037a0.835,0.835,0,0,1-.22-0.22v-0.34c-0.08-.08-0.15-0.155-0.24-0.25Zm-2.85-1.25,0.33,0.317v0.125h-0.33a1.629,1.629,0,0,1-.35-0.345C1652.82,11.738,1652.96,11.7,1653.14,11.751Zm-0.34,1.417,0.01-.25a2.421,2.421,0,0,1,.59.25,0.455,0.455,0,0,1,.08.085c0.01,0.195.01,0.387,0.01,0.585l-0.23.02v0.11a0.121,0.121,0,0,1-.08,0,0.2,0.2,0,0,1-.14-0.085c0-.008-0.01-0.015-0.01-0.023a3.676,3.676,0,0,1-.01-0.467c-0.07-.075-0.14-0.142-0.22-0.23v0Zm1.35-1.625a1.6,1.6,0,0,0,.23,0,0.56,0.56,0,0,1,.31.082,0.254,0.254,0,0,1,.15.194s-0.01.006-.01,0.008l0.01,0.277a0.567,0.567,0,0,0,.2.16c0.24,0.13.25,0.14,0.25,0.25v0.117a0.236,0.236,0,0,1-.11.04,0.1,0.1,0,0,0-.12.095,0.191,0.191,0,0,1-.12.033l-0.22-.1c-0.06-.016-0.11,0-0.11.045a0.557,0.557,0,0,0,.01.18,0.591,0.591,0,0,0,.13.127,0.6,0.6,0,0,1,.55.205v0.5l0.6,0.315a0.518,0.518,0,0,1,.08.085v0.462l-0.41.023a2.416,2.416,0,0,0,.42.447l-0.7.04,0.01,0.235a0.411,0.411,0,0,0-.17.013,0.226,0.226,0,0,1-.25.127,0.181,0.181,0,0,1-.24.133,0.064,0.064,0,0,0-.01.045c-0.1.123-.16,0.1-0.46-0.14,0.01-1.31-.01-2.644-0.02-4v0.005Zm-1.34,2.789h0.31a0.254,0.254,0,0,1,.08.04,0.162,0.162,0,0,1,.06.072c0.01,0.117.01,0.232,0.01,0.347a0.542,0.542,0,0,1-.44-0.186c-0.01-.007-0.01-0.014-0.02-0.022V14.333Zm-0.61,4.084-0.04-.16,0.46,0.025V18.015l0.21-.023c-0.07-.075-0.13-0.147-0.2-0.217a1.021,1.021,0,0,0,.18,0c0.07,0,.07-0.063.02-0.13-0.01-.009-0.01-0.017-0.02-0.025a0.958,0.958,0,0,1-.26-0.37,0.278,0.278,0,0,0-.07-0.058,0.33,0.33,0,0,1-.24-0.023c-0.14-.087-0.07-0.132-0.09-0.195a3.555,3.555,0,0,1,.83.31,0.14,0.14,0,0,0,.08-0.018V16.455c-0.09-.09-0.17-0.168-0.22-0.225l-0.01-.25h0.18a0.261,0.261,0,0,1,.15-0.25,0.343,0.343,0,0,1,.12.207,2.049,2.049,0,0,0,.22.25c0,0.172,0,.365.01,0.565a0.261,0.261,0,0,0,.14.122c0.15,0.075-.03,0,0.08,0V16.53c0.09-.068.38,0.142,0.47,0.077l-0.01-.112a0.429,0.429,0,0,1,.46.282,0.179,0.179,0,0,0,.02.065,0.614,0.614,0,0,0,.09.085l1.14,0.527h0.25c0.18,0.18.36,0.362,0.56,0.557a0.2,0.2,0,0,0,.01.107,0.225,0.225,0,0,0,.14.113l0.01,0a0.11,0.11,0,0,0,.08,0,0.224,0.224,0,0,0,0-.115,0.246,0.246,0,0,1,.09,0,0.414,0.414,0,0,1,.37.285,0.908,0.908,0,0,1,0,.165c0.07,0.067.13,0.12,0.18,0.172a0.3,0.3,0,0,1,.05.07l0.01,0.695c-0.16-.027-0.26.022-0.27,0.128l-0.4.023c-0.03.132-.03,0.132-0.29,0.05a0.775,0.775,0,0,0-.1-0.027,0.424,0.424,0,0,0-.08,0v0.115l-0.24.023,0.02,0.122,0.32,0.31,0.91,0.415c0.08,0.08.16,0.157,0.25,0.237l1.37,0.627a0.4,0.4,0,0,1,.12.207,1.258,1.258,0,0,0,.2.237l0.02,0.117-0.23.022c0,0.192,0,.387.01,0.582l-0.24.023,0.01,0.7-0.23.025,0.02,0.128c0.29,0.295.29,0.307,0.02,0.332-0.12.04,0.1,0.282-.17,0.237-0.3-.142-0.3-0.145-0.32-0.322-0.1-.092-0.2-0.195-0.32-0.315l-0.31-.155c-0.24-.117-0.29-0.16-0.29-0.25,0-.215,0-0.43-0.01-0.65a0.344,0.344,0,0,0-.08-0.075c-0.06-.036-0.12-0.039-0.13-0.006v0.006c0,0.347.01,0.7,0.01,1.047a0.227,0.227,0,0,1-.09,0,0.949,0.949,0,0,1-.22-0.09,0.425,0.425,0,0,1-.14-0.137c-0.01-.22-0.01-0.435-0.01-0.65a0.207,0.207,0,0,0-.1-0.14,0.114,0.114,0,0,0-.12.023c0.01,0.071-.05.1-0.15,0.08l-0.2-.092a0.455,0.455,0,0,1-.08-0.08,2.355,2.355,0,0,0-.04-0.25,1.037,1.037,0,0,0-.13-0.13,0.281,0.281,0,0,0-.1.352l-0.22.023c-0.02.043,0.05,0.15-.08,0.115a0.714,0.714,0,0,1-.24-0.192c-0.02-.025-0.05-0.051-0.07-0.078s-0.03-.047-0.06-0.085l0.01-.332a0.579,0.579,0,0,0-.2-0.15,0.422,0.422,0,0,1-.25-0.195V21.114a0.8,0.8,0,0,0-.03-0.3c-0.14-.135-0.28-0.265-0.42-0.407l-0.01-.225c-0.07-.08-0.15-0.157-0.24-0.25V19.822l0.23-.023V19.687c-0.08-.082-0.15-0.16-0.22-0.23a0.383,0.383,0,0,0-.11-0.332h-0.25c-0.15-.145-0.31-0.295-0.46-0.442a0.289,0.289,0,0,0-.11,0c0,0.232.01,0.467,0.02,0.71,0.07,0.065.14,0.145,0.22,0.222v0.232a0.4,0.4,0,0,1-.3-0.08,0.388,0.388,0,0,1-.16-0.137,1.986,1.986,0,0,1,0-.345c-0.07-.068-0.12-0.12-0.19-0.187-0.02-.092-0.04-0.192-0.07-0.295Zm-0.03.622c-0.01-.048.02-0.075,0.08-0.062a0.328,0.328,0,0,1,.16.112c0.07,0.069.15,0.136,0.22,0.2,0.01,0.12,0,.212.01,0.312,0.02,0.049-.02.075-0.08,0.063a0.332,0.332,0,0,1-.16-0.11,3.008,3.008,0,0,0-.22-0.207,3.056,3.056,0,0,0-.01-0.312v0Zm0.01,0.8a0.128,0.128,0,0,1,.13-0.167c0.1,0.1.2,0.2,0.29,0.307,0.07,0.084.06,0.157-.02,0.164a0.213,0.213,0,0,1-.06,0c-0.31-.138-0.33-0.165-0.34-0.3v0Zm0.01,0.44a0.534,0.534,0,0,1,.43.19,0.041,0.041,0,0,1,.02.023V20.6a0.534,0.534,0,0,1-.43-0.189,0.042,0.042,0,0,1-.02-0.023V20.277Zm0.05,5.054a1.875,1.875,0,0,0,.22,0,0.178,0.178,0,0,1,.16.037,0.133,0.133,0,0,1,.08.133,0.485,0.485,0,0,0,0,.17,0.536,0.536,0,0,1-.44-0.183c-0.01-.008-0.01-0.017-0.02-0.025V25.33ZM802.827,55.389c-0.231-.05-0.508-0.1-0.915-0.163,0.258-.02.486-0.042,0.733-0.047a0.844,0.844,0,0,1,.251.115h0c-0.06-.77-0.1-1.542-0.123-2.3a0.582,0.582,0,0,1,.377.04,1.324,1.324,0,0,1,.638.437c0.025,0.362.047,0.722,0.066,1.062l-0.449.07a2.472,2.472,0,0,1,.466.537c0.156,0.281.07,0.49-.207,0.5a3.344,3.344,0,0,0-.712-0.23,0.179,0.179,0,0,0-.04.155l1.022,0.822,0.016,0.262H822.2l-0.031-28.327L822.138,0H793.8l0.028,28.327,0.031,28.327h6.105L799.9,55.642a1.291,1.291,0,0,1,1.014.463l0.032,0.037,0.009,0.25c0.1,0.095.185,0.182,0.278,0.272h0.925a2.639,2.639,0,0,1,.66-1.277Zm2.9-45.757c-0.064-.087,0-0.15.194-0.077q0.494,0.2.99,0.447a0.626,0.626,0,0,1,.3.6c0.042,0.155-.058.245-0.245,0.22l-0.5-.23a3.377,3.377,0,0,1-.276-0.325,2.525,2.525,0,0,0-.11-0.29C806,9.872,805.832,9.752,805.73,9.632Zm-4.275,5.4,0.023-.25,0.7-.047a4.494,4.494,0,0,1,.828.837,1.466,1.466,0,0,1-.037.75,0.4,0.4,0,0,0-.417.115c0.032,0.148-.078.226-0.267,0.19l-0.512-.247c-0.446-.425-0.878-0.84-1.31-1.25Zm2.029,23.948a0.337,0.337,0,0,1,.169-0.015l0.5,0.23a0.48,0.48,0,0,1,.292.474,0.131,0.131,0,0,1-.067.058,1.467,1.467,0,0,0-.4.115,0.224,0.224,0,0,1-.258.21,1.3,1.3,0,0,1-.178-0.172,1.07,1.07,0,0,1-.063-0.9Zm0.5,13.639a2.277,2.277,0,0,1,.176.17c0.064,0.087.011,0.125-.164,0.1a0.986,0.986,0,0,1-.168-0.163c-0.075-.092-0.015-0.127.155-0.107v0Zm415,4.039-0.03-28.327L1218.92,0h-28.34l0.03,28.327,0.03,28.327h28.34v0Zm-15.15-15.351h0.43l0.08-.585c-0.13-.147-0.26-0.29-0.38-0.422V40.1c-0.12-.14-0.23-0.27-0.34-0.395h0.34c0.23-.25.05-0.727,0.26-0.985h0.31a1.087,1.087,0,0,0,.14-0.547,9.98,9.98,0,0,0-.76-0.865c0.05-.385.1-0.777,0.15-1.167a0.193,0.193,0,0,1,.12-0.015,7.441,7.441,0,0,1,1.38.7,0.229,0.229,0,0,1,.13.25c-0.12.882-.24,1.772-0.36,2.662,0.12,0.138.25,0.28,0.38,0.425l-0.13.982h-0.43l-0.06.387c0.13,0.148.25,0.28,0.36,0.41-0.27,0-.53-0.023-0.79-0.027-0.11.024-.12,0.144-0.01,0.277,0.16,0.188.41,0.395,0.18,0.5h-0.36c-0.05.377-.09,0.775-0.15,1.157a0.425,0.425,0,0,1-.3-0.032,1.24,1.24,0,0,1-.52-0.37Zm-10.05-6.523a0.464,0.464,0,0,1,.35.113c0.07,0.039.13,0.074,0.2,0.1,0.29,0.285.26,0.415-.07,0.4q-0.165-.2-0.36-0.4c-0.12-.13-0.17-0.2-0.11-0.215Zm1.46,1.647-0.37-.417,0.21-1.582,0.63,0.022,0.51,0.25c0.12,0.138.28,0.327,0.44,0.517,0.08,0.133.06,0.239-.07,0.25h-0.34c-0.11.767-.21,1.557-0.33,2.337a0.469,0.469,0,0,1-.25,0c-0.18-.195-0.36-0.387-0.54-0.58Zm-0.19,1.38a1.071,1.071,0,0,1,.8.412c0.01,0.008.01,0.015,0.02,0.023l-0.07.585a1.071,1.071,0,0,1-.8-0.412,0.041,0.041,0,0,1-.02-0.023Zm7.61,13.786,0.4,0.207c0.27,0.347.27,0.35-.05,0.4l-0.4-.207c-0.27-.35-0.27-0.35.05-0.4v0ZM878.823,0H850.48l0.031,28.327h28.343Zm-17.8,15.613a2.087,2.087,0,0,1-.029-1.912A2.087,2.087,0,0,1,861.021,15.618ZM855.79,1.989c0.228,0.462.405,1.057,0.582,1.527,0.064,1.365.068,1.375,0.647,1.7,0.295,0.75.624,1.547,0.932,2.347l0.331,0.155,1.616,4.059c0,1.31,0,1.317-.579,1.15-0.147-.35-0.308-0.73-0.474-1.13l-0.431-.25c-0.153-.375-0.306-0.765-0.472-1.165-0.416-.2-0.841-0.395-1.274-0.6l-1.546-4.059-0.059-3.784c0.208-.46.468-0.477,0.728,0.05v0ZM312.072,84.981h28.345l-0.031-28.327H312.033Zm18.111-22.939a0.377,0.377,0,0,1,.591.017,1.481,1.481,0,0,1,.279.385,0.385,0.385,0,0,1-.593-0.015A2.6,2.6,0,0,1,330.183,62.042Zm1.239,3.147a0.613,0.613,0,0,1-.01-0.2c0.107-.235.564-0.022,0.7,0.327a0.342,0.342,0,0,1,0,.195c-0.1.248-.556,0.032-0.69-0.32h0Zm1.489,5.966a0.388,0.388,0,0,1,.6-0.017,3.009,3.009,0,0,1,.319.415c-0.007.5-.009,1,0,1.517a0.385,0.385,0,0,1-.595.02,3.1,3.1,0,0,1-.319-0.415q0-.76,0-1.52h0Zm-0.89,11.209a0.4,0.4,0,0,1,.292-0.11,0.792,0.792,0,0,1,.589.542,0.662,0.662,0,0,1-.289.115,0.825,0.825,0,0,1-.594-0.55ZM312.014,28.332L312,4.5h-0.02c-0.856-.407-1.74-0.8-2.618-1.265a2.4,2.4,0,0,1-.487-0.67l2.206-.835,0.887,0.422L312,2.207,311.985,0h-28.34l0.031,28.327,0.029,28.327h28.332l-0.031-28.327h0.008Zm-3.085-23.2c-0.1-.243.035-0.393,0.315-0.355a1.394,1.394,0,0,1,.279.385c0.109,0.246-.025.4-0.309,0.355a2.376,2.376,0,0,1-.284-0.387v0Zm1.971,6.013a0.563,0.563,0,0,1,.3.125c0.472,0.594.482,1.134,0.023,1.292a1.051,1.051,0,0,1-.309-0.123c-0.464-.6-0.471-1.133-0.017-1.3v0Zm-7.59-8.822a0.42,0.42,0,0,1,.292-0.107,0.788,0.788,0,0,1,.589.542,0.664,0.664,0,0,1-.286.115A0.831,0.831,0,0,1,303.31,2.324Zm4.573,12.247q-0.029-1.532,0-3.039a0.285,0.285,0,0,1,.292-0.127,0.5,0.5,0,0,1,.3.142,8.186,8.186,0,0,0,.647.822c0.236,0.217.569,0.315,0.822,0.525a6.674,6.674,0,0,1,.662.73l0,1.519a4,4,0,0,1-1.28.437,3.664,3.664,0,0,1-1.113-.5,2.126,2.126,0,0,1-.334-0.515v0.005Zm-2.737,1.085a0.421,0.421,0,0,1,.293-0.11,0.793,0.793,0,0,1,.586.542,0.663,0.663,0,0,1-.286.115,0.843,0.843,0,0,1-.594-0.552v0.005Zm-1.521-1.75a0.648,0.648,0,0,1,.3.165,1.118,1.118,0,0,1,.293.4,2.243,2.243,0,0,1,0,.75,0.442,0.442,0,0,1-.3.125,1.247,1.247,0,0,1-.306-0.17c-0.469-.6-0.467-1.136.005-1.285Zm4.266,4.674a0.292,0.292,0,0,1,.265-0.155,0.764,0.764,0,0,1,.627.52q0.422,0.568.913,1.132c0,1.4,0,2.669-.011,3.931a0.3,0.3,0,0,1-.265.155,0.766,0.766,0,0,1-.63-0.522q-0.423-.573-0.917-1.142c0-1.4-.009-2.672.011-3.931Zm-7.929-.935a1.848,1.848,0,0,1,.921.925,3.88,3.88,0,0,1,.313.41l0.293,0.4c-0.907.06-.907,0.06-1.821-0.875a0.623,0.623,0,0,1,.277-0.875ZM311.556,53.41c-0.008.25,0,.517,0,0.775,0,0.122-.026.235-0.039,0.345a1.263,1.263,0,0,1-1.274-.25l-1.228.4a2.249,2.249,0,0,0-.2,1.422c0.035,0.332-.327.434-0.808,0.228-0.035-.015-0.07-0.031-0.1-0.048-0.152-.067-0.3-0.142-0.671-0.317A5.721,5.721,0,0,1,307,53.7a2.562,2.562,0,0,1,.186-0.725l1.276,0.38,1.248-.47c-0.3-.407-0.583-0.82-0.874-1.227a0.452,0.452,0,0,1,.316-0.1q0.881,0.319,1.773.72a1.113,1.113,0,0,1,.617,1.127Zm-9.289-14.851a0.653,0.653,0,0,1-.3.1,0.573,0.573,0,0,1-.309-0.65,0.4,0.4,0,0,1,.292-0.11,0.581,0.581,0,0,1,.3.642Zm5.482,5.718a0.675,0.675,0,0,1-.3.105,0.57,0.57,0,0,1-.308-0.65,0.4,0.4,0,0,1,.291-0.11,0.581,0.581,0,0,1,.294.642Zm1.055-8.94a0.9,0.9,0,0,1,.009.377c0.14,0.3.013,0.51-.307,0.5a0.918,0.918,0,0,1-.6-0.952,0.814,0.814,0,0,1,.013-0.367,0.356,0.356,0,0,1,.3-0.12,0.751,0.751,0,0,1,.565.547Zm-5.929-7.128c-0.658-.743-0.659-1.442,0-1.562,0.648,0.742.642,1.433-.014,1.55Zm-0.751-2.839a5.183,5.183,0,0,1-2.063-.91,1.178,1.178,0,0,1-.294-0.38,0.551,0.551,0,0,1,.484-0.213q1.077,0.462,2.158,1a0.308,0.308,0,0,1-.308.487Zm0.99-.372a0.548,0.548,0,0,1-.666-0.108l-0.043-.032a0.388,0.388,0,0,1,.01-0.33,0.448,0.448,0,0,1,.524-0.1,0.45,0.45,0,0,1,.263.524A0.167,0.167,0,0,1,303.114,25Zm1.149-1.212a1.653,1.653,0,0,1-1.878-.865c-0.319-.407-0.648-0.81-0.911-1.137-0.008-.355,0-0.6,0-0.857q0.91-.4,1.825.867v0.8c0.3,0.362.628,0.767,0.962,1.182ZM309.7,27.2a0.837,0.837,0,0,1,.009.377c0.139,0.3.012,0.509-.307,0.5a0.918,0.918,0,0,1-.6-0.952,0.867,0.867,0,0,1,.008-0.375,0.356,0.356,0,0,1,.3-0.12,0.8,0.8,0,0,1,.585.565ZM1615.79,84.981h28.35l-0.03-28.327h-28.35Zm17.55-23.388a0.091,0.091,0,0,1,.11-0.038,0.312,0.312,0,0,1,.19.225c-0.02.28-.04,0.56-0.06,0.835a0.1,0.1,0,0,1-.11.037,0.293,0.293,0,0,1-.19-0.225C1633.29,62.147,1633.32,61.868,1633.34,61.593Zm0.87,3.594c0.22,0.276.2,0.519-.04,0.57-0.21-.276-0.19-0.519.04-0.572v0Zm4.41,6.023a2.5,2.5,0,0,1,.12,1.117,0.657,0.657,0,0,1,.19.435c-0.07.125-.26-0.067-0.51-0.175a1.8,1.8,0,0,1,.19-1.38Zm-5.3-3.974a1.71,1.71,0,0,1,.07-0.94,0.518,0.518,0,0,1,.21-0.075,1.486,1.486,0,0,1-.17,1.18A0.836,0.836,0,0,1,1633.32,67.236Zm0.17,1.455a0.215,0.215,0,0,1,.18-0.267,0.673,0.673,0,0,1,.12.582,0.21,0.21,0,0,1-.18.267,0.682,0.682,0,0,1-.11-0.575Zm2.65,9.117c0.01-.382.05-0.767,0.08-1.162a17.71,17.71,0,0,1-.21-2.317c0.01-.1.13-0.078,0.2,0a0.34,0.34,0,0,1,.09.158c0,0.195-.02.38-0.03,0.565,0.14,0.225.28,0.44,0.42,0.662a0.841,0.841,0,0,0,.24-0.827c-0.07-.132-0.15-0.29-0.27-0.5a0.425,0.425,0,0,1-.02-0.108,0.66,0.66,0,0,0-.46-0.632,0.5,0.5,0,0,1-.1-0.16c0.01-.38.05-0.75,0.07-1.117-0.12-.192-0.21-0.352-0.31-0.527l0.03-.557,0.31-.132c-0.09-.16-0.18-0.32-0.27-0.467a0.235,0.235,0,0,1,.17-0.312c0.11,0.147.2,0.3,0.31,0.457l0.3,0.17a0.9,0.9,0,0,1,.13.31c-0.03.717-.09,1.427-0.14,2.162,0.08,0.138.17,0.3,0.27,0.47l0.01,0.3c0.12,0.192.25,0.407,0.38,0.617,0.18,0.12.23-.015,0.35-0.017l0.69,0.315a0.186,0.186,0,0,0,.13-0.218c0.05-.612.1-1.217,0.16-1.82a0.087,0.087,0,0,1,.11-0.035,0.379,0.379,0,0,1,.1.13,0.676,0.676,0,0,1,.03.437c-0.05.808-.1,1.615-0.16,2.422a0.974,0.974,0,0,0,.04.15l0.21,0.325a1.828,1.828,0,0,1,0,.572c-0.01.1-.15,0.112-0.3,0.031-0.02-.009-0.04-0.02-0.06-0.031a1.182,1.182,0,0,1-.14-0.1,0.5,0.5,0,0,1-.1-0.16c0.01-.385.05-0.75,0.04-1.15a0.643,0.643,0,0,0-.21-0.28c-0.14-.112-0.3-0.192-0.42-0.05a0.182,0.182,0,0,1-.12.27,0.9,0.9,0,0,1-.32-0.385,0.091,0.091,0,0,0-.1-0.015,1.417,1.417,0,0,0-.13.78,0.374,0.374,0,0,0,.12.31l0.35-.085a0.642,0.642,0,0,1,.11.555h0v0.055a0.8,0.8,0,0,0-.01.157h0c-0.02.312-.05,0.62-0.06,0.942l-1.02-.217-0.03.3a0.611,0.611,0,0,1-.19,0,0.439,0.439,0,0,1-.27-0.228V77.808ZM708.864,84.981h28.343l-0.031-28.327H708.828Zm18.263-25.618c0.918-.112.92-0.11,1.829,0.88l0.006,0.762c-0.918.112-.92,0.11-1.826-0.88Zm-0.843,4.284a0.378,0.378,0,0,1,.583,0,2.653,2.653,0,0,1,.283.39,0.371,0.371,0,0,1-.587-0.013,1.556,1.556,0,0,1-.286-0.377h0.007Zm-3.362-.275a0.56,0.56,0,0,1,.306.125c0.476,0.593.49,1.136,0.035,1.3a0.989,0.989,0,0,1-.309-0.122c-0.478-.593-0.494-1.137-0.04-1.3h0.008ZM722.7,69.021c-0.012-.842-0.019-1.6-0.028-2.364,0.847-.21.851-0.2,1.822,0.787l-0.923.4c0.333,0.392.673,0.795,0.955,1.132a23.493,23.493,0,0,1,0,2.359c-0.024.27-.364,0.215-0.571,0.023a1.052,1.052,0,0,1-.3-0.407,5.216,5.216,0,0,1-.025-0.832c-0.321-.352-0.66-0.757-0.944-1.1H722.7Zm42.793-40.691h0L765.455,0h-28.33l0.031,28.327,0.029,28.327h28.342ZM742.935,45.9a0.405,0.405,0,0,1,.289-0.113,0.788,0.788,0,0,1,.594.542,0.681,0.681,0,0,1-.287.117,0.82,0.82,0,0,1-.6-0.547h0.007Zm1.972,2.369c0.049-.173.332-0.171,0.632,0a1.282,1.282,0,0,1,.116.077,4.469,4.469,0,0,1,.436.217,0.614,0.614,0,0,1,.345.665,0.354,0.354,0,0,1-.306.115,1.793,1.793,0,0,1-.436-0.2c-0.558-.265-0.944-0.682-0.79-0.877Zm4.917,6.723c-0.662-.743-0.67-1.445-0.018-1.57C750.468,54.163,750.476,54.864,749.824,54.989ZM749.135,47.4a0.693,0.693,0,0,1-.294.107,0.578,0.578,0,0,1-.313-0.65,0.393,0.393,0,0,1,.3-0.112,0.591,0.591,0,0,1,.307.657Zm-3.548-5.616-1.814.5a5.54,5.54,0,0,1,0,.9,0.291,0.291,0,0,1-.3.122,0.722,0.722,0,0,1-.573-0.572c-0.076-.792-0.042-1.537-0.051-2.3l0.9-.39-0.017-1.527c0.891-.15.893-0.147,1.828,0.84Zm-0.5-3.811c-0.662-.743-0.67-1.445-0.018-1.57,0.665,0.744.676,1.449,0.024,1.575Zm6.686,2.1a0.681,0.681,0,0,1-.294.107,0.575,0.575,0,0,1-.312-0.65,0.387,0.387,0,0,1,.288-0.112,0.616,0.616,0,0,1,.324.66ZM745.5,34.6a0.294,0.294,0,0,1-.261.16,0.793,0.793,0,0,1-.645-0.52c-0.279-.366-0.586-0.73-0.917-1.09-0.019-1.967-.062-3.774-0.029-5.546-0.045-.177.113-0.252,0.351-0.168a0.944,0.944,0,0,1,.21.108,1,1,0,0,1,.3.41,4.757,4.757,0,0,1,.025.767l0.921,1.267q0.043,2.317.066,4.616Zm4.878,1.827a2.556,2.556,0,0,1-.282-0.387,0.371,0.371,0,0,1,.587.013,1.526,1.526,0,0,1,.294.385,0.377,0.377,0,0,1-.591,0ZM1082.8,27.27l-0.03-1c-0.62-.637-0.62-0.64-1.17-0.52l0.03,1c0.63,0.645.63,0.645,1.18,0.527Zm0.32-2.167a0.452,0.452,0,0,0,.19-0.08,0.5,0.5,0,0,0-.39-0.345,0.245,0.245,0,0,0-.18.075,0.507,0.507,0,0,0,.37.355Zm22.46,3.222L1105.56,0h-28.34l0.02,28.327,0.05,28.325h-28.36l-0.03-28.325L1048.88,0h-28.35l0.03,28.327,0.03,28.327H992.25l0.027,28.322h28.333l-0.02-28.327h28.34l0.03,28.327h28.34l-0.03-28.327h28.34Zm-47.15,33.691a0.373,0.373,0,0,1,.18,0,0.87,0.87,0,0,1,.17.1c0.18,0.159.22,0.336,0.11,0.395a0.259,0.259,0,0,1-.16.012,0.667,0.667,0,0,1-.18-0.093,0.63,0.63,0,0,1-.15-0.167A0.474,0.474,0,0,1,1058.43,62.015Zm-0.14,1.25a1.381,1.381,0,0,1,1.02.516s0.01,0.007.01,0.011l-0.02.25a1.384,1.384,0,0,1-1.03-.516V63.515Zm-0.33,3.237c0.07-.75.14-1.5,0.22-2.227a1.355,1.355,0,0,1,.89.362,0.649,0.649,0,0,1,.14.172c-0.01.25-.04,0.5-0.06,0.75,0.17,0.182.33,0.357,0.49,0.527l-0.1,1h-0.55l-0.02.25a0.376,0.376,0,0,1-.38-0.117c-0.16-.178-0.34-0.357-0.51-0.535a0.629,0.629,0,0,1-.12-0.177V66.5Zm0.41,1.182c-0.03-.107.06-0.16,0.2-0.122a0.684,0.684,0,0,1,.35.267c0.15,0.172.32,0.347,0.47,0.5l-0.06.5a1.362,1.362,0,0,1-1-.5c-0.01-.011-0.01-0.022-0.02-0.032a3.846,3.846,0,0,0,.06-0.607v0Zm-0.32,3.149,0.03-.25a1.336,1.336,0,0,1,1.01.5c0.01,0.005.01,0.011,0.02,0.016l-0.02.25a1.337,1.337,0,0,1-1.02-.493c-0.01-.007-0.01-0.013-0.02-0.02v0Zm4.86-4.964h-0.42a0.767,0.767,0,0,0-.18.672,6.2,6.2,0,0,0-.07.625l-0.08.717h-0.25c-0.43.025-.43,0.06-0.08,0.5s0.37,0.477-.08.5a0.215,0.215,0,0,0-.25.25l0.46,0.517V69.9h-0.55l-0.13,1.25,0.48,0.525-0.21,2a0.934,0.934,0,0,1-1-.67,0.671,0.671,0,0,0-.2-0.32,1.919,1.919,0,0,1-.23-0.3c0.46,0,.46,0,0.02-0.475l0.25-2.484c-0.15-.18-0.3-0.352-0.49-0.567l0.08-.75,0.48-.022c-0.15-.162-0.3-0.332-0.46-0.5l0.24-2.249c-0.17-.177-0.33-0.355-0.49-0.532l0.23-2.267a0.443,0.443,0,0,1,.19.015c0.5,0.227,1.01.467,1.45,0.675a5.268,5.268,0,0,0,1.11.85,0.793,0.793,0,0,1,.31.313c-0.02.5-.09,1-0.13,1.48v0ZM1088.75,20.7a0.354,0.354,0,0,1-.2-0.078c-0.31-.38-0.33-0.733-0.04-0.84a0.721,0.721,0,0,1,.2.075C1089.01,20.234,1089.03,20.582,1088.75,20.7Zm-1.91-2.282c-0.43-.475-0.44-0.93-0.03-1.017,0.43,0.476.44,0.931,0.03,1.017h0Zm-5.1-6.086a0.242,0.242,0,0,1,.38,0,0.653,0.653,0,0,1,.18.25c0.03,0.337.03,0.662,0.05,1a0.527,0.527,0,0,1-.19.085,0.537,0.537,0,0,1-.4-0.355Zm3.07,5.368a10.632,10.632,0,0,1-.05-1.25l-0.03-.75c0-.337-0.09,0,0.2-0.075a0.463,0.463,0,0,1,.37.37c0.06,0.682.06,1.34,0.08,2-0.01.337,0.08-.012-0.2,0.072a0.464,0.464,0,0,1-.37-0.367h0Zm3.67,3.642a0.866,0.866,0,0,1,.36-0.16,2.579,2.579,0,0,1-.09,2.117,1.281,1.281,0,0,1-.21-0.28,3.135,3.135,0,0,1-.07-1.677h0.01Zm-1.63.158a0.589,0.589,0,0,1,.4.612,0.431,0.431,0,0,1,.01.25,0.208,0.208,0,0,1-.19.082,0.53,0.53,0,0,1-.38-0.362,0.549,0.549,0,0,1-.02-0.25c-0.09-.195-0.02-0.331.18-0.33v0Zm-3.15-2.309-0.04-1a0.425,0.425,0,0,1,.19-0.075,0.57,0.57,0,0,1,.39.372l0.04,1a0.468,0.468,0,0,1-.2.077,0.587,0.587,0,0,1-.39-0.375h0.01Zm4.43,8.978a0.424,0.424,0,0,1,.2-0.073,0.4,0.4,0,0,1,.21.417,0.252,0.252,0,0,1-.19.075,0.421,0.421,0,0,1-.22-0.42h0Zm-6.98.37c-0.05-1.175-.08-2.344-0.12-3.546l0.55-.27c-0.03-.82-0.08-1.667-0.07-2.487,0-.18.22-0.155,0.36-0.033a2.1,2.1,0,0,1,.21.25l0.02,0.522c0.28,0.362.56,0.727,0.84,1.087,0.29,0.037.43-.117,0.34-0.367-0.06-.177.05-0.285,0.25-0.265a0.846,0.846,0,0,1,.31.455c0.06,0.682.07,1.347,0.09,2.017l0.04,1.43c-0.77.382-.77,0.425,0.04,1.527l-0.58.235a7.079,7.079,0,0,1,.02.927,0.456,0.456,0,0,1-.32.137,2.344,2.344,0,0,0-.96-0.9,6.813,6.813,0,0,1-.8-0.4c-0.31-.412-0.22.023-0.23-0.315h0.01Zm3.94,3.147c0.31,0.382.31,0.731,0.01,0.83a0.408,0.408,0,0,1-.19-0.1,0.654,0.654,0,0,1-.18-0.25,1.221,1.221,0,0,1-.02-0.5,0.258,0.258,0,0,1,.18-0.087,0.8,0.8,0,0,1,.19.11h0.01Zm-1.84-.917a1.083,1.083,0,0,1,.19.262,1.607,1.607,0,0,1,.02,1.142,0.373,0.373,0,0,1-.19.083c-0.27-.35-0.55-0.7-0.82-1.057a1.058,1.058,0,0,1,.79-0.43h0.01Zm-2.02.8a0.673,0.673,0,0,1,.8.137c0.06,0.047.12,0.1,0.18,0.153a0.855,0.855,0,0,1,.21.75l-0.79.33a1.561,1.561,0,0,1-.35-0.4,8.179,8.179,0,0,1-.06-0.972h0.01Zm1.4,5.079a0.884,0.884,0,0,1,.82.18c0.24,0.32.48,0.677,0.78,1.112a2.017,2.017,0,0,1-.7.427l-0.64-.292a1.467,1.467,0,0,1-.27-1.427h0.01Zm0.66,4.854c-0.02-.53-0.04-1.112-0.06-1.694-0.01-.327.16-0.515,0.33-0.372a0.733,0.733,0,0,1,.26.53,0.615,0.615,0,0,0,.38.64c0.21,0,.29-0.133.2-0.332s-0.02-.337.19-0.335a0.613,0.613,0,0,1,.39.64l0.06,1.725a0.847,0.847,0,0,1-.92-0.183l-1.01.655C1082.58,41.846,1082.58,41.846,1083.29,41.493Zm3.54,3.164a12.7,12.7,0,0,1,.06,1.5c0.01,0.332.04,0.672,0.03,1a0.171,0.171,0,0,1-.19.087,0.453,0.453,0,0,1-.37-0.365c-0.07-.85-0.08-1.677-0.09-2.5a0.183,0.183,0,0,1,.19-0.085,0.477,0.477,0,0,1,.38.365Zm-3.18,7.748-0.4-.61a0.607,0.607,0,0,1,.4.617V52.405Zm-0.68-3.014a5.056,5.056,0,0,1-.78.25,0.933,0.933,0,0,1-.53-0.17,1.278,1.278,0,0,1-.42-0.45c-0.07-1.825-.14-3.639-0.2-5.451a0.351,0.351,0,0,1,.1-0.17,1.775,1.775,0,0,1,1.06.335c-0.09-.192-0.02-0.327.18-0.332a1.158,1.158,0,0,1,.78.357,0.469,0.469,0,0,1,.21.515l0.86,0.395a0.787,0.787,0,0,0,.4-0.657,0.206,0.206,0,0,1,.2-0.02,0.527,0.527,0,0,1,.2.25c0.07,0.852.13,1.694,0.18,2.5a0.42,0.42,0,0,1-.15.172c-0.26.11-.52,0.208-0.76,0.3a3.221,3.221,0,0,1-1.42-.9l0.55-.272-0.06-1.762-1.17-.537,0.06,1.25-0.56.273c0.19,0.25.37,0.5,0.55,0.75a11.249,11.249,0,0,0,.2,2.187,0.62,0.62,0,0,0,.37.358,0.453,0.453,0,0,0,.12.029c-0.02-.407-0.03-0.81-0.04-1.212,0.07-.163.34-0.163,0.65,0,0.27,0.135.53,0.259,0.8,0.372,0.35,0.383.43,0.766,0.21,0.94a0.847,0.847,0,0,1-.74-0.185,0.871,0.871,0,0,1-.88.1c0.02,0.232.03,0.48,0.03,0.8V49.391Zm5.95,5.661-1.19-.632a8.615,8.615,0,0,0-.12-2,2.317,2.317,0,0,0-1.1-.7c0.01,0.4.05,0.815,0.02,1.195a0.359,0.359,0,0,1-.32.115,0.829,0.829,0,0,1-.19-0.25,1.64,1.64,0,0,1,.02-1.122c0.03-.106.21-0.1,0.39,0a0.377,0.377,0,0,1,.08.054l-0.03-1a0.361,0.361,0,0,1-.25-0.13,1.535,1.535,0,0,1-.28-0.42,0.2,0.2,0,0,1,.17-0.068,1.7,1.7,0,0,1,.35.387,0.214,0.214,0,0,1,.02.227,0.888,0.888,0,0,1,.28.135c0.22,0.25.41,0.512,0.62,0.767a0.468,0.468,0,0,0,.28-0.5,1.275,1.275,0,0,1,.51-0.382,11.986,11.986,0,0,0-.07-2.057c-0.2-.265-0.35-0.445-0.49-0.622a3.245,3.245,0,0,1-.02-1.664,1.731,1.731,0,0,1,1.06.335Zm0.29-8.433a0.433,0.433,0,0,1-.3.2,0.5,0.5,0,0,1-.27-0.12c-0.36-.295.01,0.107,0-0.267-0.19-.225-0.4-0.477-0.61-0.73a0.766,0.766,0,0,1,.39-0.09,0.971,0.971,0,0,1,.8,1.012Zm-1.85-3.749c-0.22.1-.47,0.215-0.74,0.317a0.26,0.26,0,0,1-.19-0.072,0.83,0.83,0,0,1-.2-0.25c-0.03-.667-0.05-1.33-0.07-2.092a1.253,1.253,0,0,1,1.16.57Zm-1.27-3.6a0.213,0.213,0,0,1-.15.095,0.226,0.226,0,0,1-.18-0.02,0.294,0.294,0,0,1-.17-0.344,0.183,0.183,0,0,1,.04-0.026,0.335,0.335,0,0,1,.42.059c0.01,0.008.03,0.016,0.04,0.024A0.26,0.26,0,0,1,1086.09,39.266Zm0.86-.855a0.978,0.978,0,0,0-.37.685c-0.02.115-.2,0.122-0.39,0.017a1.07,1.07,0,0,1-.1-0.066l-0.04-1.25,0.58-.275-0.01-.475a0.791,0.791,0,0,1,.75.085,0.3,0.3,0,0,0,.37-0.127,13.289,13.289,0,0,0-.04-1.43,1.209,1.209,0,0,0-.52-0.52c-0.64-.387-0.66-0.425-0.68-0.885-0.01-.25-0.02-0.5-0.02-0.637a0.36,0.36,0,0,1,.54-0.04,0.409,0.409,0,0,0,.5.082v0a0.368,0.368,0,0,0-.19-0.44c-0.09-.109-0.18-0.22-0.26-0.33l0.51-.307c-0.01-.277-0.02-0.607-0.03-0.965,0.25-.113.5-0.232,0.75-0.335a0.291,0.291,0,0,1,.2.072,0.628,0.628,0,0,1,.19.265c0.08,2.019.15,4.034,0.22,6.163-0.6.212-1.25,0.5-1.96,0.712v0Zm249.37,30.242a0.184,0.184,0,0,0,.3.145,0.27,0.27,0,0,0-.2-0.18,0.175,0.175,0,0,0-.11.025Zm-0.61.5-0.01.5c0.31,0.332.32,0.335,0.61,0.28l0.01-.5c-0.33-.345-0.33-0.345-0.62-0.29ZM595.405,0H567.063l0.029,28.325,0.028,28.327h28.343l-0.029-28.327ZM575.992,55.7a0.4,0.4,0,0,1-.6-0.025,2.561,2.561,0,0,1-.282-0.387,0.384,0.384,0,0,1,.595.028A1.42,1.42,0,0,1,575.992,55.7Zm4.878-8.853c-0.014.25-.017,0.5-0.024,0.762-0.006.122-.033,0.232-0.048,0.34a1.3,1.3,0,0,1-1.282-.265l-1.256.377a2.169,2.169,0,0,0-.231,1.4c0.024,0.329-.35.422-0.836,0.207-0.031-.014-0.063-0.029-0.094-0.045-0.151-.07-0.3-0.148-0.673-0.327a5.5,5.5,0,0,1-.177-2.249,2.412,2.412,0,0,1,.208-0.712l1.273,0.4,1.276-.442c-0.3-.407-0.568-0.82-0.853-1.23a0.466,0.466,0,0,1,.321-0.1q0.88,0.334,1.773.75a1.121,1.121,0,0,1,.621,1.127Zm-3.612-9.08a0.709,0.709,0,0,1-.3.1,0.556,0.556,0,0,1-.3-0.645,0.406,0.406,0,0,1,.3-0.1,0.583,0.583,0,0,1,.3.647Zm18.207,18.89,0.027,28.322h28.34L623.8,56.654h-28.34Zm7.2,16.463q0.936-.382,1.829.89-0.942.377-1.831-.892Zm2.847-3.279a0.7,0.7,0,0,1-.3.108,0.809,0.809,0,0,1-.584-0.552,0.413,0.413,0,0,1,.3-0.1,0.772,0.772,0,0,1,.582.542Zm0.593-9.58a2.757,2.757,0,0,1-.3-0.412l0.04-1.5a0.4,0.4,0,0,1,.61,0,2.656,2.656,0,0,1,.3.415l-0.041,1.5a0.415,0.415,0,0,1-.613-0.005Zm329.464-3.6-0.029-28.327L935.505,0H907.163L907.2,28.329l0.029,28.327h28.342ZM913.176,10.542a0.368,0.368,0,0,1,.276-0.122,0.642,0.642,0,0,1,.342.66,0.659,0.659,0,0,1-.282.117,0.608,0.608,0,0,1-.338-0.657Zm0.388,10.207a2.6,2.6,0,0,1,.143-0.75l1.253,0.347,1.189-.527c-0.3-.407-0.611-0.817-0.917-1.227a0.42,0.42,0,0,1,.3-0.12q0.861,0.3,1.74.675a1.224,1.224,0,0,1,.7,1.142c0.011,0.262.032,0.532,0.038,0.792a2.086,2.086,0,0,1-.019.355,1.185,1.185,0,0,1-1.251-.207l-1.168.457a2.416,2.416,0,0,0-.116,1.465c0.051,0.339-.3.456-0.78,0.26-0.032-.013-0.065-0.027-0.1-0.042-0.15-.062-0.3-0.138-0.672-0.3A6.1,6.1,0,0,1,913.564,20.749Zm-0.432,8.6a0.355,0.355,0,0,1,.577,0,1.5,1.5,0,0,1,.3.385,0.36,0.36,0,0,1-.58,0,2.477,2.477,0,0,1-.292-0.375Zm3.148,9.247a0.361,0.361,0,0,1,.576-0.04,2.821,2.821,0,0,1,.332.412q0.045,0.78.084,1.557a0.363,0.363,0,0,1-.578.04,3.145,3.145,0,0,1-.332-0.412Zm0.012,11.4a0.793,0.793,0,0,1,.6.535,0.626,0.626,0,0,1-.275.128,0.821,0.821,0,0,1-.605-0.54A0.37,0.37,0,0,1,916.292,49.991Zm-0.03,4.914q-0.868.445-1.831-.827Q915.3,53.632,916.262,54.9ZM1592.42,36.857a0.3,0.3,0,0,0-.22.095,0.636,0.636,0,0,0,.48.422,0.543,0.543,0,0,0,.21-0.1,0.63,0.63,0,0,0-.48-0.415Zm-1.55,1.347,0.07,1.222c0.76,0.772.76,0.775,1.42,0.617-0.02-.408-0.04-0.816-0.07-1.222-0.76-.77-0.77-0.772-1.41-0.617h-0.01ZM1615.71,0h-28.33l0.02,28.327,0.03,28.327h28.34l-0.02-28.327Zm-25.07,21.7a0.286,0.286,0,0,1,.46,0,0.71,0.71,0,0,1,.23.317c0.06,0.415.06,0.815,0.08,1.22a0.583,0.583,0,0,1-.22.11,0.666,0.666,0,0,1-.49-0.43Zm3.86,6.546c-0.08-.532-0.07-1.03-0.1-1.54-0.02-.307-0.04-0.615-0.05-0.92-0.02-.412-0.1.017,0.24-0.1a0.553,0.553,0,0,1,.45.445c0.1,0.837.11,1.645,0.15,2.459,0.03,0.415.1-.017-0.24,0.1A0.573,0.573,0,0,1,1594.5,28.247Zm2.39-.4c0.53,0.576.56,1.135,0.07,1.25-0.54-.576-0.57-1.138-0.08-1.254h0Zm-2.54,25.271a2.546,2.546,0,0,1-.84.537l-0.77-.347a1.775,1.775,0,0,1-.35-1.75c0.2-.25.59,0.065,0.99,0.208,0.28,0.382.59,0.82,0.97,1.347v0.005Zm-2.31-6.5-0.95.42a2.011,2.011,0,0,1-.43-0.482c-0.07-.42-0.06-0.81-0.09-1.2a0.754,0.754,0,0,1,.94.132,2.214,2.214,0,0,1,.25.208,1.029,1.029,0,0,1,.26.9Zm1.23-.557a0.419,0.419,0,0,1-.22.107c-0.34-.427-0.67-0.852-1.01-1.285a1.257,1.257,0,0,1,.94-0.542,1.672,1.672,0,0,1,.25.317,1.949,1.949,0,0,1,.03,1.385Zm1.99,0.392a0.461,0.461,0,0,1-.24-0.122,0.9,0.9,0,0,1-.23-0.315,2.065,2.065,0,0,1-.03-0.6,0.327,0.327,0,0,1,.22-0.11,1.006,1.006,0,0,1,.24.127c0.37,0.459.38,0.878,0.02,1Zm-1.75-10.579c0.08,0.837.11,1.654,0.15,2.477l0.1,1.749c-0.9.482-.92,0.535,0.11,1.877l-0.67.3a10.523,10.523,0,0,1,.04,1.137,0.539,0.539,0,0,1-.37.175,2.927,2.927,0,0,0-1.18-1.095,8.232,8.232,0,0,1-.98-0.477c-0.4-.5-0.28.032-0.3-0.382-0.09-1.442-.17-2.879-0.25-4.354l0.66-.342c-0.05-1-.13-2.044-0.15-3.054,0-.222.26-0.195,0.44-0.047a2.933,2.933,0,0,1,.25.3l0.04,0.64,1.05,1.322c0.34,0.041.51-.15,0.39-0.455a0.238,0.238,0,0,1,.29-0.33,1.129,1.129,0,0,1,.37.537Zm5.73,5.586a0.276,0.276,0,0,1-.21.1,0.49,0.49,0,0,1-.27-0.515,0.5,0.5,0,0,1,.22-0.092A0.464,0.464,0,0,1,1599.24,41.456Zm-5.58-10.914a0.715,0.715,0,0,1-.48-0.45l-0.06-1.215a0.54,0.54,0,0,1,.23-0.1,0.7,0.7,0,0,1,.48.45l0.07,1.215a0.579,0.579,0,0,1-.23.1h-0.01Zm3.88,3.074a0.6,0.6,0,0,1,.01.295,0.258,0.258,0,0,1-.22.1,0.661,0.661,0,0,1-.48-0.44,0.785,0.785,0,0,1-.02-0.3c-0.11-.232-0.03-0.4.21-0.4a0.71,0.71,0,0,1,.5.742h0Zm1.83,1.432a1.944,1.944,0,0,1-.27-0.342,3.774,3.774,0,0,1-.11-2.057,1.064,1.064,0,0,1,.44-0.2,3.258,3.258,0,0,1-.05,2.6Zm-0.07-3.192a0.407,0.407,0,0,1-.24-0.092c-0.39-.462-0.42-0.9-0.07-1.032a0.836,0.836,0,0,1,.24.09c0.37,0.457.41,0.883,0.08,1.035h-0.01Zm243.2,40.466v1.292c0.7,0.7.73,0.717,1.37,0.567l-0.06-1.217c-0.69-.73-0.76-0.765-1.29-0.645Zm0.54-14.9a0.7,0.7,0,0,1-.22.11,0.464,0.464,0,0,1-.33-0.218l0.01,10.612a0.439,0.439,0,0,1,.13.053,2.124,2.124,0,0,1,.26.3c0.01,0.227.02,0.432,0.03,0.64,0.35,0.44.69,0.882,1.04,1.32,0.35,0.041.51-.149,0.39-0.455-0.07-.216.06-0.349,0.3-0.327a1.239,1.239,0,0,1,.41.552c0.07,0.835.09,1.65,0.13,2.469l0.09,1.749c-0.92.477-.91,0.53,0.09,1.872l-0.68.295a8.428,8.428,0,0,1,.04,1.135,0.534,0.534,0,0,1-.37.175,2.811,2.811,0,0,0-1.18-1.095,5.914,5.914,0,0,1-.65-0.32l0.01,3.112a1.412,1.412,0,0,1,.72.4,1.088,1.088,0,0,1,.28.922l-0.95.415c-0.02-.015-0.03-0.03-0.05-0.045l-0.01,3.889h28.33l-0.03-28.327h-27.82Zm1.71,22.744a0.484,0.484,0,0,1-.23.1c-0.33-.425-0.67-0.85-1.01-1.285a0.6,0.6,0,0,1,1.18-.22,2.019,2.019,0,0,1,.07,1.4h-0.01Zm1.98,0.4a0.5,0.5,0,0,1-.24-0.125,1,1,0,0,1-.22-0.312,1.752,1.752,0,0,1-.03-0.6,0.3,0.3,0,0,1,.22-0.108,1.051,1.051,0,0,1,.24.127c0.37,0.459.39,0.884,0.05,1.015h-0.02Zm4.05-4.949a0.3,0.3,0,0,1-.22.095,0.492,0.492,0,0,1-.26-0.512,0.323,0.323,0,0,1,.49.417h-0.01Zm-5.53-10.9a0.7,0.7,0,0,1-.48-0.45l-0.06-1.212a0.537,0.537,0,0,1,.24-0.095,0.7,0.7,0,0,1,.47.45l0.06,1.212a0.471,0.471,0,0,1-.22.095h-0.01Zm3.87,3.079a0.975,0.975,0,0,1,.01.292,0.3,0.3,0,0,1-.23.1,0.64,0.64,0,0,1-.47-0.44,0.626,0.626,0,0,1-.02-0.3c-0.12-.231-0.03-0.4.2-0.4a0.706,0.706,0,0,1,.51.745h0Zm1.82,1.435a1.854,1.854,0,0,1-.25-0.342,3.746,3.746,0,0,1-.1-2.052,1.062,1.062,0,0,1,.44-0.2,3.185,3.185,0,0,1-.07,2.609Zm-0.11-4.214c0.37,0.461.4,0.888,0.07,1.032a0.406,0.406,0,0,1-.24-0.093c-0.39-.461-0.41-0.893-0.07-1.027a0.682,0.682,0,0,1,.26.088h-0.02Zm-2.29-1.75c-0.53-.578-0.56-1.138-0.06-1.25,0.53,0.577.57,1.141,0.08,1.26Zm-2.35-3.4a0.565,0.565,0,0,1,.45.447c0.08,0.835.1,1.639,0.14,2.454,0.02,0.412.1-.017-0.25,0.093a0.578,0.578,0,0,1-.45-0.447,13.454,13.454,0,0,1-.09-1.535c-0.02-.307-0.03-0.612-0.05-0.917,0.01-.4-0.07.03,0.27-0.085Zm-2.47,11.227a0.636,0.636,0,0,0,.48.422,0.465,0.465,0,0,0,.21-0.1,0.6,0.6,0,0,0-.47-0.417,0.258,0.258,0,0,0-.19.105ZM1771.6,53.645a0.441,0.441,0,0,1,.16-0.06,0.961,0.961,0,0,1,.62.425,0.234,0.234,0,0,1,.04.1c0.01,0.352.01,0.7,0.02,1.06a4.325,4.325,0,0,0,.07,1.06c0.1,0.138.22,0.285,0.33,0.422h12.97l-0.03-28.327L1785.76,0h-28.34l0.03,28.325,0.03,28.327h14.18C1771.63,55.644,1771.61,54.635,1771.6,53.645Zm5.1-28.942c0.3,0.327.31,0.643,0.03,0.706a0.057,0.057,0,0,1-.02,0c-0.3-.325-0.32-0.641-0.04-0.705Zm-0.42,11.364a0.457,0.457,0,0,1,0-.165,0.177,0.177,0,0,1,.28,0,0.524,0.524,0,0,1,.13.185,0.334,0.334,0,0,1,.01.17c0,0.217-.13.3-0.27,0.172a0.314,0.314,0,0,1-.15-0.362h0Zm-2.97-1.9a0.179,0.179,0,0,1,.28,0,0.452,0.452,0,0,1,.14.185c0,0.352.01,0.695,0.02,1.042a0.177,0.177,0,0,1-.28,0,0.352,0.352,0,0,1-.13-0.185c-0.02-.35-0.02-0.695-0.03-1.042h0Zm5.7,8.88c0.03-.076.16-0.072,0.3,0.01a0.3,0.3,0,0,0,.05.035c-0.01-.395-0.03-0.8-0.01-1.182a0.323,0.323,0,0,1,.23-0.087,0.7,0.7,0,0,1,.13.185,2.043,2.043,0,0,1-.02,1.13c-0.02.077-.14,0.079-0.27,0.006a0.715,0.715,0,0,1-.07-0.051l0.01,0.352c-0.31-.17-0.43-0.307-0.36-0.395Zm-4.58-5.056,0.41,0.192c0.3,0.326.32,0.643,0.04,0.708a0.076,0.076,0,0,0-.02,0l-0.42-.192c-0.3-.325-0.32-0.641-0.04-0.707Zm0.5,15.816c-0.42.047-.43,0.047-0.84-0.4l-0.01-.345c0.43-.045.43-0.047,0.85,0.4V53.81Zm1.26,0.23a0.178,0.178,0,0,1-.27,0,0.452,0.452,0,0,1-.14-0.185c-0.01-.235-0.01-0.462-0.02-0.692a0.451,0.451,0,0,1,.14-0.057,0.364,0.364,0,0,1,.28.25c0.01,0.235.01,0.462,0.02,0.692Zm-5.18-15.483a0.394,0.394,0,0,1,.28.25,0.18,0.18,0,0,1-.13.05,0.373,0.373,0,0,1-.28-0.25,0.323,0.323,0,0,1,.14-0.043Zm8.18,14.746a0.17,0.17,0,0,1,.14-0.05,0.958,0.958,0,0,1,.21.09c0.26,0.125.43,0.315,0.36,0.4-0.02.079-.15,0.077-0.29,0a0.167,0.167,0,0,1-.05-0.035,1.784,1.784,0,0,1-.21-0.1,0.3,0.3,0,0,1-.16-0.3v0Zm-4.68-4.749a1.061,1.061,0,0,1,.33.322c0.03,1,.04,2,0.06,3,0,0.25-.21.31-0.54,0.093a0.941,0.941,0,0,1-.29-0.335,6.98,6.98,0,0,1-.03-0.86c-0.33-.145-0.67-0.306-1-0.48a0.941,0.941,0,0,1-.2-0.27l0.54-.262c0.17,0.2.32,0.38,0.47,0.552a0.256,0.256,0,0,0,.16-0.065c0-.577-0.01-1.162-0.02-1.749,0.05-.122.27-0.107,0.5,0.034,0,0,.01.007,0.01,0.011Zm-4.66-5.274a0.378,0.378,0,0,1,.28.25,0.176,0.176,0,0,1-.13.047,0.388,0.388,0,0,1-.28-0.25,0.288,0.288,0,0,1,.13-0.057v0.01Zm0.85,6.451a0.3,0.3,0,0,1,.36,0c0.34,0.125.45,0.1,0.45-.028-0.01-.812-0.03-1.627-0.04-2.374a0.671,0.671,0,0,0-.4-0.387,0.613,0.613,0,0,1-.37-0.277c-0.05-.114-0.01-0.195.11-0.2a1.2,1.2,0,0,0,.31-0.192l0.55,0.235a0.193,0.193,0,0,0,.19-0.192c0.11-.437.27-0.4,0.84,0.155,0,0.16.01,0.33,0,.5,0.01,0.275.01,0.267-.48,0.16a1.3,1.3,0,0,0-.34,0c0.14,0.19.27,0.38,0.41,0.57,0.03,1.461.06,2.922,0.08,4.381,0.01,0.34-.24.337-0.68,0a1.106,1.106,0,0,1-.15-0.183l-0.01-.355-0.44-.585-0.01-.677c-0.14-.21-0.26-0.39-0.39-0.562Zm-2.09-1.954c-0.04-.108.01-0.177,0.14-0.16a0.912,0.912,0,0,1,.12.175c0.05,0.107-.01.176-0.13,0.162a0.531,0.531,0,0,1-.13-0.187v0.01Zm-1.34-.735a2.389,2.389,0,0,0,.41-0.11,0.221,0.221,0,0,1,.29.025,0.379,0.379,0,0,1,.15.362,4.161,4.161,0,0,0-.01.5c-0.4.052-.4,0.052-0.84-0.38v-0.4ZM787,56.7l-0.449.07c-0.054.08,0.1,0.3-.156,0.27a1.422,1.422,0,0,1-.757-0.385h-20.12l0.029,28.325h28.342l-0.031-28.327h-6.9A0.567,0.567,0,0,1,787,56.7Zm-0.886,22.244c-0.244-.232-0.488-0.465-0.719-0.687-0.151-.192-0.125-0.356.059-0.367a0.446,0.446,0,0,1,.135.015,1.825,1.825,0,0,1,.667.41c0.054,0.262.318,0.637-.14,0.632Zm2.114,1.767-0.5-.232c-0.392-.437-0.394-0.44-0.047-0.55l0.5,0.233c0.395,0.44.392,0.44,0.047,0.552Zm-1.192-6.96a0.9,0.9,0,0,1-.033.75l-0.408.027c0.009,0.15.021,0.328,0.026,0.5q0.086,1.357.165,2.714a0.851,0.851,0,0,1-.8-0.21,2.513,2.513,0,0,1-.209-0.2l-0.13-2.154c-0.18-.182-0.355-0.357-0.546-0.552l-0.007-.25,0.487-.053-0.018-.265c-0.187-.185-0.363-0.362-0.532-0.53l0.016-.25,0.465-.073a2.059,2.059,0,0,1,.123-1.894,1.826,1.826,0,0,1,.733.43c0.254,0.56-.015.92,0.2,1.43a2.853,2.853,0,0,1,.468.58v0Zm2.127,1.689a1.273,1.273,0,0,1-1.017-.452l0-.006c-0.006-.088-0.014-0.177-0.018-0.265a1.367,1.367,0,0,1,1.032.467c0,0.082.006,0.17,0.01,0.257Zm-3.275-4.409c0.029-.125-0.179-0.415.3-0.225,0.243,0.235.483,0.462,0.738,0.707a1.415,1.415,0,0,1-1.041-.48v0Zm1.719-3.971-0.436.087a4.02,4.02,0,0,1,0,1.057l-0.443.03c0.036,0.582.083,1.212,0.1,1.827a0.323,0.323,0,0,1-.239.095l-0.506-.233a0.863,0.863,0,0,1-.3-0.475,3.545,3.545,0,0,0-.468-0.54l0.448-.073c-0.025-.42-0.05-0.867-0.085-1.317a0.73,0.73,0,0,0-.135-0.165c-0.124-.12-0.259-0.25-0.384-0.367l-0.082-1.355,0.489-.057c-0.02-.347-0.047-0.707-0.057-1.062a0.152,0.152,0,0,1,.145-0.028,0.438,0.438,0,0,1,.172.065c0.435,0.41.865,0.822,1.277,1.217l0.05,0.8c0.174,0.192.326,0.352,0.45,0.49Zm-1.58-3.779c-0.583-.275-0.62-0.312-0.652-0.7a1.143,1.143,0,0,1,.849.3q0.408,0.337.788,0.692a2.278,2.278,0,0,1-.984-0.3v0ZM368.7,28.329h0L368.67,0H348.355l-0.149.435a0.4,0.4,0,0,1-.187,0l-0.543-.265A0.964,0.964,0,0,1,347.31,0h-6.982l0.024,22.3a0.168,0.168,0,0,0,.079-0.1l0.014-.81L340.89,21.4a0.692,0.692,0,0,1,.385-0.712l0.8,0.762a4.863,4.863,0,0,0,.014.707,1.662,1.662,0,0,0,.308.282,3.319,3.319,0,0,1,.4.02,2.022,2.022,0,0,1,.731.35,0.373,0.373,0,0,1,.19.3l-0.028,2.149c-1.153-.485-2.118-1.03-2.926-1.387a0.556,0.556,0,0,1-.339-0.538l0-.006a1.643,1.643,0,0,1,0-.233,0.24,0.24,0,0,0-.077-0.075l0.008,5.306,0.031,28.327h28.34Zm-27.691-8.268a0.242,0.242,0,0,1-.011.112,0.385,0.385,0,0,1-.351-0.08,0.837,0.837,0,0,1-.18-0.172,0.169,0.169,0,0,1-.007-0.12c-0.023-.112.084-0.156,0.24-0.1a0.617,0.617,0,0,1,.119.062,0.328,0.328,0,0,1,.2.258,0.064,0.064,0,0,1-.019.037h0.008Zm7.056,5.3a1.611,1.611,0,0,1-1.087-.54l-0.007-.25a1.611,1.611,0,0,1,1.087.54Zm0.612-7.55-0.006.25-0.828-.073a0.5,0.5,0,0,1-.246-0.232,7.618,7.618,0,0,1,.011-1.192,0.28,0.28,0,0,1,.332.057,1.537,1.537,0,0,1,.193.18l0,0.477c0.17,0.175.352,0.35,0.539,0.532h0.008Zm0.064-5.186,0.01-2.079a0.13,0.13,0,0,1,.09-0.055,1.686,1.686,0,0,1,.737.283l0.775,0.722c0.009,0.085.019,0.17,0.022,0.25h-0.545l-0.008.967c0.178,0.175.351,0.345,0.522,0.515l-0.794-.033-0.526-.25a1.387,1.387,0,0,1-.292-0.322ZM344.385,9.6a1.4,1.4,0,0,1,.794.25l0.6,0.045c0.217,0.222.442,0.45,0.712,0.725,0.119,0.927.107,0.922-.189,1l-0.183-.16-0.376-.352-1.063-.52a1.524,1.524,0,0,1-.284-0.315,3.129,3.129,0,0,1-.023-0.675Zm2.424,4.231,0.538,0.262a1.38,1.38,0,0,1,.263.317c0.022,0.375.007,0.732,0,1.09a0.13,0.13,0,0,1-.075.065,1.684,1.684,0,0,1-.752-0.275,0.912,0.912,0,0,1-.167-0.168,1.923,1.923,0,0,1,.006-1.3,0.406,0.406,0,0,1,.178,0ZM342.18,9.714l0.89,0.1c0.3,0.287.54,0.522,0.747,0.725l0.063,0.29,0.395,0.372a0.6,0.6,0,0,1,.054.552,1.453,1.453,0,0,1-.779-0.25q-0.255-.375-0.56-0.75l-0.566-.058A1.067,1.067,0,0,1,342.18,9.714Zm4.3,8.855c-0.034-.1.045-0.154,0.177-0.113l0.024,0.008a0.925,0.925,0,0,1,.377.277c0.171,0.168.355,0.345,0.51,0.5,0,0.25,0,.5-0.006.727a1.892,1.892,0,0,1-.922-0.387,0.719,0.719,0,0,1-.149-0.165Zm0.8,3.581,0.751,0.707a0.428,0.428,0,0,1-.035.54,1.77,1.77,0,0,1-.724-0.27,1.234,1.234,0,0,1-.19-0.182,0.788,0.788,0,0,1,.016-0.8,0.46,0.46,0,0,1,.181.008v0Zm-1.356-1.522,0.009,0.25,0.539,0.522,0,0.475a1.364,1.364,0,0,1-.894-0.35q-0.38-.316-0.724-0.652l0.015-.75a1.591,1.591,0,0,1,1.062.507Zm-4.252-4.324a1.549,1.549,0,0,1,.709.25,0.535,0.535,0,0,1,.288.447c0.079,0.207-.045.33-0.289,0.29l-0.525-.25c-0.5-.432-0.236-0.542-0.181-0.735Zm0.716,1.98a1.294,1.294,0,0,1,.745.52l-0.744-.03c-0.374-.425-0.374-0.425,0-0.487Zm2.951,6.471,0-.475a1.058,1.058,0,0,1,.67.2,1.383,1.383,0,0,1,.4.317,7.767,7.767,0,0,1,0,1.2,0.26,0.26,0,0,1-.321-0.049l-0.009-.006a1.592,1.592,0,0,1-.2-0.18l0-.48Zm2.058,5.953c0.258-.075-0.191-0.572.355-0.475l0.784,0.735-0.482.025c-0.19.082,0.256,0.58-.329,0.452L347.2,31.2c-0.429-.5-0.432-0.5.193-0.485Zm3.324,2.387,0,1.175-0.464-.025a0.139,0.139,0,0,0-.08.068l-0.011,1.362-0.5.023-0.056.2,0.522,0.522h-0.545l-0.029,3.222a3.946,3.946,0,0,1-.42-0.137l-2.444-1.2a2.178,2.178,0,0,1-.228-0.155,0.921,0.921,0,0,1-.166-0.17l0-.962h0.565l0.021-2.167,0.486-.02c-0.1-.093-0.163-0.155-0.225-0.212-0.336-.342-0.439-0.532-0.175-0.5a0.681,0.681,0,0,0,.581-0.233,0.808,0.808,0,0,1,.187.047l0.384,0.36a0.688,0.688,0,0,0,.186.1,0.245,0.245,0,0,0,.182,0l0.024-1.774,1.079,0.147c0.074-.362.081-0.367,0.8,0a0.783,0.783,0,0,1,.312.32h0Zm-2.43-2.849L347.756,30a1.425,1.425,0,0,1-.269-0.317l-0.009-1.39a1.571,1.571,0,0,1,.853.272c0.186,0.2.4,0.427,0.763,0.8,0.111,0.3-.062.572,0.02,0.93ZM279.253,56.911c0,0.372,0,.625,0,0.872-0.928.1-.928,0.1-1.823-0.885,0-.08,0-0.162-0.007-0.25H255.355l-0.027-28.325L255.3,0h-28.34l0.026,28.325,0.031,28.327H198.678l0.029,28.325h28.342l-0.031-28.327h28.34l0.031,28.327h28.343L283.7,56.654h-4.655C279.118,56.739,279.2,56.841,279.253,56.911Zm-3.022,26.145a0.994,0.994,0,0,1-.306-0.123c-0.463-.594-0.471-1.13-0.019-1.295a0.56,0.56,0,0,1,.3.125C276.683,82.359,276.692,82.9,276.231,83.057Zm-0.313-6.363a1.462,1.462,0,0,1-.28-0.385,0.374,0.374,0,0,1,.59.017,3.712,3.712,0,0,1,.306.4A0.421,0.421,0,0,1,275.918,76.693Zm1.67-12.824a0.4,0.4,0,0,1,.293-0.11,0.6,0.6,0,0,1,.313.655,0.659,0.659,0,0,1-.3.1A0.573,0.573,0,0,1,277.588,63.869ZM277.323,66.9a41.484,41.484,0,0,1-.028,7.188,0.452,0.452,0,0,1-.307.127l-0.9-.427a2.929,2.929,0,0,1-.448-0.81c-0.043-1.285-.023-2.539-0.023-3.7a4.261,4.261,0,0,0,.441-0.17c0.667-.114.674-0.813,0.016-1.562l-0.019-.022c-0.629-.7-0.638-1.367-0.021-1.485a1.013,1.013,0,0,1,.111-0.014l0.883,0.455A1.53,1.53,0,0,1,277.323,66.9Zm2.49,0.957a3.054,3.054,0,0,1-.423-0.582,6.575,6.575,0,0,1-.118-1.147c0-.88.086-0.89,1.364-0.3,0.52,0.589.637,1.169,0.287,1.427A5.558,5.558,0,0,1,279.813,67.861Zm2.942,1.052a0.99,0.99,0,0,1-.3.12,0.609,0.609,0,0,1-.3-0.66,0.4,0.4,0,0,1,.291-0.11,0.574,0.574,0,0,1,.311.652ZM85.339,84.981H97.567c0.019-.792.047-1.579,0.071-2.387l0.422-.39,0.017-.545-0.4-.822,0.054-.552,0.637-.5,0.409,0.2a1.723,1.723,0,0,1,.206.835,5.12,5.12,0,0,0,.381.955,7.787,7.787,0,0,0-.024,1,0.423,0.423,0,0,0,.239.4,0.149,0.149,0,0,0,.161-0.122c0.041-.935.069-1.877,0.1-2.784,0.055-.155.269-0.2,0.545-0.1a1.072,1.072,0,0,0,.547-0.225c0.113,0.19.249,0.422,0.4,0.677l0.453-.322,0.623,0.3q0.145-4.531.285-9.062a0.372,0.372,0,0,1,.17-0.41,0.566,0.566,0,0,1,.474.193,0.525,0.525,0,0,1,.094.125q0.16,0.275.288,0.545a0.442,0.442,0,0,0,.248-0.217c0.07-1.682.12-3.372,0.161-4.939,0.2-.345.422-0.108,0.626-0.04a1.943,1.943,0,0,1,.2.535c-0.007.857-.045,1.7-0.066,2.554a1.246,1.246,0,0,0,.064.275l0.309,0.59-0.126,3.9,0.405,0.857-0.417.392-0.066,2.249c0.138,0.282.275,0.557,0.387,0.787l-0.116,3.969-0.652.535-0.593-1.23c0.019-.62.055-1.362,0.057-2.119a1.291,1.291,0,0,0-.213-0.407l-0.635.467,0.385,0.792-0.037,1.112-0.432.437a10.565,10.565,0,0,1-.114,1.687c-0.209.167,0.124,0.275-.163,0.12a0.541,0.541,0,0,1-.137-0.25c-0.16-.5.078-0.895-0.11-1.4a0.414,0.414,0,0,0-.147-0.2,0.156,0.156,0,0,0-.163.12c-0.042.8-.068,1.627-0.115,2.437h11.418l-0.031-28.327H85.325Zm-0.06-56.652h0L85.253,0H76.02l0,0.095,0.412,0.887-0.11,3.334c0.142,0.285.272,0.557,0.414,0.845l-0.019.545-0.452.41-0.035,1.1c-0.217.18,0.05,0.475-.165,0.137-0.149-.232-0.3-0.465-0.477-0.75L75.2,6.425c-0.4.26-.344,0.854,0.147,1.5-0.026.852-.076,1.767-0.073,2.7l1.241-.47a2.567,2.567,0,0,1,.533.62,11.1,11.1,0,0,1,.024,1.5,0.948,0.948,0,0,1-1.021-.095L76.017,14l-0.427.39-0.048,1.472c0.39,0.179.78,0.38,1.166,0.6,0.482,0.64.366-.03,0.363,0.5,0.009,1.8,0,3.6.006,5.441l-0.9.38c-0.007,1.25.032,2.559-.022,3.816-0.011.277-.358,0.23-0.571,0.04a2.9,2.9,0,0,1-.318-0.39v-0.8l-0.044-.06-0.047,1.45a0.818,0.818,0,0,1-.353.095,0.727,0.727,0,0,1-.481-0.582l0.066-2.042c-0.134-.185-0.271-0.372-0.42-0.557-0.456-.067-0.685.165-0.546,0.552,0.077,0.273-.093.434-0.416,0.4a1.368,1.368,0,0,1-.467-0.7c-0.048-1.05-.023-2.069-0.027-3.1V18.707c1.235-.557,1.236-0.625,0-2.344l0.532-.2-0.09-.175,0.145-4.521,0.429-.4,0.036-1.117a7.015,7.015,0,0,1-.776-1L73.13,8.7a3.3,3.3,0,0,0,.135-1.132,2.032,2.032,0,0,0,.352-0.39,1.71,1.71,0,0,0,.082-0.5,12.607,12.607,0,0,0-.8-1.655L72.97,2.864c-0.105-.145-0.187-0.275-0.294-0.432A0.412,0.412,0,0,1,73.1,2.089L73.415,1.8l0.021-.542L73.044,0.44,73.028,0H56.913l0.027,28.325L56.97,56.656H85.31ZM81.558,14.981a0.39,0.39,0,0,1,.14-0.117c0.095-.018.193,0.09,0.268,0.327a0.24,0.24,0,0,1-.141.115C81.734,15.335,81.633,15.218,81.558,14.981ZM71.6,11.274a2.2,2.2,0,0,1,0,.75,0.439,0.439,0,0,1-.3.125,1.272,1.272,0,0,1-.308-0.17c-0.461-.6-0.452-1.127.021-1.272a0.651,0.651,0,0,1,.3.165A1.069,1.069,0,0,1,71.6,11.274ZM69.787,0.31a0.352,0.352,0,0,1,.25-0.137,0.356,0.356,0,0,1,.275.035,0.448,0.448,0,0,1,.262.524,0.161,0.161,0,0,1-.081.048A0.546,0.546,0,0,1,69.828.673l-0.042-.031a0.4,0.4,0,0,1,.005-0.33ZM64.846,11.629c0.059-2.444.142-4.876,0.221-7.328l0.152-.135,0-1.517,0.338-.12,0.052-1.707c0.018-.54.277-0.6,0.716-0.157A1.156,1.156,0,0,1,66.46.9L66.423,2.224C67.054,2,67.7,1.779,68.388,1.594A1.519,1.519,0,0,0,69.007.557c0.043-.175.32-0.179,0.619-0.009a1.269,1.269,0,0,1,.155.1V2.581l-0.928.4v0.73a1.3,1.3,0,0,1-1.2-.155,0.471,0.471,0,0,0-.588.182c-0.065.73-.028,1.517-0.028,2.194a1.894,1.894,0,0,0,.8.817c0.989,0.615,1.018.675,1.023,1.377,0,0.377,0,.75,0,0.98a0.58,0.58,0,0,1-.855.045,0.669,0.669,0,0,0-.792-0.14c-0.135.139-.015,0.433,0.278,0.682,0.143,0.171.274,0.343,0.392,0.515l-0.808.457v1.482c-0.405.165-.815,0.337-1.229,0.5a0.446,0.446,0,0,1-.308-0.115,1.05,1.05,0,0,1-.3-0.41,0.483,0.483,0,0,1-.082-0.048A1,1,0,0,1,64.846,11.629Zm10.43,28.632,0,1.52a0.394,0.394,0,0,1-.609-0.02,1.091,1.091,0,0,1-.3-0.41c-0.028-.517-0.014-1.017-0.015-1.525a0.9,0.9,0,0,1,.3-0.125A0.817,0.817,0,0,1,75.276,40.261ZM70.683,33.44a17.2,17.2,0,0,1,.025,1.927c0,0.382,0,.767,0,1.15,0,0.517.132-.015-0.327,0.107a0.7,0.7,0,0,1-.562-0.577C69.758,35,69.79,33.99,69.794,32.971c0-.52-0.132.015,0.329-0.105A0.687,0.687,0,0,1,70.683,33.44ZM65.375,16.728a0.4,0.4,0,0,1,.29-0.11,0.6,0.6,0,0,1,.313.655,0.671,0.671,0,0,1-.3.105,0.565,0.565,0,0,1-.3-0.65h0Zm6.56,13.881a0.874,0.874,0,0,1,.593.582l0,1.52a0.782,0.782,0,0,1-.318.11,0.881,0.881,0,0,1-.6-0.582l0-1.52a0.785,0.785,0,0,1,.323-0.11h0ZM67.048,26.59a0.834,0.834,0,0,1,.011-0.367,0.354,0.354,0,0,1,.3-0.12,0.8,0.8,0,0,1,.6.947c0.14,0.3.014,0.509-.3,0.5a0.922,0.922,0,0,1-.6-0.96h0Zm6.963,10.017c-0.127-.25-0.26-0.522-0.384-0.77l0.422-.417c-0.02-.75-0.026-0.79-0.37-0.977a0.584,0.584,0,0,1-.354-0.336,0.154,0.154,0,0,1,0-.027,0.7,0.7,0,0,1,.156-0.9l0.419,0.2a0.735,0.735,0,0,0,.219-0.342c0.046-.835.052-1.69,0.1-2.522a0.622,0.622,0,0,1,.226-0.3c0.187,0.36.377,0.722,0.579,1.11l-0.165,5.086c-0.114.108-.253,0.25-0.4,0.375-0.239.207-.242,0.207-0.438-0.18h0ZM64.748,24.718a1.986,1.986,0,0,1,.32.44,4.467,4.467,0,0,1,0,2.569,1.445,1.445,0,0,1-.579.235,3.844,3.844,0,0,1,.262-3.242Zm2.761,9.112c-0.658-.744-0.658-1.443,0-1.562,0.657,0.743.658,1.442,0,1.562h0ZM64.6,28.7a0.564,0.564,0,0,1,.305.127c0.473,0.594.482,1.135,0.021,1.292A1.106,1.106,0,0,1,64.623,30c-0.461-.593-0.468-1.128-0.016-1.292h0ZM75.272,53.49a0.674,0.674,0,0,1-.286.115,0.813,0.813,0,0,1-.595-0.55,0.4,0.4,0,0,1,.29-0.11A0.771,0.771,0,0,1,75.272,53.49Zm5.34,2.4c0.109,0.246-.025.4-0.31,0.355a2.478,2.478,0,0,1-.295-0.385c-0.1-.244.033-0.4,0.313-0.357a1.447,1.447,0,0,1,.284.377Zm2.441-.66c-0.859-.407-1.74-0.8-2.623-1.267a2.563,2.563,0,0,1-.5-0.67l2.206-.835,0.885,0.42a2.17,2.17,0,0,1,.314.4,2.387,2.387,0,0,1,.045,1.81,0.592,0.592,0,0,1-.335.128Zm-6.864-34.04,0-1.527c-0.147-.165-0.24-0.255-0.348-0.365a6.435,6.435,0,0,1-.116,1,0.2,0.2,0,0,1-.148.065q-0.214-.342-0.43-0.685a0.708,0.708,0,0,0-.186.68l0.4,0.81,0,0.027a1.56,1.56,0,0,0,.83-0.018Zm-1.828-2,0,1.157c0.074,0.078.113,0.115,0.177,0.182l0.029-.92a2.045,2.045,0,0,1-.212-0.43Zm-0.306,3.6a0.391,0.391,0,0,0,.293-0.12,0.822,0.822,0,0,0-.593-0.547,0.667,0.667,0,0,0-.289.115,0.763,0.763,0,0,0,.582.542ZM126.7,56.287l-0.526.387h0.73a1.588,1.588,0,0,0-.216-0.4Zm-5.093.387h1.9a2.34,2.34,0,0,1,.216-0.123,0.552,0.552,0,0,1,.074.123h1.42q0.139-4.261.269-8.528a0.372,0.372,0,0,1,.17-0.41,0.551,0.551,0,0,1,.469.186,0.527,0.527,0,0,1,.1.132q0.16,0.275.288,0.545a0.441,0.441,0,0,0,.247-0.217c0.071-1.682.119-3.374,0.162-4.939,0.2-.345.422-0.108,0.626-0.04a1.958,1.958,0,0,1,.2.535c-0.005.86-.046,1.7-0.067,2.554a1.238,1.238,0,0,0,.062.275c0.095,0.182.191,0.365,0.309,0.59L127.91,51.24l0.406,0.857-0.423.392-0.066,2.249,0.387,0.787-0.038,1.135H142l-0.042-28.332L141.938,0H113.6l0.029,28.325,0.029,28.327h7.132l0.348-.282,0.416,0.2a0.634,0.634,0,0,1,.041.078Zm-6.221-39.607a7.423,7.423,0,0,1-.005-0.75c0.039-.635.09-0.665,0.688-0.382,0.292,0.577.614,1.19,0.913,1.822a0.93,0.93,0,0,1,.035.532,0.784,0.784,0,0,1-.234.3l-0.827-.4Zm8.554,12.207c0.452-.18.55-0.128,0.845,0.4,0.136,0.25.3,0.5,0.444,0.75-0.43.147-.43,0.157-1.177-0.347A1.152,1.152,0,0,1,123.936,29.274Z"/>
</svg>
