<svg xmlns="http://www.w3.org/2000/svg" width="300" height="299.938" viewBox="0 0 300 299.938">
  <defs>
    <style>
      .cls-1 {
        fill: #fff;
        fill-rule: evenodd;
      }
    </style>
  </defs>
  <path id="share_facebook" class="cls-1" d="M150,0C67.158,0,0,67.558,0,150.891,0,226.2,54.853,288.625,126.563,299.944V194.507H88.477V150.891h38.087V117.648c0-37.816,22.394-58.7,56.657-58.7A229.326,229.326,0,0,1,216.8,61.891V99.023H197.882c-18.634,0-24.444,11.631-24.444,23.564v28.3h41.6l-6.65,43.616H173.438V299.944C245.147,288.625,300,226.2,300,150.891,300,67.558,232.842,0,150,0Z"/>
</svg>
