<svg xmlns="http://www.w3.org/2000/svg" width="300" height="300" viewBox="0 0 300 300">
  <defs>
    <style>
      .cls-1 {
        fill: #fff;
        fill-rule: evenodd;
      }
    </style>
  </defs>
  <path id="share_twitter" class="cls-1" d="M150,0A150,150,0,1,0,300,150,149.959,149.959,0,0,0,150,0Zm75.375,121.575c0.075,1.5.075,3.075,0.075,4.65,0,47.775-36.375,102.9-102.9,102.9a100.76,100.76,0,0,1-55.275-16.35,65.763,65.763,0,0,0,8.625.525,72.7,72.7,0,0,0,44.925-15.45,36.11,36.11,0,0,1-33.75-25.125,34.529,34.529,0,0,0,6.825.675,36.052,36.052,0,0,0,9.525-1.275A36.2,36.2,0,0,1,74.4,136.65V136.2a35.526,35.526,0,0,0,16.35,4.5A36.148,36.148,0,0,1,79.5,92.475a102.6,102.6,0,0,0,74.55,37.8,33.142,33.142,0,0,1-.975-8.25,36.186,36.186,0,0,1,62.55-24.75,73.236,73.236,0,0,0,22.95-8.775,36.145,36.145,0,0,1-15.9,20.025,73.4,73.4,0,0,0,20.775-5.7A74.092,74.092,0,0,1,225.375,121.575Z"/>
</svg>
